solid 2-Din Stereo Clips
facet normal -2.860251718012799e-14 1.1467863695694741e-13 1.0
  outer loop
    vertex 438.21231093139215 257.47990222754714 11.999999999999787
    vertex 452.21231093139255 260.4799022275472 11.999999999999842
    vertex 438.21231093139204 260.4799022275471 11.999999999999494
  endloop
endfacet
facet normal -2.860251718012799e-14 1.1467863695694741e-13 1.0
  outer loop
    vertex 452.21231093139255 260.4799022275472 11.999999999999842
    vertex 438.21231093139215 257.47990222754714 11.999999999999787
    vertex 452.21231093139266 257.47990222754714 12.000000000000238
  endloop
endfacet
facet normal 9.317010894929056e-16 -0.9989931113898055 0.04486383171014033
  outer loop
    vertex 455.2123109313925 253.70265376462618 -7.0748827909047005
    vertex 445.21231093139255 253.70265376462618 -7.074882790904694
    vertex 445.21231093139255 253.52319843778565 -11.07085523646391
  endloop
endfacet
facet normal 9.317010894929056e-16 -0.9989931113898055 0.04486383171014033
  outer loop
    vertex 445.21231093139255 253.70265376462618 -7.074882790904694
    vertex 455.2123109313925 253.70265376462618 -7.0748827909047005
    vertex 455.2123109313925 253.7923814280465 -5.076896568125092
  endloop
endfacet
facet normal 6.669103772728888e-05 0.9989876631368211 -0.04498493584233445
  outer loop
    vertex 445.212044536305 218.59008136750057 -5.499450316998093
    vertex 455.2123109313925 218.58954039729622 -5.497986222779758
    vertex 445.2129964783495 218.40995991034913 -9.496741159419681
  endloop
endfacet
facet normal 6.669103772728888e-05 0.9989876631368211 -0.04498493584233445
  outer loop
    vertex 455.2123109313925 218.58954039729622 -5.497986222779758
    vertex 445.212044536305 218.59008136750057 -5.499450316998093
    vertex 455.2123109313925 218.67926806071645 -3.5000000000001514
  endloop
endfacet
facet normal 1.556982127497994e-06 -4.472040861171467e-09 -0.9999999999987879
  outer loop
    vertex 438.2123137339779 296.4799028868824 5.0999891011293235
    vertex 445.2122994447259 223.59008145700426 5.100000325948228
    vertex 438.21230224731124 223.59008211633952 5.099989427077696
  endloop
endfacet
facet normal 1.556982127497994e-06 -4.472040861171467e-09 -0.9999999999987879
  outer loop
    vertex 445.2122994447259 223.59008145700426 5.100000325948228
    vertex 438.2123137339779 296.4799028868824 5.0999891011293235
    vertex 445.21231093139255 296.4799022275472 5.099999999999855
  endloop
endfacet
facet normal -1.354462079925455e-14 0.13953068268239277 0.9902177480686687
  outer loop
    vertex 438.2123109313929 203.01178426143503 30.134931875852917
    vertex 452.2123109313921 257.6194329102299 22.44021774806896
    vertex 438.21231093139187 257.6194329102299 22.440217748068576
  endloop
endfacet
facet normal -1.354462079925455e-14 0.13953068268239277 0.9902177480686687
  outer loop
    vertex 452.2123109313921 257.6194329102299 22.44021774806896
    vertex 438.2123109313929 203.01178426143503 30.134931875852917
    vertex 452.21231093139295 203.01178426143503 30.134931875852917
  endloop
endfacet
facet normal -6.069555087234363e-15 5.733463921017246e-16 1.0
  outer loop
    vertex 436.2123109313925 184.47990222754729 11.999999999999803
    vertex 438.2123109313922 246.47990222754703 11.999999999999876
    vertex 438.21231093139204 260.4799022275471 11.999999999999494
  endloop
endfacet
facet normal -6.069555087234363e-15 5.733463921017246e-16 1.0
  outer loop
    vertex 438.2123109313922 246.47990222754703 11.999999999999876
    vertex 436.2123109313925 184.47990222754729 11.999999999999803
    vertex 438.21231093139295 243.4799022275471 11.999999999999932
  endloop
endfacet
facet normal -6.069555087234363e-15 5.733463921017246e-16 1.0
  outer loop
    vertex 438.21231093139295 243.4799022275471 11.999999999999932
    vertex 436.2123109313925 184.47990222754729 11.999999999999803
    vertex 455.2123109313925 184.47990222754729 11.999999999999849
  endloop
endfacet
facet normal -6.069555087234363e-15 5.733463921017246e-16 1.0
  outer loop
    vertex 438.21231093139204 260.4799022275471 11.999999999999494
    vertex 438.2123109313922 246.47990222754703 11.999999999999876
    vertex 438.21231093139215 257.47990222754714 11.999999999999787
  endloop
endfacet
facet normal -6.069555087234363e-15 5.733463921017246e-16 1.0
  outer loop
    vertex 438.21231093139295 243.4799022275471 11.999999999999932
    vertex 455.2123109313925 184.47990222754729 11.999999999999849
    vertex 452.21231093139255 243.4799022275471 11.999999999999842
  endloop
endfacet
facet normal -6.069555087234363e-15 5.733463921017246e-16 1.0
  outer loop
    vertex 452.21231093139255 243.4799022275471 11.999999999999842
    vertex 455.2123109313925 184.47990222754729 11.999999999999849
    vertex 452.21231093139266 246.47990222754711 12.000000000000238
  endloop
endfacet
facet normal -6.069555087234363e-15 5.733463921017246e-16 1.0
  outer loop
    vertex 452.21231093139266 246.47990222754711 12.000000000000238
    vertex 455.2123109313925 184.47990222754729 11.999999999999849
    vertex 452.21231093139266 257.47990222754714 12.000000000000238
  endloop
endfacet
facet normal -6.069555087234363e-15 5.733463921017246e-16 1.0
  outer loop
    vertex 436.21231093139227 296.4799022275471 11.999999999999662
    vertex 438.21231093139204 260.4799022275471 11.999999999999494
    vertex 452.21231093139255 296.4799022275472 11.999999999999842
  endloop
endfacet
facet normal -6.069555087234363e-15 5.733463921017246e-16 1.0
  outer loop
    vertex 438.21231093139204 260.4799022275471 11.999999999999494
    vertex 436.21231093139227 296.4799022275471 11.999999999999662
    vertex 436.2123109313925 184.47990222754729 11.999999999999803
  endloop
endfacet
facet normal -6.069555087234363e-15 5.733463921017246e-16 1.0
  outer loop
    vertex 452.21231093139255 296.4799022275472 11.999999999999842
    vertex 438.21231093139204 260.4799022275471 11.999999999999494
    vertex 452.21231093139255 260.4799022275472 11.999999999999842
  endloop
endfacet
facet normal -6.069555087234363e-15 5.733463921017246e-16 1.0
  outer loop
    vertex 452.21231093139255 296.4799022275472 11.999999999999842
    vertex 452.21231093139255 260.4799022275472 11.999999999999842
    vertex 452.21231093139266 257.47990222754714 12.000000000000238
  endloop
endfacet
facet normal -6.069555087234363e-15 5.733463921017246e-16 1.0
  outer loop
    vertex 452.21231093139255 296.4799022275472 11.999999999999842
    vertex 452.21231093139266 257.47990222754714 12.000000000000238
    vertex 455.2123109313925 184.47990222754729 11.999999999999849
  endloop
endfacet
facet normal -6.069555087234363e-15 5.733463921017246e-16 1.0
  outer loop
    vertex 438.2123109313922 246.47990222754703 11.999999999999876
    vertex 452.21231093139266 257.47990222754714 12.000000000000238
    vertex 438.21231093139215 257.47990222754714 11.999999999999787
  endloop
endfacet
facet normal -6.069555087234363e-15 5.733463921017246e-16 1.0
  outer loop
    vertex 452.21231093139266 257.47990222754714 12.000000000000238
    vertex 438.2123109313922 246.47990222754703 11.999999999999876
    vertex 452.21231093139266 246.47990222754711 12.000000000000238
  endloop
endfacet
facet normal -3.9439104996807984e-29 -1.0 -1.2222177954379348e-14
  outer loop
    vertex 452.2123109313924 243.47990222754697 19.383211713849878
    vertex 438.21231093139295 243.4799022275471 11.999999999999932
    vertex 452.21231093139255 243.4799022275471 11.999999999999842
  endloop
endfacet
facet normal -3.9439104996807984e-29 -1.0 -1.2222177954379348e-14
  outer loop
    vertex 438.21231093139295 243.4799022275471 11.999999999999932
    vertex 452.2123109313924 243.47990222754697 19.383211713849878
    vertex 438.2123109313923 243.47990222754697 19.383211713849878
  endloop
endfacet
facet normal -3.752381228028907e-26 -2.2515862718583834e-10 -1.0
  outer loop
    vertex 438.2123109313928 293.4799022275471 1.4999999853892914
    vertex 425.21231093139295 228.59008146935156 1.5000000006284155
    vertex 425.21231093139295 293.4799022398946 1.4999999860179125
  endloop
endfacet
facet normal -3.752381228028907e-26 -2.2515862718583834e-10 -1.0
  outer loop
    vertex 425.21231093139295 228.59008146935156 1.5000000006284155
    vertex 438.2123109313928 293.4799022275471 1.4999999853892914
    vertex 438.21231093139295 228.59008145700403 1.4999999999997942
  endloop
endfacet
facet normal 0.0 -1.0 0.0
  outer loop
    vertex 452.21231093139266 257.47990222754714 12.000000000000238
    vertex 438.21231093139215 257.47990222754714 15.99999999999992
    vertex 438.21231093139215 257.47990222754714 11.999999999999787
  endloop
endfacet
facet normal 0.0 -1.0 0.0
  outer loop
    vertex 438.21231093139215 257.47990222754714 15.99999999999992
    vertex 452.21231093139266 257.47990222754714 12.000000000000238
    vertex 452.21231093139255 257.47990222754714 16.000000000000274
  endloop
endfacet
facet normal 0.0 -1.0 0.0
  outer loop
    vertex 455.2123109313925 184.47990222754726 -3.9792784029048938
    vertex 445.21231093139255 184.47990222754726 -3.979278402904888
    vertex 445.21231093139255 184.47990222754726 -7.975250848464102
  endloop
endfacet
facet normal 0.0 -1.0 0.0
  outer loop
    vertex 445.21231093139255 184.47990222754726 -3.979278402904888
    vertex 455.2123109313925 184.47990222754726 -3.9792784029048938
    vertex 455.2123109313925 184.47990222754726 -1.9812921801252856
  endloop
endfacet
facet normal 2.2358305683057534e-14 1.051078416222399e-14 -1.0
  outer loop
    vertex 452.21231093139255 257.47990222754714 16.000000000000274
    vertex 438.21231093139215 246.47990222754703 15.999999999999847
    vertex 438.21231093139215 257.47990222754714 15.99999999999992
  endloop
endfacet
facet normal 2.2358305683057534e-14 1.051078416222399e-14 -1.0
  outer loop
    vertex 438.21231093139215 246.47990222754703 15.999999999999847
    vertex 452.21231093139255 257.47990222754714 16.000000000000274
    vertex 452.21231093139266 246.47990222754711 16.000000000000117
  endloop
endfacet
facet normal 1.6795468885222081e-15 -1.168531837003952e-17 -1.0
  outer loop
    vertex 452.21231093139255 296.4799022275472 9.999999999999869
    vertex 445.21231093139255 184.47990222754726 9.999999999999858
    vertex 445.21231093139255 296.4799022275472 9.999999999999853
  endloop
endfacet
facet normal 1.6795468885222081e-15 -1.168531837003952e-17 -1.0
  outer loop
    vertex 445.21231093139255 184.47990222754726 9.999999999999858
    vertex 452.21231093139255 296.4799022275472 9.999999999999869
    vertex 455.2123109313925 184.47990222754729 9.999999999999874
  endloop
endfacet
facet normal 1.6795468885222081e-15 -1.168531837003952e-17 -1.0
  outer loop
    vertex 455.2123109313925 184.47990222754729 9.999999999999874
    vertex 452.21231093139255 296.4799022275472 9.999999999999869
    vertex 455.2123109313925 185.97990222754729 9.999999999999869
  endloop
endfacet
facet normal -5.672986460188551e-15 -0.9203636984549759 0.3910635019613544
  outer loop
    vertex 452.21231093139295 197.66666823752567 34.92762287446283
    vertex 438.2123109313915 200.90553806639247 42.5502677890593
    vertex 438.2123109313917 197.66666823752567 34.92762287446242
  endloop
endfacet
facet normal -5.672986460188551e-15 -0.9203636984549759 0.3910635019613544
  outer loop
    vertex 438.2123109313915 200.90553806639247 42.5502677890593
    vertex 452.21231093139295 197.66666823752567 34.92762287446283
    vertex 452.2123109313928 200.90553806639247 42.5502677890593
  endloop
endfacet
facet normal 1.0 0.0 0.0
  outer loop
    vertex 455.2123109313925 218.58954039729622 -5.497986222779758
    vertex 455.2123109313925 184.47990222754726 -1.9812921801252856
    vertex 455.2123109313925 184.47990222754726 -3.9792784029048938
  endloop
endfacet
facet normal 1.0 0.0 0.0
  outer loop
    vertex 455.2123109313925 184.47990222754726 -1.9812921801252856
    vertex 455.2123109313925 218.58954039729622 -5.497986222779758
    vertex 455.2123109313925 218.67926806071645 -3.5000000000001514
  endloop
endfacet
facet normal 0.0 0.0 1.0
  outer loop
    vertex 438.21231093139295 228.59008145700403 -3.5000000000001514
    vertex 425.21231093139295 293.4799022398946 -3.4999999993715303
    vertex 425.21231093139295 228.59008146935156 -3.4999999993715303
  endloop
endfacet
facet normal 0.0 0.0 1.0
  outer loop
    vertex 425.21231093139295 293.4799022398946 -3.4999999993715303
    vertex 438.21231093139295 228.59008145700403 -3.5000000000001514
    vertex 438.2123109313928 293.4799022275471 -3.5000000000001514
  endloop
endfacet
facet normal 0.37122938740410766 -0.041701335248960456 -0.9276043017181543
  outer loop
    vertex 455.2123109313925 296.5696298909675 -9.00402755444079
    vertex 445.21231093139255 253.52319843778565 -11.07085523646391
    vertex 445.21231092569593 296.479902227982 -13.000000000000027
  endloop
endfacet
facet normal 0.37122938740410766 -0.041701335248960456 -0.9276043017181543
  outer loop
    vertex 445.21231093139255 253.52319843778565 -11.07085523646391
    vertex 455.2123109313925 296.5696298909675 -9.00402755444079
    vertex 455.2123109313925 253.70265376462618 -7.0748827909047005
  endloop
endfacet
facet normal -7.648096912075218e-16 -0.9902177480686702 0.1395306826823825
  outer loop
    vertex 452.2123109313931 184.6687312051093 34.23445314109559
    vertex 438.212310931392 185.01755791181526 36.709997511267034
    vertex 438.212310931392 184.66873120510928 34.23445314109537
  endloop
endfacet
facet normal -7.648096912075218e-16 -0.9902177480686702 0.1395306826823825
  outer loop
    vertex 438.212310931392 185.01755791181526 36.709997511267034
    vertex 452.2123109313931 184.6687312051093 34.23445314109559
    vertex 452.2123109313931 185.01755791181526 36.70999751126728
  endloop
endfacet
facet normal -6.826179648658748e-16 -0.990217748068668 0.13953068268239774
  outer loop
    vertex 452.2123109313932 196.41089209338404 26.015663141844882
    vertex 438.212310931392 197.3178415308196 32.452078504291
    vertex 438.21231093139204 196.41089209338404 26.01566314184465
  endloop
endfacet
facet normal -6.826179648658748e-16 -0.990217748068668 0.13953068268239774
  outer loop
    vertex 438.212310931392 197.3178415308196 32.452078504291
    vertex 452.2123109313932 196.41089209338404 26.015663141844882
    vertex 452.2123109313931 197.31784153081963 32.45207850429122
  endloop
endfacet
facet normal 2.4350918175063106e-09 -9.247141632819574e-11 -1.0
  outer loop
    vertex 425.2123111306497 293.4799022120743 50.99999894331804
    vertex 436.2123109299318 214.4799022275794 50.99999895729993
    vertex 425.2123109299319 214.47990223992693 50.99999895792853
  endloop
endfacet
facet normal 2.4350918175063106e-09 -9.247141632819574e-11 -1.0
  outer loop
    vertex 436.2123109299318 214.4799022275794 50.99999895729993
    vertex 425.2123111306497 293.4799022120743 50.99999894331804
    vertex 436.2123109577843 293.4799022275794 50.99999895729995
  endloop
endfacet
facet normal 5.161827477877806e-09 1.0 1.0033726720644045e-09
  outer loop
    vertex 425.21231109856126 296.4799022124769 -13.00000001398203
    vertex 438.2123109313929 296.4799022275472 -7.0748827909045024
    vertex 445.21231092569593 296.479902227982 -13.000000000000027
  endloop
endfacet
facet normal 5.161827477877806e-09 1.0 1.0033726720644045e-09
  outer loop
    vertex 438.2123109313929 296.4799022275472 -7.0748827909045024
    vertex 425.21231109856126 296.4799022124769 -13.00000001398203
    vertex 425.21231110425816 296.47990221204213 59.49999894331805
  endloop
endfacet
facet normal 5.161827477877806e-09 1.0 1.0033726720644045e-09
  outer loop
    vertex 445.21231092569593 296.479902227982 -13.000000000000027
    vertex 438.2123109313929 296.4799022275472 -7.0748827909045024
    vertex 445.21231093139255 296.4799022275472 -8.995968386173207
  endloop
endfacet
facet normal 5.161827477877806e-09 1.0 1.0033726720644045e-09
  outer loop
    vertex 445.21231093139255 296.4799022275472 -8.995968386173207
    vertex 438.2123109313929 296.4799022275472 -7.0748827909045024
    vertex 445.21231093139255 296.4799022275472 -7.074882790904694
  endloop
endfacet
facet normal 5.161827477877806e-09 1.0 1.0033726720644045e-09
  outer loop
    vertex 438.2123109313929 296.4799022275472 -7.0748827909045024
    vertex 425.21231110425816 296.47990221204213 59.49999894331805
    vertex 436.21231093139227 296.4799022275471 11.999999999999662
  endloop
endfacet
facet normal 5.161827477877806e-09 1.0 1.0033726720644045e-09
  outer loop
    vertex 438.2123109313929 296.4799022275472 -7.0748827909045024
    vertex 436.21231093139227 296.4799022275471 11.999999999999662
    vertex 438.2123137339779 296.4799028868824 5.0999891011293235
  endloop
endfacet
facet normal 5.161827477877806e-09 1.0 1.0033726720644045e-09
  outer loop
    vertex 438.2123137339779 296.4799028868824 5.0999891011293235
    vertex 436.21231093139227 296.4799022275471 11.999999999999662
    vertex 445.21231093139255 296.4799022275472 5.099999999999855
  endloop
endfacet
facet normal 5.161827477877806e-09 1.0 1.0033726720644045e-09
  outer loop
    vertex 445.21231093139255 296.4799022275472 5.099999999999855
    vertex 436.21231093139227 296.4799022275471 11.999999999999662
    vertex 445.21231093139255 296.4799022275472 9.999999999999853
  endloop
endfacet
facet normal 5.161827477877806e-09 1.0 1.0033726720644045e-09
  outer loop
    vertex 445.21231093139255 296.4799022275472 9.999999999999853
    vertex 436.21231093139227 296.4799022275471 11.999999999999662
    vertex 452.21231093139255 296.4799022275472 9.999999999999869
  endloop
endfacet
facet normal 5.161827477877806e-09 1.0 1.0033726720644045e-09
  outer loop
    vertex 436.21231093139227 296.4799022275471 11.999999999999662
    vertex 425.21231110425816 296.47990221204213 59.49999894331805
    vertex 436.2123109313928 296.4799022275472 59.49999895729998
  endloop
endfacet
facet normal 5.161827477877806e-09 1.0 1.0033726720644045e-09
  outer loop
    vertex 452.21231093139255 296.4799022275472 11.999999999999842
    vertex 452.21231093139255 296.4799022275472 9.999999999999869
    vertex 436.21231093139227 296.4799022275471 11.999999999999662
  endloop
endfacet
facet normal 1.0 3.457047331301449e-11 -7.128504966690361e-10
  outer loop
    vertex 445.21231092569593 296.479902227982 -13.000000000000027
    vertex 445.21231093139255 253.70265376462618 -7.074882790904694
    vertex 445.21231093139255 253.52319843778565 -11.07085523646391
  endloop
endfacet
facet normal 1.0 3.457047331301449e-11 -7.128504966690361e-10
  outer loop
    vertex 445.21231093139255 253.70265376462618 -7.074882790904694
    vertex 445.21231092569593 296.479902227982 -13.000000000000027
    vertex 445.21231093139255 296.4799022275472 -8.995968386173207
  endloop
endfacet
facet normal -1.0 -8.984291853394499e-15 -4.158772448195905e-14
  outer loop
    vertex 438.212310931392 185.01755791181526 36.709997511267034
    vertex 438.212310931392 197.3178415308196 32.452078504291
    vertex 438.212310931392 184.66873120510928 34.23445314109537
  endloop
endfacet
facet normal -1.0 -8.984291853394499e-15 -4.158772448195905e-14
  outer loop
    vertex 438.212310931392 197.3178415308196 32.452078504291
    vertex 438.212310931392 185.01755791181526 36.709997511267034
    vertex 438.2123109313917 197.66666823752567 34.92762287446242
  endloop
endfacet
facet normal -1.0 -8.984291853394499e-15 -4.158772448195905e-14
  outer loop
    vertex 438.2123109313915 200.90553806639247 42.5502677890593
    vertex 438.2123109313917 203.531590719471 33.823880932882545
    vertex 438.2123109313929 203.01178426143503 30.134931875852917
  endloop
endfacet
facet normal -1.0 -8.984291853394499e-15 -4.158772448195905e-14
  outer loop
    vertex 438.2123109313917 203.531590719471 33.823880932882545
    vertex 438.2123109313915 200.90553806639247 42.5502677890593
    vertex 438.2123109313916 207.02615866731156 41.687816704384424
  endloop
endfacet
facet normal -1.0 -8.984291853394499e-15 -4.158772448195905e-14
  outer loop
    vertex 438.21231093139204 196.41089209338404 26.01566314184465
    vertex 438.2123109313929 203.01178426143503 30.134931875852917
    vertex 438.2123109313923 243.47990222754697 19.383211713849878
  endloop
endfacet
facet normal -1.0 -8.984291853394499e-15 -4.158772448195905e-14
  outer loop
    vertex 438.2123109313929 203.01178426143503 30.134931875852917
    vertex 438.21231093139204 196.41089209338404 26.01566314184465
    vertex 438.212310931392 197.3178415308196 32.452078504291
  endloop
endfacet
facet normal -1.0 -8.984291853394499e-15 -4.158772448195905e-14
  outer loop
    vertex 438.2123109313929 203.01178426143503 30.134931875852917
    vertex 438.212310931392 197.3178415308196 32.452078504291
    vertex 438.2123109313917 197.66666823752567 34.92762287446242
  endloop
endfacet
facet normal -1.0 -8.984291853394499e-15 -4.158772448195905e-14
  outer loop
    vertex 438.2123109313929 203.01178426143503 30.134931875852917
    vertex 438.2123109313917 197.66666823752567 34.92762287446242
    vertex 438.2123109313915 200.90553806639247 42.5502677890593
  endloop
endfacet
facet normal -1.0 -8.984291853394499e-15 -4.158772448195905e-14
  outer loop
    vertex 438.2123109313923 243.47990222754697 19.383211713849878
    vertex 438.2123109313929 203.01178426143503 30.134931875852917
    vertex 438.21231093139187 257.6194329102299 22.440217748068576
  endloop
endfacet
facet normal -1.0 -8.984291853394499e-15 -4.158772448195905e-14
  outer loop
    vertex 438.2123109313923 243.47990222754697 19.383211713849878
    vertex 438.21231093139187 257.6194329102299 22.440217748068576
    vertex 438.21231093139215 246.47990222754703 15.999999999999847
  endloop
endfacet
facet normal -1.0 -8.984291853394499e-15 -4.158772448195905e-14
  outer loop
    vertex 438.2123109313923 243.47990222754697 19.383211713849878
    vertex 438.21231093139215 246.47990222754703 15.999999999999847
    vertex 438.21231093139295 243.4799022275471 11.999999999999932
  endloop
endfacet
facet normal -1.0 -8.984291853394499e-15 -4.158772448195905e-14
  outer loop
    vertex 438.21231093139215 246.47990222754703 15.999999999999847
    vertex 438.21231093139187 257.6194329102299 22.440217748068576
    vertex 438.21231093139215 257.47990222754714 15.99999999999992
  endloop
endfacet
facet normal -1.0 -8.984291853394499e-15 -4.158772448195905e-14
  outer loop
    vertex 438.21231093139215 257.47990222754714 15.99999999999992
    vertex 438.21231093139187 257.6194329102299 22.440217748068576
    vertex 438.21231093139215 257.47990222754714 11.999999999999787
  endloop
endfacet
facet normal -1.0 -8.984291853394499e-15 -4.158772448195905e-14
  outer loop
    vertex 438.21231093139215 257.47990222754714 11.999999999999787
    vertex 438.21231093139187 257.6194329102299 22.440217748068576
    vertex 438.21231093139204 260.4799022275471 11.999999999999494
  endloop
endfacet
facet normal -1.0 -8.984291853394499e-15 -4.158772448195905e-14
  outer loop
    vertex 438.21231093139204 260.4799022275471 11.999999999999494
    vertex 438.21231093139187 257.6194329102299 22.440217748068576
    vertex 438.21231093139204 260.479902227547 21.44999999999995
  endloop
endfacet
facet normal -1.0 -8.984291853394499e-15 -4.158772448195905e-14
  outer loop
    vertex 438.2123109313922 246.47990222754703 11.999999999999876
    vertex 438.21231093139295 243.4799022275471 11.999999999999932
    vertex 438.21231093139215 246.47990222754703 15.999999999999847
  endloop
endfacet
facet normal 0.0 1.0 0.0
  outer loop
    vertex 425.2123109299319 214.47990223992693 46.00000104332835
    vertex 436.2123109299318 214.4799022275794 50.99999895729993
    vertex 436.2123109299318 214.4799022275794 46.00000104269975
  endloop
endfacet
facet normal 0.0 1.0 0.0
  outer loop
    vertex 436.2123109299318 214.4799022275794 50.99999895729993
    vertex 425.2123109299319 214.47990223992693 46.00000104332835
    vertex 425.2123109299319 214.47990223992693 50.99999895792853
  endloop
endfacet
facet normal 8.180312756073134e-15 -0.13953068268238664 -0.9902177480686696
  outer loop
    vertex 438.2123109313923 243.47990222754697 19.383211713849878
    vertex 452.2123109313932 196.41089209338404 26.015663141844882
    vertex 438.21231093139204 196.41089209338404 26.01566314184465
  endloop
endfacet
facet normal 8.180312756073134e-15 -0.13953068268238664 -0.9902177480686696
  outer loop
    vertex 452.2123109313932 196.41089209338404 26.015663141844882
    vertex 438.2123109313923 243.47990222754697 19.383211713849878
    vertex 452.2123109313924 243.47990222754697 19.383211713849878
  endloop
endfacet
facet normal 6.087809442500053e-10 -6.52254727153308e-11 -1.0
  outer loop
    vertex 425.21231109856126 296.4799022124769 -13.00000001398203
    vertex 445.21231092569593 184.47990222798202 -13.000000000000027
    vertex 425.21231092569604 184.47990224032952 -12.999999999371525
  endloop
endfacet
facet normal 6.087809442500053e-10 -6.52254727153308e-11 -1.0
  outer loop
    vertex 445.21231092569593 184.47990222798202 -13.000000000000027
    vertex 425.21231109856126 296.4799022124769 -13.00000001398203
    vertex 445.21231092569593 296.479902227982 -13.000000000000027
  endloop
endfacet
facet normal -0.008972405167503724 0.9999597471626097 9.699715998767948e-11
  outer loop
    vertex 445.21231093139255 296.4799022275472 -8.995968386173207
    vertex 455.2123109313925 296.5696298909675 -9.00402755444079
    vertex 445.21231092569593 296.479902227982 -13.000000000000027
  endloop
endfacet
facet normal -0.008972405167503724 0.9999597471626097 9.699715998767948e-11
  outer loop
    vertex 455.2123109313925 296.5696298909675 -9.00402755444079
    vertex 445.21231093139255 296.4799022275472 -8.995968386173207
    vertex 455.2123109313925 296.5696298909675 -6.997982163393602
  endloop
endfacet
facet normal -6.4456376743949776e-15 1.0 -7.252842409284125e-29
  outer loop
    vertex 438.21231093139215 246.47990222754703 15.999999999999847
    vertex 452.21231093139266 246.47990222754711 12.000000000000238
    vertex 438.2123109313922 246.47990222754703 11.999999999999876
  endloop
endfacet
facet normal -6.4456376743949776e-15 1.0 -7.252842409284125e-29
  outer loop
    vertex 452.21231093139266 246.47990222754711 12.000000000000238
    vertex 438.21231093139215 246.47990222754703 15.999999999999847
    vertex 452.21231093139266 246.47990222754711 16.000000000000117
  endloop
endfacet
facet normal -6.4456376743952466e-15 1.0 9.549092850955303e-15
  outer loop
    vertex 438.21231093139204 260.479902227547 21.44999999999995
    vertex 452.21231093139255 260.4799022275472 11.999999999999842
    vertex 438.21231093139204 260.4799022275471 11.999999999999494
  endloop
endfacet
facet normal -6.4456376743952466e-15 1.0 9.549092850955303e-15
  outer loop
    vertex 452.21231093139255 260.4799022275472 11.999999999999842
    vertex 438.21231093139204 260.479902227547 21.44999999999995
    vertex 452.2123109313923 260.4799022275471 21.45000000000027
  endloop
endfacet
facet normal -2.4350899375286563e-09 9.247148771974958e-11 1.0
  outer loop
    vertex 436.2123109299318 214.4799022275794 46.00000104269975
    vertex 425.2123111306497 293.4799022120743 46.00000102871786
    vertex 425.2123109299319 214.47990223992693 46.00000104332835
  endloop
endfacet
facet normal -2.4350899375286563e-09 9.247148771974958e-11 1.0
  outer loop
    vertex 425.2123111306497 293.4799022120743 46.00000102871786
    vertex 436.2123109299318 214.4799022275794 46.00000104269975
    vertex 436.2123109577843 293.4799022275794 46.00000104269975
  endloop
endfacet
facet normal 0.9996316607880281 0.02713932110736683 0.0
  outer loop
    vertex 452.21231093139255 296.4799022275472 9.999999999999869
    vertex 455.2123109313925 185.97990222754729 11.999999999999842
    vertex 455.2123109313925 185.97990222754729 9.999999999999869
  endloop
endfacet
facet normal 0.9996316607880281 0.02713932110736683 0.0
  outer loop
    vertex 455.2123109313925 185.97990222754729 11.999999999999842
    vertex 452.21231093139255 296.4799022275472 9.999999999999869
    vertex 452.21231093139255 296.4799022275472 11.999999999999842
  endloop
endfacet
facet normal -9.668456511593062e-15 -5.63993296509602e-14 1.0
  outer loop
    vertex 438.21231093139295 243.4799022275471 11.999999999999932
    vertex 452.21231093139266 246.47990222754711 12.000000000000238
    vertex 438.2123109313922 246.47990222754703 11.999999999999876
  endloop
endfacet
facet normal -9.668456511593062e-15 -5.63993296509602e-14 1.0
  outer loop
    vertex 452.21231093139266 246.47990222754711 12.000000000000238
    vertex 438.21231093139295 243.4799022275471 11.999999999999932
    vertex 452.21231093139255 243.4799022275471 11.999999999999842
  endloop
endfacet
facet normal 1.0 1.5160231923916225e-14 2.022644258701477e-14
  outer loop
    vertex 452.2123109313931 197.31784153081963 32.45207850429122
    vertex 452.2123109313931 185.01755791181526 36.70999751126728
    vertex 452.2123109313931 184.6687312051093 34.23445314109559
  endloop
endfacet
facet normal 1.0 1.5160231923916225e-14 2.022644258701477e-14
  outer loop
    vertex 452.2123109313931 185.01755791181526 36.70999751126728
    vertex 452.2123109313931 197.31784153081963 32.45207850429122
    vertex 452.21231093139295 197.66666823752567 34.92762287446283
  endloop
endfacet
facet normal 1.0 1.5160231923916225e-14 2.022644258701477e-14
  outer loop
    vertex 452.21231093139255 260.4799022275472 11.999999999999842
    vertex 452.21231093139255 257.47990222754714 16.000000000000274
    vertex 452.21231093139266 257.47990222754714 12.000000000000238
  endloop
endfacet
facet normal 1.0 1.5160231923916225e-14 2.022644258701477e-14
  outer loop
    vertex 452.21231093139255 257.47990222754714 16.000000000000274
    vertex 452.21231093139255 260.4799022275472 11.999999999999842
    vertex 452.2123109313921 257.6194329102299 22.44021774806896
  endloop
endfacet
facet normal 1.0 1.5160231923916225e-14 2.022644258701477e-14
  outer loop
    vertex 452.2123109313921 257.6194329102299 22.44021774806896
    vertex 452.21231093139255 260.4799022275472 11.999999999999842
    vertex 452.2123109313923 260.4799022275471 21.45000000000027
  endloop
endfacet
facet normal 1.0 1.5160231923916225e-14 2.022644258701477e-14
  outer loop
    vertex 452.2123109313932 196.41089209338404 26.015663141844882
    vertex 452.21231093139295 203.01178426143503 30.134931875852917
    vertex 452.2123109313931 197.31784153081963 32.45207850429122
  endloop
endfacet
facet normal 1.0 1.5160231923916225e-14 2.022644258701477e-14
  outer loop
    vertex 452.21231093139295 203.01178426143503 30.134931875852917
    vertex 452.2123109313932 196.41089209338404 26.015663141844882
    vertex 452.2123109313924 243.47990222754697 19.383211713849878
  endloop
endfacet
facet normal 1.0 1.5160231923916225e-14 2.022644258701477e-14
  outer loop
    vertex 452.2123109313931 197.31784153081963 32.45207850429122
    vertex 452.21231093139295 203.01178426143503 30.134931875852917
    vertex 452.21231093139295 197.66666823752567 34.92762287446283
  endloop
endfacet
facet normal 1.0 1.5160231923916225e-14 2.022644258701477e-14
  outer loop
    vertex 452.21231093139295 197.66666823752567 34.92762287446283
    vertex 452.21231093139295 203.01178426143503 30.134931875852917
    vertex 452.2123109313928 200.90553806639247 42.5502677890593
  endloop
endfacet
facet normal 1.0 1.5160231923916225e-14 2.022644258701477e-14
  outer loop
    vertex 452.21231093139295 203.01178426143503 30.134931875852917
    vertex 452.2123109313924 243.47990222754697 19.383211713849878
    vertex 452.2123109313921 257.6194329102299 22.44021774806896
  endloop
endfacet
facet normal 1.0 1.5160231923916225e-14 2.022644258701477e-14
  outer loop
    vertex 452.2123109313921 257.6194329102299 22.44021774806896
    vertex 452.2123109313924 243.47990222754697 19.383211713849878
    vertex 452.21231093139266 246.47990222754711 16.000000000000117
  endloop
endfacet
facet normal 1.0 1.5160231923916225e-14 2.022644258701477e-14
  outer loop
    vertex 452.21231093139266 246.47990222754711 16.000000000000117
    vertex 452.2123109313924 243.47990222754697 19.383211713849878
    vertex 452.21231093139255 243.4799022275471 11.999999999999842
  endloop
endfacet
facet normal 1.0 1.5160231923916225e-14 2.022644258701477e-14
  outer loop
    vertex 452.21231093139266 246.47990222754711 16.000000000000117
    vertex 452.21231093139255 243.4799022275471 11.999999999999842
    vertex 452.21231093139266 246.47990222754711 12.000000000000238
  endloop
endfacet
facet normal 1.0 1.5160231923916225e-14 2.022644258701477e-14
  outer loop
    vertex 452.2123109313921 257.6194329102299 22.44021774806896
    vertex 452.21231093139266 246.47990222754711 16.000000000000117
    vertex 452.21231093139255 257.47990222754714 16.000000000000274
  endloop
endfacet
facet normal 1.0 1.5160231923916225e-14 2.022644258701477e-14
  outer loop
    vertex 452.2123109313928 200.90553806639247 42.5502677890593
    vertex 452.21231093139295 203.531590719471 33.82388093288294
    vertex 452.2123109313928 207.02615866731156 41.687816704384424
  endloop
endfacet
facet normal 1.0 1.5160231923916225e-14 2.022644258701477e-14
  outer loop
    vertex 452.21231093139295 203.531590719471 33.82388093288294
    vertex 452.2123109313928 200.90553806639247 42.5502677890593
    vertex 452.21231093139295 203.01178426143503 30.134931875852917
  endloop
endfacet
facet normal 0.9999999999911511 1.2449139578922922e-07 4.20506482967507e-06
  outer loop
    vertex 445.21231092569593 184.47990222798202 -13.000000000000027
    vertex 445.2129964783495 218.40995991034913 -9.496741159419681
    vertex 445.21231093139255 184.47990222754726 -7.975250848464102
  endloop
endfacet
facet normal 0.9999999999911511 1.2449139578922922e-07 4.20506482967507e-06
  outer loop
    vertex 445.2129964783495 218.40995991034913 -9.496741159419681
    vertex 445.21231092569593 184.47990222798202 -13.000000000000027
    vertex 445.21231092569593 296.479902227982 -13.000000000000027
  endloop
endfacet
facet normal 0.9999999999911511 1.2449139578922922e-07 4.20506482967507e-06
  outer loop
    vertex 445.2129964783495 218.40995991034913 -9.496741159419681
    vertex 445.21231092569593 296.479902227982 -13.000000000000027
    vertex 445.21231093139255 253.52319843778565 -11.07085523646391
  endloop
endfacet
facet normal 0.9999999999911511 1.2449139578922922e-07 4.20506482967507e-06
  outer loop
    vertex 445.2129964783495 218.40995991034913 -9.496741159419681
    vertex 445.21231093139255 253.52319843778565 -11.07085523646391
    vertex 445.212310654997 223.59008145700426 -7.074882464935672
  endloop
endfacet
facet normal 0.9999999999911511 1.2449139578922922e-07 4.20506482967507e-06
  outer loop
    vertex 445.2129964783495 218.40995991034913 -9.496741159419681
    vertex 445.212310654997 223.59008145700426 -7.074882464935672
    vertex 445.212044536305 218.59008136750057 -5.499450316998093
  endloop
endfacet
facet normal 0.9999999999911511 1.2449139578922922e-07 4.20506482967507e-06
  outer loop
    vertex 445.21231093139255 253.70265376462618 -7.074882790904694
    vertex 445.212310654997 223.59008145700426 -7.074882464935672
    vertex 445.21231093139255 253.52319843778565 -11.07085523646391
  endloop
endfacet
facet normal 0.9999999999911511 1.2449139578922922e-07 4.20506482967507e-06
  outer loop
    vertex 445.212044536305 218.59008136750057 -5.499450316998093
    vertex 445.21231093139255 184.47990222754726 9.999999999999858
    vertex 445.21231093139255 184.47990222754726 -3.979278402904888
  endloop
endfacet
facet normal 0.9999999999911511 1.2449139578922922e-07 4.20506482967507e-06
  outer loop
    vertex 445.21231093139255 184.47990222754726 9.999999999999858
    vertex 445.212044536305 218.59008136750057 -5.499450316998093
    vertex 445.2122994447259 223.59008145700426 5.100000325948228
  endloop
endfacet
facet normal 0.9999999999911511 1.2449139578922922e-07 4.20506482967507e-06
  outer loop
    vertex 445.21231093139255 184.47990222754726 9.999999999999858
    vertex 445.2122994447259 223.59008145700426 5.100000325948228
    vertex 445.21231093139255 296.4799022275472 9.999999999999853
  endloop
endfacet
facet normal 0.9999999999911511 1.2449139578922922e-07 4.20506482967507e-06
  outer loop
    vertex 445.2122994447259 223.59008145700426 5.100000325948228
    vertex 445.212044536305 218.59008136750057 -5.499450316998093
    vertex 445.212310654997 223.59008145700426 -7.074882464935672
  endloop
endfacet
facet normal 0.9999999999911511 1.2449139578922922e-07 4.20506482967507e-06
  outer loop
    vertex 445.21231093139255 296.4799022275472 9.999999999999853
    vertex 445.2122994447259 223.59008145700426 5.100000325948228
    vertex 445.21231093139255 296.4799022275472 5.099999999999855
  endloop
endfacet
facet normal 1.968000957216999e-15 0.9902177480686689 -0.13953068268239235
  outer loop
    vertex 438.2123109313917 203.531590719471 33.823880932882545
    vertex 452.21231093139295 203.01178426143503 30.134931875852917
    vertex 438.2123109313929 203.01178426143503 30.134931875852917
  endloop
endfacet
facet normal 1.968000957216999e-15 0.9902177480686689 -0.13953068268239235
  outer loop
    vertex 452.21231093139295 203.01178426143503 30.134931875852917
    vertex 438.2123109313917 203.531590719471 33.823880932882545
    vertex 452.21231093139295 203.531590719471 33.82388093288294
  endloop
endfacet
facet normal 6.682254174344868e-19 0.13953068268238922 0.9902177480686694
  outer loop
    vertex 452.2123109313928 200.90553806639247 42.5502677890593
    vertex 438.2123109313916 207.02615866731156 41.687816704384424
    vertex 438.2123109313915 200.90553806639247 42.5502677890593
  endloop
endfacet
facet normal 6.682254174344868e-19 0.13953068268238922 0.9902177480686694
  outer loop
    vertex 438.2123109313916 207.02615866731156 41.687816704384424
    vertex 452.2123109313928 200.90553806639247 42.5502677890593
    vertex 452.2123109313928 207.02615866731156 41.687816704384424
  endloop
endfacet
facet normal 1.6415111584639585e-14 -0.13953068268238275 -0.9902177480686702
  outer loop
    vertex 452.2123109313931 197.31784153081963 32.45207850429122
    vertex 438.212310931392 184.66873120510928 34.23445314109537
    vertex 438.212310931392 197.3178415308196 32.452078504291
  endloop
endfacet
facet normal 1.6415111584639585e-14 -0.13953068268238275 -0.9902177480686702
  outer loop
    vertex 438.212310931392 184.66873120510928 34.23445314109537
    vertex 452.2123109313931 197.31784153081963 32.45207850429122
    vertex 452.2123109313931 184.6687312051093 34.23445314109559
  endloop
endfacet
facet normal 9.284202505151918e-09 -1.0 -1.0873186889645022e-25
  outer loop
    vertex 436.2123109577843 293.4799022275794 46.00000104269975
    vertex 425.2123111306497 293.4799022120743 50.99999894331804
    vertex 425.2123111306497 293.4799022120743 46.00000102871786
  endloop
endfacet
facet normal 9.284202505151918e-09 -1.0 -1.0873186889645022e-25
  outer loop
    vertex 425.2123111306497 293.4799022120743 50.99999894331804
    vertex 436.2123109577843 293.4799022275794 46.00000104269975
    vertex 436.2123109577843 293.4799022275794 50.99999895729995
  endloop
endfacet
facet normal -2.4849087459740878e-14 0.3271268755341761 0.9449804269418747
  outer loop
    vertex 452.2123109313921 257.6194329102299 22.44021774806896
    vertex 438.21231093139204 260.479902227547 21.44999999999995
    vertex 438.21231093139187 257.6194329102299 22.440217748068576
  endloop
endfacet
facet normal -2.4849087459740878e-14 0.3271268755341761 0.9449804269418747
  outer loop
    vertex 438.21231093139204 260.479902227547 21.44999999999995
    vertex 452.2123109313921 257.6194329102299 22.44021774806896
    vertex 452.2123109313923 260.4799022275471 21.45000000000027
  endloop
endfacet
facet normal 1.0 0.0 0.0
  outer loop
    vertex 455.2123109313925 296.5696298909675 -9.00402755444079
    vertex 455.2123109313925 253.7923814280465 -5.076896568125092
    vertex 455.2123109313925 253.70265376462618 -7.0748827909047005
  endloop
endfacet
facet normal 1.0 0.0 0.0
  outer loop
    vertex 455.2123109313925 253.7923814280465 -5.076896568125092
    vertex 455.2123109313925 296.5696298909675 -9.00402755444079
    vertex 455.2123109313925 296.5696298909675 -6.997982163393602
  endloop
endfacet
facet normal 1.0 0.0 0.0
  outer loop
    vertex 455.2123109313925 185.97990222754729 9.999999999999869
    vertex 455.2123109313925 184.47990222754729 11.999999999999849
    vertex 455.2123109313925 184.47990222754729 9.999999999999874
  endloop
endfacet
facet normal 1.0 0.0 0.0
  outer loop
    vertex 455.2123109313925 184.47990222754729 11.999999999999849
    vertex 455.2123109313925 185.97990222754729 9.999999999999869
    vertex 455.2123109313925 185.97990222754729 11.999999999999842
  endloop
endfacet
facet normal -1.0 1.5434393640116717e-09 7.857756980572776e-11
  outer loop
    vertex 425.21231093139295 184.47990223989476 59.49999895792856
    vertex 425.2123109299319 214.47990223992693 50.99999895792853
    vertex 425.21231092569604 184.47990224032952 -12.999999999371525
  endloop
endfacet
facet normal -1.0 1.5434393640116717e-09 7.857756980572776e-11
  outer loop
    vertex 425.2123109299319 214.47990223992693 50.99999895792853
    vertex 425.21231093139295 184.47990223989476 59.49999895792856
    vertex 425.21231110425816 296.47990221204213 59.49999894331805
  endloop
endfacet
facet normal -1.0 1.5434393640116717e-09 7.857756980572776e-11
  outer loop
    vertex 425.2123109299319 214.47990223992693 50.99999895792853
    vertex 425.21231110425816 296.47990221204213 59.49999894331805
    vertex 425.2123111306497 293.4799022120743 50.99999894331804
  endloop
endfacet
facet normal -1.0 1.5434393640116717e-09 7.857756980572776e-11
  outer loop
    vertex 425.2123111306497 293.4799022120743 50.99999894331804
    vertex 425.21231110425816 296.47990221204213 59.49999894331805
    vertex 425.2123111306497 293.4799022120743 46.00000102871786
  endloop
endfacet
facet normal -1.0 1.5434393640116717e-09 7.857756980572776e-11
  outer loop
    vertex 425.2123111306497 293.4799022120743 46.00000102871786
    vertex 425.21231110425816 296.47990221204213 59.49999894331805
    vertex 425.21231093139295 293.4799022398946 1.4999999860179125
  endloop
endfacet
facet normal -1.0 1.5434393640116717e-09 7.857756980572776e-11
  outer loop
    vertex 425.21231093139295 293.4799022398946 1.4999999860179125
    vertex 425.21231110425816 296.47990221204213 59.49999894331805
    vertex 425.21231093139295 293.4799022398946 -3.4999999993715303
  endloop
endfacet
facet normal -1.0 1.5434393640116717e-09 7.857756980572776e-11
  outer loop
    vertex 425.21231092569604 184.47990224032952 -12.999999999371525
    vertex 425.21231093139295 228.59008146935156 -3.4999999993715303
    vertex 425.21231109856126 296.4799022124769 -13.00000001398203
  endloop
endfacet
facet normal -1.0 1.5434393640116717e-09 7.857756980572776e-11
  outer loop
    vertex 425.21231093139295 228.59008146935156 -3.4999999993715303
    vertex 425.21231092569604 184.47990224032952 -12.999999999371525
    vertex 425.2123109299319 214.47990223992693 46.00000104332835
  endloop
endfacet
facet normal -1.0 1.5434393640116717e-09 7.857756980572776e-11
  outer loop
    vertex 425.2123109299319 214.47990223992693 46.00000104332835
    vertex 425.21231092569604 184.47990224032952 -12.999999999371525
    vertex 425.2123109299319 214.47990223992693 50.99999895792853
  endloop
endfacet
facet normal -1.0 1.5434393640116717e-09 7.857756980572776e-11
  outer loop
    vertex 425.21231093139295 228.59008146935156 -3.4999999993715303
    vertex 425.2123109299319 214.47990223992693 46.00000104332835
    vertex 425.21231093139295 228.59008146935156 1.5000000006284155
  endloop
endfacet
facet normal -1.0 1.5434393640116717e-09 7.857756980572776e-11
  outer loop
    vertex 425.21231109856126 296.4799022124769 -13.00000001398203
    vertex 425.21231093139295 228.59008146935156 -3.4999999993715303
    vertex 425.21231093139295 293.4799022398946 -3.4999999993715303
  endloop
endfacet
facet normal -1.0 1.5434393640116717e-09 7.857756980572776e-11
  outer loop
    vertex 425.21231109856126 296.4799022124769 -13.00000001398203
    vertex 425.21231093139295 293.4799022398946 -3.4999999993715303
    vertex 425.21231110425816 296.47990221204213 59.49999894331805
  endloop
endfacet
facet normal -1.0 1.5434393640116717e-09 7.857756980572776e-11
  outer loop
    vertex 425.2123111306497 293.4799022120743 46.00000102871786
    vertex 425.21231093139295 228.59008146935156 1.5000000006284155
    vertex 425.2123109299319 214.47990223992693 46.00000104332835
  endloop
endfacet
facet normal -1.0 1.5434393640116717e-09 7.857756980572776e-11
  outer loop
    vertex 425.21231093139295 228.59008146935156 1.5000000006284155
    vertex 425.2123111306497 293.4799022120743 46.00000102871786
    vertex 425.21231093139295 293.4799022398946 1.4999999860179125
  endloop
endfacet
facet normal -2.312800132406993e-14 0.13953068268239432 0.9902177480686685
  outer loop
    vertex 438.212310931392 185.01755791181526 36.709997511267034
    vertex 452.21231093139295 197.66666823752567 34.92762287446283
    vertex 438.2123109313917 197.66666823752567 34.92762287446242
  endloop
endfacet
facet normal -2.312800132406993e-14 0.13953068268239432 0.9902177480686685
  outer loop
    vertex 452.21231093139295 197.66666823752567 34.92762287446283
    vertex 438.212310931392 185.01755791181526 36.709997511267034
    vertex 452.2123109313931 185.01755791181526 36.70999751126728
  endloop
endfacet
facet normal 4.709539502957608e-08 0.9999999999999987 -2.7077645128352774e-08
  outer loop
    vertex 438.21231065499734 223.59008145700426 -7.07488246493548
    vertex 445.2122994447259 223.59008145700426 5.100000325948228
    vertex 445.212310654997 223.59008145700426 -7.074882464935672
  endloop
endfacet
facet normal 4.709539502957608e-08 0.9999999999999987 -2.7077645128352774e-08
  outer loop
    vertex 445.2122994447259 223.59008145700426 5.100000325948228
    vertex 438.21231065499734 223.59008145700426 -7.07488246493548
    vertex 438.21230224731124 223.59008211633952 5.099989427077696
  endloop
endfacet
facet normal 9.06409865207926e-09 4.32083355648812e-09 1.0
  outer loop
    vertex 445.212310654997 223.59008145700426 -7.074882464935672
    vertex 438.2123109313929 296.4799022275472 -7.0748827909045024
    vertex 438.21231065499734 223.59008145700426 -7.07488246493548
  endloop
endfacet
facet normal 9.06409865207926e-09 4.32083355648812e-09 1.0
  outer loop
    vertex 438.2123109313929 296.4799022275472 -7.0748827909045024
    vertex 445.212310654997 223.59008145700426 -7.074882464935672
    vertex 445.21231093139255 296.4799022275472 -7.074882790904694
  endloop
endfacet
facet normal 9.06409865207926e-09 4.32083355648812e-09 1.0
  outer loop
    vertex 445.21231093139255 296.4799022275472 -7.074882790904694
    vertex 445.212310654997 223.59008145700426 -7.074882464935672
    vertex 445.21231093139255 253.70265376462618 -7.074882790904694
  endloop
endfacet
facet normal 0.37119245213136887 -0.041452376099100116 -0.9276302409885311
  outer loop
    vertex 445.2129964783495 218.40995991034913 -9.496741159419681
    vertex 455.2123109313925 184.47990222754726 -3.9792784029048938
    vertex 445.21231093139255 184.47990222754726 -7.975250848464102
  endloop
endfacet
facet normal 0.37119245213136887 -0.041452376099100116 -0.9276302409885311
  outer loop
    vertex 455.2123109313925 184.47990222754726 -3.9792784029048938
    vertex 445.2129964783495 218.40995991034913 -9.496741159419681
    vertex 455.2123109313925 218.58954039729622 -5.497986222779758
  endloop
endfacet
facet normal -2.435093697357487e-09 6.522552448127566e-11 1.0
  outer loop
    vertex 436.2123109313929 184.47990222754726 59.49999895729998
    vertex 425.21231110425816 296.47990221204213 59.49999894331805
    vertex 425.21231093139295 184.47990223989476 59.49999895792856
  endloop
endfacet
facet normal -2.435093697357487e-09 6.522552448127566e-11 1.0
  outer loop
    vertex 425.21231110425816 296.47990221204213 59.49999894331805
    vertex 436.2123109313929 184.47990222754726 59.49999895729998
    vertex 436.2123109313928 296.4799022275472 59.49999895729998
  endloop
endfacet
facet normal 1.0 0.0 0.0
  outer loop
    vertex 445.21231093139255 296.4799022275472 -7.074882790904694
    vertex 445.21231093139255 253.70265376462618 -7.074882790904694
    vertex 445.21231093139255 296.4799022275472 -8.995968386173207
  endloop
endfacet
facet normal 0.9999999999999702 -8.069070484944455e-08 2.3019138337406615e-07
  outer loop
    vertex 438.21231065499734 223.59008145700426 -7.07488246493548
    vertex 438.21231093139295 228.59008145700403 -3.5000000000001514
    vertex 438.21230224731124 223.59008211633952 5.099989427077696
  endloop
endfacet
facet normal 0.9999999999999702 -8.069070484944455e-08 2.3019138337406615e-07
  outer loop
    vertex 438.21231093139295 228.59008145700403 -3.5000000000001514
    vertex 438.21231065499734 223.59008145700426 -7.07488246493548
    vertex 438.2123109313929 296.4799022275472 -7.0748827909045024
  endloop
endfacet
facet normal 0.9999999999999702 -8.069070484944455e-08 2.3019138337406615e-07
  outer loop
    vertex 438.21231093139295 228.59008145700403 -3.5000000000001514
    vertex 438.2123109313929 296.4799022275472 -7.0748827909045024
    vertex 438.2123109313928 293.4799022275471 -3.5000000000001514
  endloop
endfacet
facet normal 0.9999999999999702 -8.069070484944455e-08 2.3019138337406615e-07
  outer loop
    vertex 438.2123109313928 293.4799022275471 -3.5000000000001514
    vertex 438.2123109313929 296.4799022275472 -7.0748827909045024
    vertex 438.2123109313928 293.4799022275471 1.4999999853892914
  endloop
endfacet
facet normal 0.9999999999999702 -8.069070484944455e-08 2.3019138337406615e-07
  outer loop
    vertex 438.21230224731124 223.59008211633952 5.099989427077696
    vertex 438.21231093139295 228.59008145700403 1.4999999999997942
    vertex 438.2123137339779 296.4799028868824 5.0999891011293235
  endloop
endfacet
facet normal 0.9999999999999702 -8.069070484944455e-08 2.3019138337406615e-07
  outer loop
    vertex 438.21231093139295 228.59008145700403 1.4999999999997942
    vertex 438.21230224731124 223.59008211633952 5.099989427077696
    vertex 438.21231093139295 228.59008145700403 -3.5000000000001514
  endloop
endfacet
facet normal 0.9999999999999702 -8.069070484944455e-08 2.3019138337406615e-07
  outer loop
    vertex 438.2123137339779 296.4799028868824 5.0999891011293235
    vertex 438.21231093139295 228.59008145700403 1.4999999999997942
    vertex 438.2123109313928 293.4799022275471 1.4999999853892914
  endloop
endfacet
facet normal 0.9999999999999702 -8.069070484944455e-08 2.3019138337406615e-07
  outer loop
    vertex 438.2123137339779 296.4799028868824 5.0999891011293235
    vertex 438.2123109313928 293.4799022275471 1.4999999853892914
    vertex 438.2123109313929 296.4799022275472 -7.0748827909045024
  endloop
endfacet
facet normal -0.1959934351100366 0.043580116255361546 0.9796363339836559
  outer loop
    vertex 445.21231093139255 184.47990222754726 -3.979278402904888
    vertex 455.2123109313925 218.67926806071645 -3.5000000000001514
    vertex 445.212044536305 218.59008136750057 -5.499450316998093
  endloop
endfacet
facet normal -0.1959934351100366 0.043580116255361546 0.9796363339836559
  outer loop
    vertex 455.2123109313925 218.67926806071645 -3.5000000000001514
    vertex 445.21231093139255 184.47990222754726 -3.979278402904888
    vertex 455.2123109313925 184.47990222754726 -1.9812921801252856
  endloop
endfacet
facet normal 0.0 -1.0 0.0
  outer loop
    vertex 438.2123109313928 293.4799022275471 1.4999999853892914
    vertex 425.21231093139295 293.4799022398946 -3.4999999993715303
    vertex 438.2123109313928 293.4799022275471 -3.5000000000001514
  endloop
endfacet
facet normal 0.0 -1.0 0.0
  outer loop
    vertex 425.21231093139295 293.4799022398946 -3.4999999993715303
    vertex 438.2123109313928 293.4799022275471 1.4999999853892914
    vertex 425.21231093139295 293.4799022398946 1.4999999860179125
  endloop
endfacet
facet normal 1.0 1.6114094185987935e-15 -9.498834676044138e-15
  outer loop
    vertex 436.21231093139227 296.4799022275471 11.999999999999662
    vertex 436.2123109299318 214.4799022275794 46.00000104269975
    vertex 436.2123109313925 184.47990222754729 11.999999999999803
  endloop
endfacet
facet normal 1.0 1.6114094185987935e-15 -9.498834676044138e-15
  outer loop
    vertex 436.2123109299318 214.4799022275794 46.00000104269975
    vertex 436.21231093139227 296.4799022275471 11.999999999999662
    vertex 436.2123109577843 293.4799022275794 46.00000104269975
  endloop
endfacet
facet normal 1.0 1.6114094185987935e-15 -9.498834676044138e-15
  outer loop
    vertex 436.2123109577843 293.4799022275794 46.00000104269975
    vertex 436.21231093139227 296.4799022275471 11.999999999999662
    vertex 436.2123109577843 293.4799022275794 50.99999895729995
  endloop
endfacet
facet normal 1.0 1.6114094185987935e-15 -9.498834676044138e-15
  outer loop
    vertex 436.2123109313929 184.47990222754726 59.49999895729998
    vertex 436.2123109299318 214.4799022275794 50.99999895729993
    vertex 436.2123109313928 296.4799022275472 59.49999895729998
  endloop
endfacet
facet normal 1.0 1.6114094185987935e-15 -9.498834676044138e-15
  outer loop
    vertex 436.2123109299318 214.4799022275794 50.99999895729993
    vertex 436.2123109313929 184.47990222754726 59.49999895729998
    vertex 436.2123109313925 184.47990222754729 11.999999999999803
  endloop
endfacet
facet normal 1.0 1.6114094185987935e-15 -9.498834676044138e-15
  outer loop
    vertex 436.2123109299318 214.4799022275794 50.99999895729993
    vertex 436.2123109313925 184.47990222754729 11.999999999999803
    vertex 436.2123109299318 214.4799022275794 46.00000104269975
  endloop
endfacet
facet normal 1.0 1.6114094185987935e-15 -9.498834676044138e-15
  outer loop
    vertex 436.2123109313928 296.4799022275472 59.49999895729998
    vertex 436.2123109299318 214.4799022275794 50.99999895729993
    vertex 436.2123109577843 293.4799022275794 50.99999895729995
  endloop
endfacet
facet normal 1.0 1.6114094185987935e-15 -9.498834676044138e-15
  outer loop
    vertex 436.2123109313928 296.4799022275472 59.49999895729998
    vertex 436.2123109577843 293.4799022275794 50.99999895729995
    vertex 436.21231093139227 296.4799022275471 11.999999999999662
  endloop
endfacet
facet normal -0.19611613513818385 0.04399260641241495 0.97959334017719
  outer loop
    vertex 455.2123109313925 253.7923814280465 -5.076896568125092
    vertex 445.21231093139255 296.4799022275472 -8.995968386173207
    vertex 445.21231093139255 253.70265376462618 -7.074882790904694
  endloop
endfacet
facet normal -0.19611613513818385 0.04399260641241495 0.97959334017719
  outer loop
    vertex 445.21231093139255 296.4799022275472 -8.995968386173207
    vertex 455.2123109313925 253.7923814280465 -5.076896568125092
    vertex 455.2123109313925 296.5696298909675 -6.997982163393602
  endloop
endfacet
facet normal 0.0 1.0 0.0
  outer loop
    vertex 425.21231093139295 228.59008146935156 -3.4999999993715303
    vertex 438.21231093139295 228.59008145700403 1.4999999999997942
    vertex 438.21231093139295 228.59008145700403 -3.5000000000001514
  endloop
endfacet
facet normal 0.0 1.0 0.0
  outer loop
    vertex 438.21231093139295 228.59008145700403 1.4999999999997942
    vertex 425.21231093139295 228.59008146935156 -3.4999999993715303
    vertex 425.21231093139295 228.59008146935156 1.5000000006284155
  endloop
endfacet
facet normal 5.7265882611900986e-15 0.9138337416019814 -0.4060885281680871
  outer loop
    vertex 438.2123109313916 207.02615866731156 41.687816704384424
    vertex 452.21231093139295 203.531590719471 33.82388093288294
    vertex 438.2123109313917 203.531590719471 33.823880932882545
  endloop
endfacet
facet normal 5.7265882611900986e-15 0.9138337416019814 -0.4060885281680871
  outer loop
    vertex 452.21231093139295 203.531590719471 33.82388093288294
    vertex 438.2123109313916 207.02615866731156 41.687816704384424
    vertex 452.2123109313928 207.02615866731156 41.687816704384424
  endloop
endfacet
facet normal 1.384916872542309e-13 3.759955310069518e-15 1.0
  outer loop
    vertex 455.2123109313925 185.97990222754729 11.999999999999842
    vertex 452.21231093139255 296.4799022275472 11.999999999999842
    vertex 455.2123109313925 184.47990222754729 11.999999999999849
  endloop
endfacet
facet normal -1.0961597061316664e-11 -1.0 -4.6588765308087935e-12
  outer loop
    vertex 455.2123109313925 184.47990222754729 11.999999999999849
    vertex 436.2123109313925 184.47990222754729 11.999999999999803
    vertex 455.2123109313925 184.47990222754729 9.999999999999874
  endloop
endfacet
facet normal -1.0961597061316664e-11 -1.0 -4.6588765308087935e-12
  outer loop
    vertex 445.21231093139255 184.47990222754726 -7.975250848464102
    vertex 425.21231092569604 184.47990224032952 -12.999999999371525
    vertex 445.21231092569593 184.47990222798202 -13.000000000000027
  endloop
endfacet
facet normal -1.0961597061316664e-11 -1.0 -4.6588765308087935e-12
  outer loop
    vertex 425.21231092569604 184.47990224032952 -12.999999999371525
    vertex 445.21231093139255 184.47990222754726 -7.975250848464102
    vertex 436.2123109313925 184.47990222754729 11.999999999999803
  endloop
endfacet
facet normal -1.0961597061316664e-11 -1.0 -4.6588765308087935e-12
  outer loop
    vertex 425.21231092569604 184.47990224032952 -12.999999999371525
    vertex 436.2123109313925 184.47990222754729 11.999999999999803
    vertex 425.21231093139295 184.47990223989476 59.49999895792856
  endloop
endfacet
facet normal -1.0961597061316664e-11 -1.0 -4.6588765308087935e-12
  outer loop
    vertex 436.2123109313925 184.47990222754729 11.999999999999803
    vertex 445.21231093139255 184.47990222754726 -7.975250848464102
    vertex 445.21231093139255 184.47990222754726 -3.979278402904888
  endloop
endfacet
facet normal -1.0961597061316664e-11 -1.0 -4.6588765308087935e-12
  outer loop
    vertex 436.2123109313925 184.47990222754729 11.999999999999803
    vertex 445.21231093139255 184.47990222754726 -3.979278402904888
    vertex 445.21231093139255 184.47990222754726 9.999999999999858
  endloop
endfacet
facet normal -1.0961597061316664e-11 -1.0 -4.6588765308087935e-12
  outer loop
    vertex 436.2123109313925 184.47990222754729 11.999999999999803
    vertex 445.21231093139255 184.47990222754726 9.999999999999858
    vertex 455.2123109313925 184.47990222754729 9.999999999999874
  endloop
endfacet
facet normal -1.0961597061316664e-11 -1.0 -4.6588765308087935e-12
  outer loop
    vertex 425.21231093139295 184.47990223989476 59.49999895792856
    vertex 436.2123109313925 184.47990222754729 11.999999999999803
    vertex 436.2123109313929 184.47990222754726 59.49999895729998
  endloop
endfacet
endsolid 2-Din Stereo Clips
