solid 2-Din Stereo Clips
facet normal 2.8401091002803145e-14 1.1467863695694741e-13 1.0
  outer loop
    vertex 464.37607585666586 429.6389991209452 11.999999999999789
    vertex 450.37607585666547 432.63899912094524 11.999999999999842
    vertex 450.37607585666535 429.6389991209452 12.000000000000234
  endloop
endfacet
facet normal 2.8401091002803145e-14 1.1467863695694741e-13 1.0
  outer loop
    vertex 450.37607585666547 432.63899912094524 11.999999999999842
    vertex 464.37607585666586 429.6389991209452 11.999999999999789
    vertex 464.376075856666 432.63899912094513 11.999999999999494
  endloop
endfacet
facet normal -1.5569821282213636e-06 5.359541407965103e-14 -0.9999999999987881
  outer loop
    vertex 464.3760730540801 468.63899978028047 5.0999891011293235
    vertex 457.37608734333213 395.7491783504023 5.100000325948228
    vertex 457.37607585666547 468.63899912094524 5.099999999999858
  endloop
endfacet
facet normal -1.5569821282213636e-06 5.359541407965103e-14 -0.9999999999987881
  outer loop
    vertex 457.37608734333213 395.7491783504023 5.100000325948228
    vertex 464.3760730540801 468.63899978028047 5.0999891011293235
    vertex 464.3760845407468 395.74917900973753 5.099989427077693
  endloop
endfacet
facet normal -0.37122938740410766 -0.04170133524896046 -0.9276043017181543
  outer loop
    vertex 457.3760758623621 468.63899912138004 -13.000000000000027
    vertex 447.3760758566655 425.8617506580243 -7.0748827909047005
    vertex 447.3760758566655 468.72872678436556 -9.00402755444079
  endloop
endfacet
facet normal -0.37122938740410766 -0.04170133524896046 -0.9276043017181543
  outer loop
    vertex 447.3760758566655 425.8617506580243 -7.0748827909047005
    vertex 457.3760758623621 468.63899912138004 -13.000000000000027
    vertex 457.37607585666547 425.6822953311837 -11.07085523646391
  endloop
endfacet
facet normal 5.9530086604840036e-15 5.686127137043011e-16 1.0
  outer loop
    vertex 447.3760758566655 356.63899912094536 11.999999999999849
    vertex 450.37607585666547 415.63899912094513 11.999999999999842
    vertex 450.37607585666535 418.6389991209452 12.000000000000234
  endloop
endfacet
facet normal 5.9530086604840036e-15 5.686127137043011e-16 1.0
  outer loop
    vertex 450.37607585666547 415.63899912094513 11.999999999999842
    vertex 447.3760758566655 356.63899912094536 11.999999999999849
    vertex 466.3760758566655 356.63899912094536 11.999999999999806
  endloop
endfacet
facet normal 5.9530086604840036e-15 5.686127137043011e-16 1.0
  outer loop
    vertex 450.37607585666547 415.63899912094513 11.999999999999842
    vertex 466.3760758566655 356.63899912094536 11.999999999999806
    vertex 464.37607585666507 415.63899912094513 11.999999999999932
  endloop
endfacet
facet normal 5.9530086604840036e-15 5.686127137043011e-16 1.0
  outer loop
    vertex 464.37607585666507 415.63899912094513 11.999999999999932
    vertex 466.3760758566655 356.63899912094536 11.999999999999806
    vertex 464.3760758566658 418.6389991209451 11.999999999999874
  endloop
endfacet
facet normal 5.9530086604840036e-15 5.686127137043011e-16 1.0
  outer loop
    vertex 464.3760758566658 418.6389991209451 11.999999999999874
    vertex 466.3760758566655 356.63899912094536 11.999999999999806
    vertex 464.37607585666586 429.6389991209452 11.999999999999789
  endloop
endfacet
facet normal 5.9530086604840036e-15 5.686127137043011e-16 1.0
  outer loop
    vertex 464.37607585666586 429.6389991209452 11.999999999999789
    vertex 466.3760758566655 356.63899912094536 11.999999999999806
    vertex 464.376075856666 432.63899912094513 11.999999999999494
  endloop
endfacet
facet normal 5.9530086604840036e-15 5.686127137043011e-16 1.0
  outer loop
    vertex 447.3760758566655 356.63899912094536 11.999999999999849
    vertex 450.37607585666535 429.6389991209452 12.000000000000234
    vertex 450.37607585666547 468.63899912094524 11.999999999999842
  endloop
endfacet
facet normal 5.9530086604840036e-15 5.686127137043011e-16 1.0
  outer loop
    vertex 450.37607585666535 429.6389991209452 12.000000000000234
    vertex 447.3760758566655 356.63899912094536 11.999999999999849
    vertex 450.37607585666535 418.6389991209452 12.000000000000234
  endloop
endfacet
facet normal 5.9530086604840036e-15 5.686127137043011e-16 1.0
  outer loop
    vertex 450.37607585666547 468.63899912094524 11.999999999999842
    vertex 450.37607585666535 429.6389991209452 12.000000000000234
    vertex 450.37607585666547 432.63899912094524 11.999999999999842
  endloop
endfacet
facet normal 5.9530086604840036e-15 5.686127137043011e-16 1.0
  outer loop
    vertex 450.37607585666547 468.63899912094524 11.999999999999842
    vertex 450.37607585666547 432.63899912094524 11.999999999999842
    vertex 464.376075856666 432.63899912094513 11.999999999999494
  endloop
endfacet
facet normal 5.9530086604840036e-15 5.686127137043011e-16 1.0
  outer loop
    vertex 450.37607585666547 468.63899912094524 11.999999999999842
    vertex 464.376075856666 432.63899912094513 11.999999999999494
    vertex 466.3760758566658 468.6389991209452 11.999999999999664
  endloop
endfacet
facet normal 5.9530086604840036e-15 5.686127137043011e-16 1.0
  outer loop
    vertex 466.3760758566658 468.6389991209452 11.999999999999664
    vertex 464.376075856666 432.63899912094513 11.999999999999494
    vertex 466.3760758566655 356.63899912094536 11.999999999999806
  endloop
endfacet
facet normal 5.9530086604840036e-15 5.686127137043011e-16 1.0
  outer loop
    vertex 464.3760758566658 418.6389991209451 11.999999999999874
    vertex 450.37607585666535 429.6389991209452 12.000000000000234
    vertex 450.37607585666535 418.6389991209452 12.000000000000234
  endloop
endfacet
facet normal 5.9530086604840036e-15 5.686127137043011e-16 1.0
  outer loop
    vertex 450.37607585666535 429.6389991209452 12.000000000000234
    vertex 464.3760758566658 418.6389991209451 11.999999999999874
    vertex 464.37607585666586 429.6389991209452 11.999999999999789
  endloop
endfacet
facet normal -6.66480617462066e-05 0.9989878475084731 -0.04498084134855187
  outer loop
    vertex 447.3760758566655 390.7486372906942 -5.497986222779758
    vertex 457.37634225175304 390.74917826089865 -5.499450316998093
    vertex 457.37539030970856 390.5690568037472 -9.496741159419681
  endloop
endfacet
facet normal -6.66480617462066e-05 0.9989878475084731 -0.04498084134855187
  outer loop
    vertex 457.37634225175304 390.74917826089865 -5.499450316998093
    vertex 447.3760758566655 390.7486372906942 -5.497986222779758
    vertex 447.3760758566655 390.8383649541145 -3.5000000000001514
  endloop
endfacet
facet normal -1.3849168725411237e-13 3.7599553100663e-15 1.0
  outer loop
    vertex 450.37607585666547 468.63899912094524 11.999999999999842
    vertex 447.3760758566655 358.1389991209453 11.999999999999842
    vertex 447.3760758566655 356.63899912094536 11.999999999999849
  endloop
endfacet
facet normal -9.740335139888114e-10 -1.610777007973881e-10 -1.0
  outer loop
    vertex 464.37607585666524 465.63899912094513 1.4999999853892914
    vertex 477.37607585666507 400.749178362852 1.500000000533532
    vertex 464.37607585666507 400.7491783504021 1.4999999999997942
  endloop
endfacet
facet normal -9.740335139888114e-10 -1.610777007973881e-10 -1.0
  outer loop
    vertex 477.37607585666507 400.749178362852 1.500000000533532
    vertex 464.37607585666524 465.63899912094513 1.4999999853892914
    vertex 477.37607585666507 465.63899913339503 1.499999985923029
  endloop
endfacet
facet normal 0.0 -1.0 0.0
  outer loop
    vertex 457.37607585666547 356.6389991209453 -3.979278402904888
    vertex 447.3760758566655 356.6389991209453 -3.9792784029048938
    vertex 457.37607585666547 356.6389991209453 -7.975250848464102
  endloop
endfacet
facet normal 0.0 -1.0 0.0
  outer loop
    vertex 447.3760758566655 356.6389991209453 -3.9792784029048938
    vertex 457.37607585666547 356.6389991209453 -3.979278402904888
    vertex 447.3760758566655 356.6389991209453 -1.9812921801252856
  endloop
endfacet
facet normal 1.0961597061316662e-11 -1.0 -4.6588765308087935e-12
  outer loop
    vertex 477.376075862362 356.63899913382994 -12.999999999466407
    vertex 457.37607585666547 356.6389991209453 -7.975250848464102
    vertex 457.3760758623621 356.63899912138004 -13.000000000000027
  endloop
endfacet
facet normal 1.0961597061316662e-11 -1.0 -4.6588765308087935e-12
  outer loop
    vertex 457.37607585666547 356.6389991209453 -7.975250848464102
    vertex 477.376075862362 356.63899913382994 -12.999999999466407
    vertex 466.3760758566655 356.63899912094536 11.999999999999806
  endloop
endfacet
facet normal 1.0961597061316662e-11 -1.0 -4.6588765308087935e-12
  outer loop
    vertex 466.3760758566655 356.63899912094536 11.999999999999806
    vertex 477.376075862362 356.63899913382994 -12.999999999466407
    vertex 477.37607585666507 356.63899913339515 59.49999895783369
  endloop
endfacet
facet normal 1.0961597061316662e-11 -1.0 -4.6588765308087935e-12
  outer loop
    vertex 457.37607585666547 356.6389991209453 -7.975250848464102
    vertex 466.3760758566655 356.63899912094536 11.999999999999806
    vertex 457.37607585666547 356.6389991209453 -3.979278402904888
  endloop
endfacet
facet normal 1.0961597061316662e-11 -1.0 -4.6588765308087935e-12
  outer loop
    vertex 457.37607585666547 356.6389991209453 -3.979278402904888
    vertex 466.3760758566655 356.63899912094536 11.999999999999806
    vertex 457.37607585666547 356.6389991209453 9.999999999999858
  endloop
endfacet
facet normal 1.0961597061316662e-11 -1.0 -4.6588765308087935e-12
  outer loop
    vertex 457.37607585666547 356.6389991209453 9.999999999999858
    vertex 466.3760758566655 356.63899912094536 11.999999999999806
    vertex 447.3760758566655 356.63899912094536 9.999999999999874
  endloop
endfacet
facet normal 1.0961597061316662e-11 -1.0 -4.6588765308087935e-12
  outer loop
    vertex 466.3760758566655 356.63899912094536 11.999999999999806
    vertex 477.37607585666507 356.63899913339515 59.49999895783369
    vertex 466.3760758566652 356.6389991209453 59.49999895729997
  endloop
endfacet
facet normal 1.0961597061316662e-11 -1.0 -4.6588765308087935e-12
  outer loop
    vertex 447.3760758566655 356.63899912094536 11.999999999999849
    vertex 447.3760758566655 356.63899912094536 9.999999999999874
    vertex 466.3760758566655 356.63899912094536 11.999999999999806
  endloop
endfacet
facet normal 9.668456511593065e-15 -5.545934082344423e-14 1.0
  outer loop
    vertex 450.37607585666547 415.63899912094513 11.999999999999842
    vertex 464.3760758566658 418.6389991209451 11.999999999999874
    vertex 450.37607585666535 418.6389991209452 12.000000000000234
  endloop
endfacet
facet normal 9.668456511593065e-15 -5.545934082344423e-14 1.0
  outer loop
    vertex 464.3760758566658 418.6389991209451 11.999999999999874
    vertex 450.37607585666547 415.63899912094513 11.999999999999842
    vertex 464.37607585666507 415.63899912094513 11.999999999999932
  endloop
endfacet
facet normal -0.9999999999912139 1.37052256031606e-07 4.189683242276064e-06
  outer loop
    vertex 457.37607585666547 356.6389991209453 9.999999999999858
    vertex 457.37608734333213 395.7491783504023 5.100000325948228
    vertex 457.37607585666547 356.6389991209453 -3.979278402904888
  endloop
endfacet
facet normal -0.9999999999912139 1.37052256031606e-07 4.189683242276064e-06
  outer loop
    vertex 457.37608734333213 395.7491783504023 5.100000325948228
    vertex 457.37607585666547 356.6389991209453 9.999999999999858
    vertex 457.37607585666547 468.63899912094524 9.999999999999853
  endloop
endfacet
facet normal -0.9999999999912139 1.37052256031606e-07 4.189683242276064e-06
  outer loop
    vertex 457.37607585666547 356.6389991209453 -3.979278402904888
    vertex 457.37608734333213 395.7491783504023 5.100000325948228
    vertex 457.37634225175304 390.74917826089865 -5.499450316998093
  endloop
endfacet
facet normal -0.9999999999912139 1.37052256031606e-07 4.189683242276064e-06
  outer loop
    vertex 457.37608734333213 395.7491783504023 5.100000325948228
    vertex 457.37607585666547 468.63899912094524 9.999999999999853
    vertex 457.37607585666547 468.63899912094524 5.099999999999858
  endloop
endfacet
facet normal -0.9999999999912139 1.37052256031606e-07 4.189683242276064e-06
  outer loop
    vertex 457.37607585666547 425.8617506580243 -7.074882790904694
    vertex 457.37607585666547 425.6822953311837 -11.07085523646391
    vertex 457.376076133061 395.7491783504023 -7.074882464935672
  endloop
endfacet
facet normal -0.9999999999912139 1.37052256031606e-07 4.189683242276064e-06
  outer loop
    vertex 457.37539030970856 390.5690568037472 -9.496741159419681
    vertex 457.3760758623621 356.63899912138004 -13.000000000000027
    vertex 457.37607585666547 356.6389991209453 -7.975250848464102
  endloop
endfacet
facet normal -0.9999999999912139 1.37052256031606e-07 4.189683242276064e-06
  outer loop
    vertex 457.3760758623621 356.63899912138004 -13.000000000000027
    vertex 457.37539030970856 390.5690568037472 -9.496741159419681
    vertex 457.3760758623621 468.63899912138004 -13.000000000000027
  endloop
endfacet
facet normal -0.9999999999912139 1.37052256031606e-07 4.189683242276064e-06
  outer loop
    vertex 457.3760758623621 468.63899912138004 -13.000000000000027
    vertex 457.37539030970856 390.5690568037472 -9.496741159419681
    vertex 457.37607585666547 425.6822953311837 -11.07085523646391
  endloop
endfacet
facet normal -0.9999999999912139 1.37052256031606e-07 4.189683242276064e-06
  outer loop
    vertex 457.37607585666547 425.6822953311837 -11.07085523646391
    vertex 457.37539030970856 390.5690568037472 -9.496741159419681
    vertex 457.376076133061 395.7491783504023 -7.074882464935672
  endloop
endfacet
facet normal -0.9999999999912139 1.37052256031606e-07 4.189683242276064e-06
  outer loop
    vertex 457.376076133061 395.7491783504023 -7.074882464935672
    vertex 457.37539030970856 390.5690568037472 -9.496741159419681
    vertex 457.37634225175304 390.74917826089865 -5.499450316998093
  endloop
endfacet
facet normal -0.9999999999912139 1.37052256031606e-07 4.189683242276064e-06
  outer loop
    vertex 457.376076133061 395.7491783504023 -7.074882464935672
    vertex 457.37634225175304 390.74917826089865 -5.499450316998093
    vertex 457.37608734333213 395.7491783504023 5.100000325948228
  endloop
endfacet
facet normal -1.0 0.0 0.0
  outer loop
    vertex 447.3760758566655 390.8383649541145 -3.5000000000001514
    vertex 447.3760758566655 356.6389991209453 -3.9792784029048938
    vertex 447.3760758566655 356.6389991209453 -1.9812921801252856
  endloop
endfacet
facet normal -1.0 0.0 0.0
  outer loop
    vertex 447.3760758566655 356.6389991209453 -3.9792784029048938
    vertex 447.3760758566655 390.8383649541145 -3.5000000000001514
    vertex 447.3760758566655 390.7486372906942 -5.497986222779758
  endloop
endfacet
facet normal 1.0 1.556235069577861e-09 6.671727438420883e-11
  outer loop
    vertex 477.37607585812617 386.6389991334273 46.000001043233475
    vertex 477.37607585666507 400.749178362852 1.500000000533532
    vertex 477.3760756574083 465.6389991055747 46.00000102862298
  endloop
endfacet
facet normal 1.0 1.556235069577861e-09 6.671727438420883e-11
  outer loop
    vertex 477.37607585666507 400.749178362852 1.500000000533532
    vertex 477.37607585812617 386.6389991334273 46.000001043233475
    vertex 477.37607585666507 400.749178362852 -3.4999999994664135
  endloop
endfacet
facet normal 1.0 1.556235069577861e-09 6.671727438420883e-11
  outer loop
    vertex 477.3760756574083 465.6389991055747 46.00000102862298
    vertex 477.37607585666507 400.749178362852 1.500000000533532
    vertex 477.37607585666507 465.63899913339503 1.499999985923029
  endloop
endfacet
facet normal 1.0 1.556235069577861e-09 6.671727438420883e-11
  outer loop
    vertex 477.3760756574083 465.6389991055747 46.00000102862298
    vertex 477.37607585666507 465.63899913339503 1.499999985923029
    vertex 477.3760756574083 465.6389991055747 50.999998943223154
  endloop
endfacet
facet normal 1.0 1.556235069577861e-09 6.671727438420883e-11
  outer loop
    vertex 477.376075862362 356.63899913382994 -12.999999999466407
    vertex 477.37607585666507 400.749178362852 -3.4999999994664135
    vertex 477.37607585812617 386.6389991334273 46.000001043233475
  endloop
endfacet
facet normal 1.0 1.556235069577861e-09 6.671727438420883e-11
  outer loop
    vertex 477.37607585666507 400.749178362852 -3.4999999994664135
    vertex 477.376075862362 356.63899913382994 -12.999999999466407
    vertex 477.37607568949676 468.63899910597735 -13.000000014076914
  endloop
endfacet
facet normal 1.0 1.556235069577861e-09 6.671727438420883e-11
  outer loop
    vertex 477.37607585666507 400.749178362852 -3.4999999994664135
    vertex 477.37607568949676 468.63899910597735 -13.000000014076914
    vertex 477.37607585666507 465.63899913339503 -3.4999999994664135
  endloop
endfacet
facet normal 1.0 1.556235069577861e-09 6.671727438420883e-11
  outer loop
    vertex 477.37607585666507 465.63899913339503 -3.4999999994664135
    vertex 477.37607568949676 468.63899910597735 -13.000000014076914
    vertex 477.37607585666507 465.63899913339503 1.499999985923029
  endloop
endfacet
facet normal 1.0 1.556235069577861e-09 6.671727438420883e-11
  outer loop
    vertex 477.37607585666507 465.63899913339503 1.499999985923029
    vertex 477.37607568949676 468.63899910597735 -13.000000014076914
    vertex 477.37607568379985 468.63899910554255 59.49999894322317
  endloop
endfacet
facet normal 1.0 1.556235069577861e-09 6.671727438420883e-11
  outer loop
    vertex 477.37607585666507 356.63899913339515 59.49999895783369
    vertex 477.37607585812617 386.6389991334273 50.99999895783365
    vertex 477.37607568379985 468.63899910554255 59.49999894322317
  endloop
endfacet
facet normal 1.0 1.556235069577861e-09 6.671727438420883e-11
  outer loop
    vertex 477.37607585812617 386.6389991334273 50.99999895783365
    vertex 477.37607585666507 356.63899913339515 59.49999895783369
    vertex 477.376075862362 356.63899913382994 -12.999999999466407
  endloop
endfacet
facet normal 1.0 1.556235069577861e-09 6.671727438420883e-11
  outer loop
    vertex 477.37607585812617 386.6389991334273 50.99999895783365
    vertex 477.376075862362 356.63899913382994 -12.999999999466407
    vertex 477.37607585812617 386.6389991334273 46.000001043233475
  endloop
endfacet
facet normal 1.0 1.556235069577861e-09 6.671727438420883e-11
  outer loop
    vertex 477.37607568379985 468.63899910554255 59.49999894322317
    vertex 477.37607585812617 386.6389991334273 50.99999895783365
    vertex 477.3760756574083 465.6389991055747 50.999998943223154
  endloop
endfacet
facet normal 1.0 1.556235069577861e-09 6.671727438420883e-11
  outer loop
    vertex 477.37607568379985 468.63899910554255 59.49999894322317
    vertex 477.3760756574083 465.6389991055747 50.999998943223154
    vertex 477.37607585666507 465.63899913339503 1.499999985923029
  endloop
endfacet
facet normal -0.37119245213136876 -0.04145237609910013 -0.9276302409885311
  outer loop
    vertex 457.37539030970856 390.5690568037472 -9.496741159419681
    vertex 447.3760758566655 356.6389991209453 -3.9792784029048938
    vertex 447.3760758566655 390.7486372906942 -5.497986222779758
  endloop
endfacet
facet normal -0.37119245213136876 -0.04145237609910013 -0.9276302409885311
  outer loop
    vertex 447.3760758566655 356.6389991209453 -3.9792784029048938
    vertex 457.37539030970856 390.5690568037472 -9.496741159419681
    vertex 457.37607585666547 356.6389991209453 -7.975250848464102
  endloop
endfacet
facet normal -1.0 0.0 0.0
  outer loop
    vertex 457.37607585666547 468.63899912094524 -8.995968386173207
    vertex 457.37607585666547 425.8617506580243 -7.074882790904694
    vertex 457.37607585666547 468.63899912094524 -7.074882790904694
  endloop
endfacet
facet normal 0.1959934351100366 0.0435801162553615 0.9796363339836559
  outer loop
    vertex 457.37607585666547 356.6389991209453 -3.979278402904888
    vertex 447.3760758566655 390.8383649541145 -3.5000000000001514
    vertex 447.3760758566655 356.6389991209453 -1.9812921801252856
  endloop
endfacet
facet normal 0.1959934351100366 0.0435801162553615 0.9796363339836559
  outer loop
    vertex 447.3760758566655 390.8383649541145 -3.5000000000001514
    vertex 457.37607585666547 356.6389991209453 -3.979278402904888
    vertex 457.37634225175304 390.74917826089865 -5.499450316998093
  endloop
endfacet
facet normal -1.0 -9.091212347871335e-11 -6.722968405123302e-11
  outer loop
    vertex 466.3760758566652 356.6389991209453 59.49999895729997
    vertex 466.3760758581262 386.6389991209775 50.99999895729993
    vertex 466.3760758566655 356.63899912094536 11.999999999999806
  endloop
endfacet
facet normal -1.0 -9.091212347871335e-11 -6.722968405123302e-11
  outer loop
    vertex 466.3760758581262 386.6389991209775 50.99999895729993
    vertex 466.3760758566652 356.6389991209453 59.49999895729997
    vertex 466.37607585666524 468.63899912094524 59.49999895729997
  endloop
endfacet
facet normal -1.0 -9.091212347871335e-11 -6.722968405123302e-11
  outer loop
    vertex 466.3760758581262 386.6389991209775 50.99999895729993
    vertex 466.37607585666524 468.63899912094524 59.49999895729997
    vertex 466.3760758302737 465.6389991209774 50.99999895729994
  endloop
endfacet
facet normal -1.0 -9.091212347871335e-11 -6.722968405123302e-11
  outer loop
    vertex 466.3760758302737 465.6389991209774 50.99999895729994
    vertex 466.37607585666524 468.63899912094524 59.49999895729997
    vertex 466.3760758302737 465.6389991209774 46.00000104269976
  endloop
endfacet
facet normal -1.0 -9.091212347871335e-11 -6.722968405123302e-11
  outer loop
    vertex 466.3760758302737 465.6389991209774 46.00000104269976
    vertex 466.37607585666524 468.63899912094524 59.49999895729997
    vertex 466.3760758566658 468.6389991209452 11.999999999999664
  endloop
endfacet
facet normal -1.0 -9.091212347871335e-11 -6.722968405123302e-11
  outer loop
    vertex 466.3760758566655 356.63899912094536 11.999999999999806
    vertex 466.3760758581262 386.6389991209775 46.00000104269976
    vertex 466.3760758566658 468.6389991209452 11.999999999999664
  endloop
endfacet
facet normal -1.0 -9.091212347871335e-11 -6.722968405123302e-11
  outer loop
    vertex 466.3760758581262 386.6389991209775 46.00000104269976
    vertex 466.3760758566655 356.63899912094536 11.999999999999806
    vertex 466.3760758581262 386.6389991209775 50.99999895729993
  endloop
endfacet
facet normal -1.0 -9.091212347871335e-11 -6.722968405123302e-11
  outer loop
    vertex 466.3760758566658 468.6389991209452 11.999999999999664
    vertex 466.3760758581262 386.6389991209775 46.00000104269976
    vertex 466.3760758302737 465.6389991209774 46.00000104269976
  endloop
endfacet
facet normal -2.7393960116180857e-14 -1.4325976501498636e-31 1.0
  outer loop
    vertex 457.376076133061 395.7491783504023 -7.074882464935672
    vertex 457.37607585666547 468.63899912094524 -7.074882790904694
    vertex 457.37607585666547 425.8617506580243 -7.074882790904694
  endloop
endfacet
facet normal -2.7393960116180857e-14 -1.4325976501498636e-31 1.0
  outer loop
    vertex 457.37607585666547 468.63899912094524 -7.074882790904694
    vertex 457.376076133061 395.7491783504023 -7.074882464935672
    vertex 464.3760758566652 468.63899912094524 -7.0748827909045024
  endloop
endfacet
facet normal -2.7393960116180857e-14 -1.4325976501498636e-31 1.0
  outer loop
    vertex 464.3760758566652 468.63899912094524 -7.0748827909045024
    vertex 457.376076133061 395.7491783504023 -7.074882464935672
    vertex 464.3760761330607 395.7491783504023 -7.07488246493548
  endloop
endfacet
facet normal -2.0655030425271e-08 0.9999999999999996 -2.4359667579970388e-08
  outer loop
    vertex 457.37608734333213 395.7491783504023 5.100000325948228
    vertex 464.3760761330607 395.7491783504023 -7.07488246493548
    vertex 457.376076133061 395.7491783504023 -7.074882464935672
  endloop
endfacet
facet normal -2.0655030425271e-08 0.9999999999999996 -2.4359667579970388e-08
  outer loop
    vertex 464.3760761330607 395.7491783504023 -7.07488246493548
    vertex 457.37608734333213 395.7491783504023 5.100000325948228
    vertex 464.3760845407468 395.74917900973753 5.099989427077693
  endloop
endfacet
facet normal 0.0 -1.0 0.0
  outer loop
    vertex 477.37607585666507 465.63899913339503 -3.4999999994664135
    vertex 464.37607585666524 465.63899912094513 1.4999999853892914
    vertex 464.37607585666524 465.63899912094513 -3.5000000000001514
  endloop
endfacet
facet normal 0.0 -1.0 0.0
  outer loop
    vertex 464.37607585666524 465.63899912094513 1.4999999853892914
    vertex 477.37607585666507 465.63899913339503 -3.4999999994664135
    vertex 477.37607585666507 465.63899913339503 1.499999985923029
  endloop
endfacet
facet normal -0.9999999999999889 -2.703269196707746e-08 1.4636323707640087e-07
  outer loop
    vertex 464.3760730540801 468.63899978028047 5.0999891011293235
    vertex 464.37607585666507 400.7491783504021 1.4999999999997942
    vertex 464.3760845407468 395.74917900973753 5.099989427077693
  endloop
endfacet
facet normal -0.9999999999999889 -2.703269196707746e-08 1.4636323707640087e-07
  outer loop
    vertex 464.37607585666507 400.7491783504021 1.4999999999997942
    vertex 464.3760730540801 468.63899978028047 5.0999891011293235
    vertex 464.37607585666524 465.63899912094513 1.4999999853892914
  endloop
endfacet
facet normal -0.9999999999999889 -2.703269196707746e-08 1.4636323707640087e-07
  outer loop
    vertex 464.37607585666524 465.63899912094513 1.4999999853892914
    vertex 464.3760730540801 468.63899978028047 5.0999891011293235
    vertex 464.37607585666524 465.63899912094513 -3.5000000000001514
  endloop
endfacet
facet normal -0.9999999999999889 -2.703269196707746e-08 1.4636323707640087e-07
  outer loop
    vertex 464.37607585666524 465.63899912094513 -3.5000000000001514
    vertex 464.3760730540801 468.63899978028047 5.0999891011293235
    vertex 464.3760758566652 468.63899912094524 -7.0748827909045024
  endloop
endfacet
facet normal -0.9999999999999889 -2.703269196707746e-08 1.4636323707640087e-07
  outer loop
    vertex 464.3760761330607 395.7491783504023 -7.07488246493548
    vertex 464.37607585666507 400.7491783504021 -3.5000000000001514
    vertex 464.3760758566652 468.63899912094524 -7.0748827909045024
  endloop
endfacet
facet normal -0.9999999999999889 -2.703269196707746e-08 1.4636323707640087e-07
  outer loop
    vertex 464.37607585666507 400.7491783504021 -3.5000000000001514
    vertex 464.3760761330607 395.7491783504023 -7.07488246493548
    vertex 464.3760845407468 395.74917900973753 5.099989427077693
  endloop
endfacet
facet normal -0.9999999999999889 -2.703269196707746e-08 1.4636323707640087e-07
  outer loop
    vertex 464.37607585666507 400.7491783504021 -3.5000000000001514
    vertex 464.3760845407468 395.74917900973753 5.099989427077693
    vertex 464.37607585666507 400.7491783504021 1.4999999999997942
  endloop
endfacet
facet normal -0.9999999999999889 -2.703269196707746e-08 1.4636323707640087e-07
  outer loop
    vertex 464.3760758566652 468.63899912094524 -7.0748827909045024
    vertex 464.37607585666507 400.7491783504021 -3.5000000000001514
    vertex 464.37607585666524 465.63899912094513 -3.5000000000001514
  endloop
endfacet
facet normal -2.2358305683057534e-14 1.051078416222399e-14 -1.0
  outer loop
    vertex 450.37607585666547 429.6389991209452 16.000000000000274
    vertex 464.37607585666586 418.6389991209451 15.999999999999844
    vertex 450.37607585666535 418.6389991209452 16.000000000000114
  endloop
endfacet
facet normal -2.2358305683057534e-14 1.051078416222399e-14 -1.0
  outer loop
    vertex 464.37607585666586 418.6389991209451 15.999999999999844
    vertex 450.37607585666547 429.6389991209452 16.000000000000274
    vertex 464.37607585666586 429.6389991209452 15.999999999999924
  endloop
endfacet
facet normal 2.192205072699107e-14 0.1395306826823928 0.9902177480686687
  outer loop
    vertex 464.37607585666603 357.1766548052133 36.70999751126705
    vertex 450.37607585666507 369.8257651309237 34.92762287446283
    vertex 450.3760758566649 357.1766548052133 36.70999751126728
  endloop
endfacet
facet normal 2.192205072699107e-14 0.1395306826823928 0.9902177480686687
  outer loop
    vertex 450.37607585666507 369.8257651309237 34.92762287446283
    vertex 464.37607585666603 357.1766548052133 36.70999751126705
    vertex 464.3760758566663 369.8257651309237 34.92762287446242
  endloop
endfacet
facet normal -4.163336342344337e-16 -1.3885796905015299e-31 1.0
  outer loop
    vertex 477.37607585666507 356.63899913339515 59.49999895783369
    vertex 466.37607585666524 468.63899912094524 59.49999895729997
    vertex 466.3760758566652 356.6389991209453 59.49999895729997
  endloop
endfacet
facet normal -4.163336342344337e-16 -1.3885796905015299e-31 1.0
  outer loop
    vertex 466.37607585666524 468.63899912094524 59.49999895729997
    vertex 477.37607585666507 356.63899913339515 59.49999895783369
    vertex 477.37607568379985 468.63899910554255 59.49999894322317
  endloop
endfacet
facet normal 0.19611613513818385 0.04399260641241495 0.97959334017719
  outer loop
    vertex 457.37607585666547 425.8617506580243 -7.074882790904694
    vertex 447.3760758566655 468.72872678436556 -6.997982163393602
    vertex 447.3760758566655 425.95147832144454 -5.076896568125092
  endloop
endfacet
facet normal 0.19611613513818385 0.04399260641241495 0.97959334017719
  outer loop
    vertex 447.3760758566655 468.72872678436556 -6.997982163393602
    vertex 457.37607585666547 425.8617506580243 -7.074882790904694
    vertex 457.37607585666547 468.63899912094524 -8.995968386173207
  endloop
endfacet
facet normal 0.0 1.0 0.0
  outer loop
    vertex 464.37607585666507 400.7491783504021 1.4999999999997942
    vertex 477.37607585666507 400.749178362852 -3.4999999994664135
    vertex 464.37607585666507 400.7491783504021 -3.5000000000001514
  endloop
endfacet
facet normal 0.0 1.0 0.0
  outer loop
    vertex 477.37607585666507 400.749178362852 -3.4999999994664135
    vertex 464.37607585666507 400.7491783504021 1.4999999999997942
    vertex 477.37607585666507 400.749178362852 1.500000000533532
  endloop
endfacet
facet normal -1.6281855328081813e-15 -2.1650700067360788e-17 -1.0
  outer loop
    vertex 450.37607585666547 468.63899912094524 9.999999999999869
    vertex 447.3760758566655 356.63899912094536 9.999999999999874
    vertex 447.3760758566655 358.1389991209453 9.999999999999869
  endloop
endfacet
facet normal -1.6281855328081813e-15 -2.1650700067360788e-17 -1.0
  outer loop
    vertex 447.3760758566655 356.63899912094536 9.999999999999874
    vertex 450.37607585666547 468.63899912094524 9.999999999999869
    vertex 457.37607585666547 356.6389991209453 9.999999999999858
  endloop
endfacet
facet normal -1.6281855328081813e-15 -2.1650700067360788e-17 -1.0
  outer loop
    vertex 457.37607585666547 356.6389991209453 9.999999999999858
    vertex 450.37607585666547 468.63899912094524 9.999999999999869
    vertex 457.37607585666547 468.63899912094524 9.999999999999853
  endloop
endfacet
facet normal 6.82617964865854e-16 -0.990217748068668 0.1395306826823977
  outer loop
    vertex 464.37607585666603 369.4769384242176 32.452078504291
    vertex 450.37607585666484 368.56998898678205 26.015663141844882
    vertex 464.376075856666 368.56998898678205 26.01566314184466
  endloop
endfacet
facet normal 6.82617964865854e-16 -0.990217748068668 0.1395306826823977
  outer loop
    vertex 450.37607585666484 368.56998898678205 26.015663141844882
    vertex 464.37607585666603 369.4769384242176 32.452078504291
    vertex 450.3760758566649 369.4769384242177 32.45207850429122
  endloop
endfacet
facet normal -5.7265882611900986e-15 0.9138337416019814 -0.4060885281680871
  outer loop
    vertex 450.37607585666507 375.69068761286906 33.82388093288294
    vertex 464.37607585666643 379.1852555607096 41.68781670438443
    vertex 464.3760758566663 375.69068761286906 33.823880932882545
  endloop
endfacet
facet normal -5.7265882611900986e-15 0.9138337416019814 -0.4060885281680871
  outer loop
    vertex 464.37607585666643 379.1852555607096 41.68781670438443
    vertex 450.37607585666507 375.69068761286906 33.82388093288294
    vertex 450.3760758566653 379.1852555607096 41.68781670438443
  endloop
endfacet
facet normal 6.4456376743949776e-15 1.0 -7.252842409284115e-29
  outer loop
    vertex 450.37607585666535 418.6389991209452 12.000000000000234
    vertex 464.37607585666586 418.6389991209451 15.999999999999844
    vertex 464.3760758566658 418.6389991209451 11.999999999999874
  endloop
endfacet
facet normal 6.4456376743949776e-15 1.0 -7.252842409284115e-29
  outer loop
    vertex 464.37607585666586 418.6389991209451 15.999999999999844
    vertex 450.37607585666535 418.6389991209452 12.000000000000234
    vertex 450.37607585666535 418.6389991209452 16.000000000000114
  endloop
endfacet
facet normal -8.180312756073139e-15 -0.13953068268238655 -0.9902177480686696
  outer loop
    vertex 450.37607585666564 415.6389991209451 19.38321171384988
    vertex 464.376075856666 368.56998898678205 26.01566314184466
    vertex 450.37607585666484 368.56998898678205 26.015663141844882
  endloop
endfacet
facet normal -8.180312756073139e-15 -0.13953068268238655 -0.9902177480686696
  outer loop
    vertex 464.376075856666 368.56998898678205 26.01566314184466
    vertex 450.37607585666564 415.6389991209451 19.38321171384988
    vertex 464.3760758566657 415.6389991209451 19.38321171384988
  endloop
endfacet
facet normal -9.284202505151918e-09 -1.0 -1.0873186889645022e-25
  outer loop
    vertex 477.3760756574083 465.6389991055747 50.999998943223154
    vertex 466.3760758302737 465.6389991209774 46.00000104269976
    vertex 477.3760756574083 465.6389991055747 46.00000102862298
  endloop
endfacet
facet normal -9.284202505151918e-09 -1.0 -1.0873186889645022e-25
  outer loop
    vertex 466.3760758302737 465.6389991209774 46.00000104269976
    vertex 477.3760756574083 465.6389991055747 50.999998943223154
    vertex 466.3760758302737 465.6389991209774 50.99999895729994
  endloop
endfacet
facet normal -2.309999879189679e-15 -0.9902177480686702 0.13953068268238233
  outer loop
    vertex 464.37607585666603 357.1766548052133 36.70999751126705
    vertex 450.3760758566649 356.8278280985073 34.2344531410956
    vertex 464.37607585666603 356.8278280985073 34.23445314109537
  endloop
endfacet
facet normal -2.309999879189679e-15 -0.9902177480686702 0.13953068268238233
  outer loop
    vertex 450.3760758566649 356.8278280985073 34.2344531410956
    vertex 464.37607585666603 357.1766548052133 36.70999751126705
    vertex 450.3760758566649 357.1766548052133 36.70999751126728
  endloop
endfacet
facet normal -1.9694145109846686e-15 0.990217748068668 -0.1395306826823983
  outer loop
    vertex 450.37607585666507 375.69068761286906 33.82388093288294
    vertex 464.3760758566652 375.17088115483307 30.134931875852917
    vertex 450.37607585666507 375.17088115483307 30.134931875852917
  endloop
endfacet
facet normal -1.9694145109846686e-15 0.990217748068668 -0.1395306826823983
  outer loop
    vertex 464.3760758566652 375.17088115483307 30.134931875852917
    vertex 450.37607585666507 375.69068761286906 33.82388093288294
    vertex 464.3760758566663 375.69068761286906 33.823880932882545
  endloop
endfacet
facet normal -0.9996316607880281 0.02713932110736684 -3.107672116718459e-17
  outer loop
    vertex 450.37607585666547 468.63899912094524 11.999999999999842
    vertex 447.3760758566655 358.1389991209453 9.999999999999869
    vertex 447.3760758566655 358.1389991209453 11.999999999999842
  endloop
endfacet
facet normal -0.9996316607880281 0.02713932110736684 -3.107672116718459e-17
  outer loop
    vertex 447.3760758566655 358.1389991209453 9.999999999999869
    vertex 450.37607585666547 468.63899912094524 11.999999999999842
    vertex 450.37607585666547 468.63899912094524 9.999999999999869
  endloop
endfacet
facet normal 3.9439104996807984e-29 -1.0 -1.2222177954379348e-14
  outer loop
    vertex 464.37607585666507 415.63899912094513 11.999999999999932
    vertex 450.37607585666564 415.6389991209451 19.38321171384988
    vertex 450.37607585666547 415.63899912094513 11.999999999999842
  endloop
endfacet
facet normal 3.9439104996807984e-29 -1.0 -1.2222177954379348e-14
  outer loop
    vertex 450.37607585666564 415.6389991209451 19.38321171384988
    vertex 464.37607585666507 415.63899912094513 11.999999999999932
    vertex 464.3760758566657 415.6389991209451 19.38321171384988
  endloop
endfacet
facet normal 1.3544620799254548e-14 0.13953068268239277 0.9902177480686687
  outer loop
    vertex 464.3760758566652 375.17088115483307 30.134931875852917
    vertex 450.3760758566659 429.7785298036279 22.440217748068964
    vertex 450.37607585666507 375.17088115483307 30.134931875852917
  endloop
endfacet
facet normal 1.3544620799254548e-14 0.13953068268239277 0.9902177480686687
  outer loop
    vertex 450.3760758566659 429.7785298036279 22.440217748068964
    vertex 464.3760758566652 375.17088115483307 30.134931875852917
    vertex 464.37607585666615 429.7785298036279 22.44021774806858
  endloop
endfacet
facet normal -1.0 2.427312921686799e-15 0.0
  outer loop
    vertex 447.3760758566655 358.1389991209453 11.999999999999842
    vertex 447.3760758566655 356.63899912094536 9.999999999999874
    vertex 447.3760758566655 356.63899912094536 11.999999999999849
  endloop
endfacet
facet normal -1.0 2.427312921686799e-15 0.0
  outer loop
    vertex 447.3760758566655 356.63899912094536 9.999999999999874
    vertex 447.3760758566655 358.1389991209453 11.999999999999842
    vertex 447.3760758566655 358.1389991209453 9.999999999999869
  endloop
endfacet
facet normal 2.518695804079425e-18 0.1395306826823887 0.9902177480686694
  outer loop
    vertex 464.3760758566665 373.0646349597905 42.550267789059305
    vertex 450.3760758566653 379.1852555607096 41.68781670438443
    vertex 450.3760758566653 373.0646349597905 42.550267789059305
  endloop
endfacet
facet normal 2.518695804079425e-18 0.1395306826823887 0.9902177480686694
  outer loop
    vertex 450.3760758566653 379.1852555607096 41.68781670438443
    vertex 464.3760758566665 373.0646349597905 42.550267789059305
    vertex 464.37607585666643 379.1852555607096 41.68781670438443
  endloop
endfacet
facet normal -1.0 1.4906473703369957e-14 1.992498417746659e-14
  outer loop
    vertex 450.3760758566649 357.1766548052133 36.70999751126728
    vertex 450.3760758566649 369.4769384242177 32.45207850429122
    vertex 450.3760758566649 356.8278280985073 34.2344531410956
  endloop
endfacet
facet normal -1.0 1.4906473703369957e-14 1.992498417746659e-14
  outer loop
    vertex 450.3760758566649 369.4769384242177 32.45207850429122
    vertex 450.3760758566649 357.1766548052133 36.70999751126728
    vertex 450.37607585666507 369.8257651309237 34.92762287446283
  endloop
endfacet
facet normal -1.0 1.4906473703369957e-14 1.992498417746659e-14
  outer loop
    vertex 450.3760758566653 373.0646349597905 42.550267789059305
    vertex 450.37607585666507 375.69068761286906 33.82388093288294
    vertex 450.37607585666507 375.17088115483307 30.134931875852917
  endloop
endfacet
facet normal -1.0 1.4906473703369957e-14 1.992498417746659e-14
  outer loop
    vertex 450.37607585666507 375.69068761286906 33.82388093288294
    vertex 450.3760758566653 373.0646349597905 42.550267789059305
    vertex 450.3760758566653 379.1852555607096 41.68781670438443
  endloop
endfacet
facet normal -1.0 1.4906473703369957e-14 1.992498417746659e-14
  outer loop
    vertex 450.37607585666484 368.56998898678205 26.015663141844882
    vertex 450.37607585666507 375.17088115483307 30.134931875852917
    vertex 450.37607585666564 415.6389991209451 19.38321171384988
  endloop
endfacet
facet normal -1.0 1.4906473703369957e-14 1.992498417746659e-14
  outer loop
    vertex 450.37607585666507 375.17088115483307 30.134931875852917
    vertex 450.37607585666484 368.56998898678205 26.015663141844882
    vertex 450.3760758566649 369.4769384242177 32.45207850429122
  endloop
endfacet
facet normal -1.0 1.4906473703369957e-14 1.992498417746659e-14
  outer loop
    vertex 450.37607585666507 375.17088115483307 30.134931875852917
    vertex 450.3760758566649 369.4769384242177 32.45207850429122
    vertex 450.37607585666507 369.8257651309237 34.92762287446283
  endloop
endfacet
facet normal -1.0 1.4906473703369957e-14 1.992498417746659e-14
  outer loop
    vertex 450.37607585666507 375.17088115483307 30.134931875852917
    vertex 450.37607585666507 369.8257651309237 34.92762287446283
    vertex 450.3760758566653 373.0646349597905 42.550267789059305
  endloop
endfacet
facet normal -1.0 1.4906473703369957e-14 1.992498417746659e-14
  outer loop
    vertex 450.37607585666564 415.6389991209451 19.38321171384988
    vertex 450.37607585666507 375.17088115483307 30.134931875852917
    vertex 450.3760758566659 429.7785298036279 22.440217748068964
  endloop
endfacet
facet normal -1.0 1.4906473703369957e-14 1.992498417746659e-14
  outer loop
    vertex 450.37607585666564 415.6389991209451 19.38321171384988
    vertex 450.3760758566659 429.7785298036279 22.440217748068964
    vertex 450.37607585666535 418.6389991209452 16.000000000000114
  endloop
endfacet
facet normal -1.0 1.4906473703369957e-14 1.992498417746659e-14
  outer loop
    vertex 450.37607585666564 415.6389991209451 19.38321171384988
    vertex 450.37607585666535 418.6389991209452 16.000000000000114
    vertex 450.37607585666547 415.63899912094513 11.999999999999842
  endloop
endfacet
facet normal -1.0 1.4906473703369957e-14 1.992498417746659e-14
  outer loop
    vertex 450.37607585666535 418.6389991209452 16.000000000000114
    vertex 450.3760758566659 429.7785298036279 22.440217748068964
    vertex 450.37607585666547 429.6389991209452 16.000000000000274
  endloop
endfacet
facet normal -1.0 1.4906473703369957e-14 1.992498417746659e-14
  outer loop
    vertex 450.37607585666547 429.6389991209452 16.000000000000274
    vertex 450.3760758566659 429.7785298036279 22.440217748068964
    vertex 450.37607585666535 429.6389991209452 12.000000000000234
  endloop
endfacet
facet normal -1.0 1.4906473703369957e-14 1.992498417746659e-14
  outer loop
    vertex 450.37607585666535 429.6389991209452 12.000000000000234
    vertex 450.3760758566659 429.7785298036279 22.440217748068964
    vertex 450.37607585666547 432.63899912094524 11.999999999999842
  endloop
endfacet
facet normal -1.0 1.4906473703369957e-14 1.992498417746659e-14
  outer loop
    vertex 450.37607585666547 432.63899912094524 11.999999999999842
    vertex 450.3760758566659 429.7785298036279 22.440217748068964
    vertex 450.37607585666575 432.63899912094513 21.450000000000273
  endloop
endfacet
facet normal -1.0 1.4906473703369957e-14 1.992498417746659e-14
  outer loop
    vertex 450.37607585666535 418.6389991209452 12.000000000000234
    vertex 450.37607585666547 415.63899912094513 11.999999999999842
    vertex 450.37607585666535 418.6389991209452 16.000000000000114
  endloop
endfacet
facet normal -9.317010894929056e-16 -0.9989931113898055 0.04486383171014033
  outer loop
    vertex 457.37607585666547 425.8617506580243 -7.074882790904694
    vertex 447.3760758566655 425.8617506580243 -7.0748827909047005
    vertex 457.37607585666547 425.6822953311837 -11.07085523646391
  endloop
endfacet
facet normal -9.317010894929056e-16 -0.9989931113898055 0.04486383171014033
  outer loop
    vertex 447.3760758566655 425.8617506580243 -7.0748827909047005
    vertex 457.37607585666547 425.8617506580243 -7.074882790904694
    vertex 447.3760758566655 425.95147832144454 -5.076896568125092
  endloop
endfacet
facet normal -1.6412120774197192e-14 -0.1395306826823824 -0.9902177480686702
  outer loop
    vertex 464.37607585666603 369.4769384242176 32.452078504291
    vertex 450.3760758566649 356.8278280985073 34.2344531410956
    vertex 450.3760758566649 369.4769384242177 32.45207850429122
  endloop
endfacet
facet normal -1.6412120774197192e-14 -0.1395306826823824 -0.9902177480686702
  outer loop
    vertex 450.3760758566649 356.8278280985073 34.2344531410956
    vertex 464.37607585666603 369.4769384242176 32.452078504291
    vertex 464.37607585666603 356.8278280985073 34.23445314109537
  endloop
endfacet
facet normal 2.4849087459740878e-14 0.3271268755341761 0.9449804269418747
  outer loop
    vertex 450.3760758566659 429.7785298036279 22.440217748068964
    vertex 464.376075856666 432.6389991209451 21.449999999999946
    vertex 450.37607585666575 432.63899912094513 21.450000000000273
  endloop
endfacet
facet normal 2.4849087459740878e-14 0.3271268755341761 0.9449804269418747
  outer loop
    vertex 464.376075856666 432.6389991209451 21.449999999999946
    vertex 450.3760758566659 429.7785298036279 22.440217748068964
    vertex 464.37607585666615 429.7785298036279 22.44021774806858
  endloop
endfacet
facet normal 5.672986460188551e-15 -0.9203636984549759 0.3910635019613544
  outer loop
    vertex 464.3760758566665 373.0646349597905 42.550267789059305
    vertex 450.37607585666507 369.8257651309237 34.92762287446283
    vertex 464.3760758566663 369.8257651309237 34.92762287446242
  endloop
endfacet
facet normal 5.672986460188551e-15 -0.9203636984549759 0.3910635019613544
  outer loop
    vertex 450.37607585666507 369.8257651309237 34.92762287446283
    vertex 464.3760758566665 373.0646349597905 42.550267789059305
    vertex 450.3760758566653 373.0646349597905 42.550267789059305
  endloop
endfacet
facet normal -1.0 0.0 0.0
  outer loop
    vertex 447.3760758566655 425.95147832144454 -5.076896568125092
    vertex 447.3760758566655 468.72872678436556 -9.00402755444079
    vertex 447.3760758566655 425.8617506580243 -7.0748827909047005
  endloop
endfacet
facet normal -1.0 0.0 0.0
  outer loop
    vertex 447.3760758566655 468.72872678436556 -9.00402755444079
    vertex 447.3760758566655 425.95147832144454 -5.076896568125092
    vertex 447.3760758566655 468.72872678436556 -6.997982163393602
  endloop
endfacet
facet normal 0.0 -1.0 0.0
  outer loop
    vertex 464.37607585666586 429.6389991209452 15.999999999999924
    vertex 450.37607585666535 429.6389991209452 12.000000000000234
    vertex 464.37607585666586 429.6389991209452 11.999999999999789
  endloop
endfacet
facet normal 0.0 -1.0 0.0
  outer loop
    vertex 450.37607585666535 429.6389991209452 12.000000000000234
    vertex 464.37607585666586 429.6389991209452 15.999999999999924
    vertex 450.37607585666547 429.6389991209452 16.000000000000274
  endloop
endfacet
facet normal 6.4456376743952466e-15 1.0 9.549092850955303e-15
  outer loop
    vertex 450.37607585666547 432.63899912094524 11.999999999999842
    vertex 464.376075856666 432.6389991209451 21.449999999999946
    vertex 464.376075856666 432.63899912094513 11.999999999999494
  endloop
endfacet
facet normal 6.4456376743952466e-15 1.0 9.549092850955303e-15
  outer loop
    vertex 464.376075856666 432.6389991209451 21.449999999999946
    vertex 450.37607585666547 432.63899912094524 11.999999999999842
    vertex 450.37607585666575 432.63899912094513 21.450000000000273
  endloop
endfacet
facet normal -6.087809442500052e-10 -6.522547271533079e-11 -1.0
  outer loop
    vertex 477.37607568949676 468.63899910597735 -13.000000014076914
    vertex 457.3760758623621 356.63899912138004 -13.000000000000027
    vertex 457.3760758623621 468.63899912138004 -13.000000000000027
  endloop
endfacet
facet normal -6.087809442500052e-10 -6.522547271533079e-11 -1.0
  outer loop
    vertex 457.3760758623621 356.63899912138004 -13.000000000000027
    vertex 477.37607568949676 468.63899910597735 -13.000000014076914
    vertex 477.376075862362 356.63899913382994 -12.999999999466407
  endloop
endfacet
facet normal -3.330669073875477e-16 1.0 2.25597412695993e-15
  outer loop
    vertex 466.3760758581262 386.6389991209775 50.99999895729993
    vertex 477.37607585812617 386.6389991334273 46.000001043233475
    vertex 466.3760758581262 386.6389991209775 46.00000104269976
  endloop
endfacet
facet normal -3.330669073875477e-16 1.0 2.25597412695993e-15
  outer loop
    vertex 477.37607585812617 386.6389991334273 46.000001043233475
    vertex 466.3760758581262 386.6389991209775 50.99999895729993
    vertex 477.37607585812617 386.6389991334273 50.99999895783365
  endloop
endfacet
facet normal -3.246786645085564e-09 -9.065391949486173e-11 -1.0
  outer loop
    vertex 477.3760756574083 465.6389991055747 50.999998943223154
    vertex 466.3760758581262 386.6389991209775 50.99999895729993
    vertex 466.3760758302737 465.6389991209774 50.99999895729994
  endloop
endfacet
facet normal -3.246786645085564e-09 -9.065391949486173e-11 -1.0
  outer loop
    vertex 466.3760758581262 386.6389991209775 50.99999895729993
    vertex 477.3760756574083 465.6389991055747 50.999998943223154
    vertex 477.37607585812617 386.6389991334273 50.99999895783365
  endloop
endfacet
facet normal 3.246784138448643e-09 9.065398948323597e-11 1.0
  outer loop
    vertex 466.3760758581262 386.6389991209775 46.00000104269976
    vertex 477.3760756574083 465.6389991055747 46.00000102862298
    vertex 466.3760758302737 465.6389991209774 46.00000104269976
  endloop
endfacet
facet normal 3.246784138448643e-09 9.065398948323597e-11 1.0
  outer loop
    vertex 477.3760756574083 465.6389991055747 46.00000102862298
    vertex 466.3760758581262 386.6389991209775 46.00000104269976
    vertex 477.37607585812617 386.6389991334273 46.000001043233475
  endloop
endfacet
facet normal 1.0 -1.1759453472668782e-14 -4.4306887564581055e-14
  outer loop
    vertex 464.37607585666603 369.4769384242176 32.452078504291
    vertex 464.37607585666603 357.1766548052133 36.70999751126705
    vertex 464.37607585666603 356.8278280985073 34.23445314109537
  endloop
endfacet
facet normal 1.0 -1.1759453472668782e-14 -4.4306887564581055e-14
  outer loop
    vertex 464.37607585666603 357.1766548052133 36.70999751126705
    vertex 464.37607585666603 369.4769384242176 32.452078504291
    vertex 464.3760758566663 369.8257651309237 34.92762287446242
  endloop
endfacet
facet normal 1.0 -1.1759453472668782e-14 -4.4306887564581055e-14
  outer loop
    vertex 464.376075856666 432.63899912094513 11.999999999999494
    vertex 464.37607585666586 429.6389991209452 15.999999999999924
    vertex 464.37607585666586 429.6389991209452 11.999999999999789
  endloop
endfacet
facet normal 1.0 -1.1759453472668782e-14 -4.4306887564581055e-14
  outer loop
    vertex 464.37607585666586 429.6389991209452 15.999999999999924
    vertex 464.376075856666 432.63899912094513 11.999999999999494
    vertex 464.37607585666615 429.7785298036279 22.44021774806858
  endloop
endfacet
facet normal 1.0 -1.1759453472668782e-14 -4.4306887564581055e-14
  outer loop
    vertex 464.37607585666615 429.7785298036279 22.44021774806858
    vertex 464.376075856666 432.63899912094513 11.999999999999494
    vertex 464.376075856666 432.6389991209451 21.449999999999946
  endloop
endfacet
facet normal 1.0 -1.1759453472668782e-14 -4.4306887564581055e-14
  outer loop
    vertex 464.376075856666 368.56998898678205 26.01566314184466
    vertex 464.3760758566652 375.17088115483307 30.134931875852917
    vertex 464.37607585666603 369.4769384242176 32.452078504291
  endloop
endfacet
facet normal 1.0 -1.1759453472668782e-14 -4.4306887564581055e-14
  outer loop
    vertex 464.3760758566652 375.17088115483307 30.134931875852917
    vertex 464.376075856666 368.56998898678205 26.01566314184466
    vertex 464.3760758566657 415.6389991209451 19.38321171384988
  endloop
endfacet
facet normal 1.0 -1.1759453472668782e-14 -4.4306887564581055e-14
  outer loop
    vertex 464.37607585666603 369.4769384242176 32.452078504291
    vertex 464.3760758566652 375.17088115483307 30.134931875852917
    vertex 464.3760758566663 369.8257651309237 34.92762287446242
  endloop
endfacet
facet normal 1.0 -1.1759453472668782e-14 -4.4306887564581055e-14
  outer loop
    vertex 464.3760758566663 369.8257651309237 34.92762287446242
    vertex 464.3760758566652 375.17088115483307 30.134931875852917
    vertex 464.3760758566665 373.0646349597905 42.550267789059305
  endloop
endfacet
facet normal 1.0 -1.1759453472668782e-14 -4.4306887564581055e-14
  outer loop
    vertex 464.3760758566652 375.17088115483307 30.134931875852917
    vertex 464.3760758566657 415.6389991209451 19.38321171384988
    vertex 464.37607585666615 429.7785298036279 22.44021774806858
  endloop
endfacet
facet normal 1.0 -1.1759453472668782e-14 -4.4306887564581055e-14
  outer loop
    vertex 464.37607585666615 429.7785298036279 22.44021774806858
    vertex 464.3760758566657 415.6389991209451 19.38321171384988
    vertex 464.37607585666586 418.6389991209451 15.999999999999844
  endloop
endfacet
facet normal 1.0 -1.1759453472668782e-14 -4.4306887564581055e-14
  outer loop
    vertex 464.37607585666586 418.6389991209451 15.999999999999844
    vertex 464.3760758566657 415.6389991209451 19.38321171384988
    vertex 464.37607585666507 415.63899912094513 11.999999999999932
  endloop
endfacet
facet normal 1.0 -1.1759453472668782e-14 -4.4306887564581055e-14
  outer loop
    vertex 464.37607585666586 418.6389991209451 15.999999999999844
    vertex 464.37607585666507 415.63899912094513 11.999999999999932
    vertex 464.3760758566658 418.6389991209451 11.999999999999874
  endloop
endfacet
facet normal 1.0 -1.1759453472668782e-14 -4.4306887564581055e-14
  outer loop
    vertex 464.37607585666615 429.7785298036279 22.44021774806858
    vertex 464.37607585666586 418.6389991209451 15.999999999999844
    vertex 464.37607585666586 429.6389991209452 15.999999999999924
  endloop
endfacet
facet normal 1.0 -1.1759453472668782e-14 -4.4306887564581055e-14
  outer loop
    vertex 464.3760758566665 373.0646349597905 42.550267789059305
    vertex 464.3760758566663 375.69068761286906 33.823880932882545
    vertex 464.37607585666643 379.1852555607096 41.68781670438443
  endloop
endfacet
facet normal 1.0 -1.1759453472668782e-14 -4.4306887564581055e-14
  outer loop
    vertex 464.3760758566663 375.69068761286906 33.823880932882545
    vertex 464.3760758566665 373.0646349597905 42.550267789059305
    vertex 464.3760758566652 375.17088115483307 30.134931875852917
  endloop
endfacet
facet normal 0.008972405167503724 0.9999597471626097 9.699716561255343e-11
  outer loop
    vertex 447.3760758566655 468.72872678436556 -9.00402755444079
    vertex 457.37607585666547 468.63899912094524 -8.995968386173207
    vertex 457.3760758623621 468.63899912138004 -13.000000000000027
  endloop
endfacet
facet normal 0.008972405167503724 0.9999597471626097 9.699716561255343e-11
  outer loop
    vertex 457.37607585666547 468.63899912094524 -8.995968386173207
    vertex 447.3760758566655 468.72872678436556 -9.00402755444079
    vertex 447.3760758566655 468.72872678436556 -6.997982163393602
  endloop
endfacet
facet normal -1.0 3.4570473313014487e-11 -7.128504966690361e-10
  outer loop
    vertex 457.37607585666547 425.8617506580243 -7.074882790904694
    vertex 457.3760758623621 468.63899912138004 -13.000000000000027
    vertex 457.37607585666547 425.6822953311837 -11.07085523646391
  endloop
endfacet
facet normal -1.0 3.4570473313014487e-11 -7.128504966690361e-10
  outer loop
    vertex 457.3760758623621 468.63899912138004 -13.000000000000027
    vertex 457.37607585666547 425.8617506580243 -7.074882790904694
    vertex 457.37607585666547 468.63899912094524 -8.995968386173207
  endloop
endfacet
facet normal 0.0 0.0 1.0
  outer loop
    vertex 477.37607585666507 400.749178362852 -3.4999999994664135
    vertex 464.37607585666524 465.63899912094513 -3.5000000000001514
    vertex 464.37607585666507 400.7491783504021 -3.5000000000001514
  endloop
endfacet
facet normal 0.0 0.0 1.0
  outer loop
    vertex 464.37607585666524 465.63899912094513 -3.5000000000001514
    vertex 477.37607585666507 400.749178362852 -3.4999999994664135
    vertex 477.37607585666507 465.63899913339503 -3.4999999994664135
  endloop
endfacet
facet normal -2.7227536620524226e-09 1.0 6.161997671727922e-10
  outer loop
    vertex 450.37607585666547 468.63899912094524 11.999999999999842
    vertex 466.3760758566658 468.6389991209452 11.999999999999664
    vertex 450.37607585666547 468.63899912094524 9.999999999999869
  endloop
endfacet
facet normal -2.7227536620524226e-09 1.0 6.161997671727922e-10
  outer loop
    vertex 477.37607568949676 468.63899910597735 -13.000000014076914
    vertex 464.3760758566652 468.63899912094524 -7.0748827909045024
    vertex 477.37607568379985 468.63899910554255 59.49999894322317
  endloop
endfacet
facet normal -2.7227536620524226e-09 1.0 6.161997671727922e-10
  outer loop
    vertex 464.3760758566652 468.63899912094524 -7.0748827909045024
    vertex 477.37607568949676 468.63899910597735 -13.000000014076914
    vertex 457.3760758623621 468.63899912138004 -13.000000000000027
  endloop
endfacet
facet normal -2.7227536620524226e-09 1.0 6.161997671727922e-10
  outer loop
    vertex 464.3760758566652 468.63899912094524 -7.0748827909045024
    vertex 457.3760758623621 468.63899912138004 -13.000000000000027
    vertex 457.37607585666547 468.63899912094524 -8.995968386173207
  endloop
endfacet
facet normal -2.7227536620524226e-09 1.0 6.161997671727922e-10
  outer loop
    vertex 464.3760758566652 468.63899912094524 -7.0748827909045024
    vertex 457.37607585666547 468.63899912094524 -8.995968386173207
    vertex 457.37607585666547 468.63899912094524 -7.074882790904694
  endloop
endfacet
facet normal -2.7227536620524226e-09 1.0 6.161997671727922e-10
  outer loop
    vertex 477.37607568379985 468.63899910554255 59.49999894322317
    vertex 464.3760758566652 468.63899912094524 -7.0748827909045024
    vertex 466.3760758566658 468.6389991209452 11.999999999999664
  endloop
endfacet
facet normal -2.7227536620524226e-09 1.0 6.161997671727922e-10
  outer loop
    vertex 466.3760758566658 468.6389991209452 11.999999999999664
    vertex 464.3760758566652 468.63899912094524 -7.0748827909045024
    vertex 464.3760730540801 468.63899978028047 5.0999891011293235
  endloop
endfacet
facet normal -2.7227536620524226e-09 1.0 6.161997671727922e-10
  outer loop
    vertex 466.3760758566658 468.6389991209452 11.999999999999664
    vertex 464.3760730540801 468.63899978028047 5.0999891011293235
    vertex 457.37607585666547 468.63899912094524 5.099999999999858
  endloop
endfacet
facet normal -2.7227536620524226e-09 1.0 6.161997671727922e-10
  outer loop
    vertex 466.3760758566658 468.6389991209452 11.999999999999664
    vertex 457.37607585666547 468.63899912094524 5.099999999999858
    vertex 457.37607585666547 468.63899912094524 9.999999999999853
  endloop
endfacet
facet normal -2.7227536620524226e-09 1.0 6.161997671727922e-10
  outer loop
    vertex 466.3760758566658 468.6389991209452 11.999999999999664
    vertex 457.37607585666547 468.63899912094524 9.999999999999853
    vertex 450.37607585666547 468.63899912094524 9.999999999999869
  endloop
endfacet
facet normal -2.7227536620524226e-09 1.0 6.161997671727922e-10
  outer loop
    vertex 477.37607568379985 468.63899910554255 59.49999894322317
    vertex 466.3760758566658 468.6389991209452 11.999999999999664
    vertex 466.37607585666524 468.63899912094524 59.49999895729997
  endloop
endfacet
endsolid 2-Din Stereo Clips
