solid Dashboard-Module-Cover
facet normal -1.6331487730342225e-17 -6.723365519145764e-16 1.0
  outer loop
    vertex 28.0 -0.23978476178721178 1.7539477675798345
    vertex 48.0 2.7602152382128 1.7539477675798376
    vertex 27.999999999999993 2.7602152382128 1.7539477675798356
  endloop
endfacet
facet normal -1.6331487730342225e-17 -6.723365519145764e-16 1.0
  outer loop
    vertex 48.0 2.7602152382128 1.7539477675798376
    vertex 28.0 -0.23978476178721178 1.7539477675798345
    vertex 51.0 -0.2397847617872005 1.7539477675798345
  endloop
endfacet
facet normal -1.6331487730342225e-17 -6.723365519145764e-16 1.0
  outer loop
    vertex 48.0 2.7602152382128 1.7539477675798376
    vertex 51.0 -0.2397847617872005 1.7539477675798345
    vertex 48.0 41.76021523821279 1.7539477675798634
  endloop
endfacet
facet normal -1.6331487730342225e-17 -6.723365519145764e-16 1.0
  outer loop
    vertex 28.000000000000004 41.76021523821279 1.7539477675798638
    vertex 51.0 44.76021523821279 1.753947767579864
    vertex 28.0 44.76021523821279 1.753947767579864
  endloop
endfacet
facet normal -1.6331487730342225e-17 -6.723365519145764e-16 1.0
  outer loop
    vertex 51.0 44.76021523821279 1.753947767579864
    vertex 28.000000000000004 41.76021523821279 1.7539477675798638
    vertex 48.0 41.76021523821279 1.7539477675798634
  endloop
endfacet
facet normal -1.6331487730342225e-17 -6.723365519145764e-16 1.0
  outer loop
    vertex 51.0 44.76021523821279 1.753947767579864
    vertex 48.0 41.76021523821279 1.7539477675798634
    vertex 51.0 -0.2397847617872005 1.7539477675798345
  endloop
endfacet
facet normal 1.0 -0.0 0.0
  outer loop
    vertex 51.0 44.76021523821279 -0.7460522324201365
    vertex 51.0 -0.2397847617872005 1.7539477675798345
    vertex 51.0 -0.2397847617872005 -0.7460522324201616
  endloop
endfacet
facet normal 1.0 -0.0 0.0
  outer loop
    vertex 51.0 -0.2397847617872005 1.7539477675798345
    vertex 51.0 44.76021523821279 -0.7460522324201365
    vertex 51.0 44.76021523821279 1.753947767579864
  endloop
endfacet
facet normal -1.0 0.0 0.0
  outer loop
    vertex 0.0 44.76021523821279 1.753947767579864
    vertex 0.0 -0.2397847617872005 -0.7460522324201616
    vertex 0.0 -0.2397847617872005 1.7539477675798345
  endloop
endfacet
facet normal -1.0 0.0 0.0
  outer loop
    vertex 0.0 -0.2397847617872005 -0.7460522324201616
    vertex 0.0 44.76021523821279 1.753947767579864
    vertex 0.0 44.76021523821279 -0.7460522324201365
  endloop
endfacet
facet normal -0.0 1.0 -0.0
  outer loop
    vertex 0.0 44.76021523821279 1.753947767579864
    vertex 20.0 44.76021523821279 -0.7460522324201365
    vertex 0.0 44.76021523821279 -0.7460522324201365
  endloop
endfacet
facet normal -0.0 1.0 -0.0
  outer loop
    vertex 20.0 44.76021523821279 -0.7460522324201365
    vertex 0.0 44.76021523821279 1.753947767579864
    vertex 20.0 44.76021523821279 -0.24605223242013435
  endloop
endfacet
facet normal -0.0 1.0 -0.0
  outer loop
    vertex 20.0 44.76021523821279 -0.24605223242013435
    vertex 0.0 44.76021523821279 1.753947767579864
    vertex 20.0 44.76021523821279 1.753947767579864
  endloop
endfacet
facet normal -0.5299989400031803 5.273559366969494e-16 -0.8479983040050879
  outer loop
    vertex 3.999999999999999 40.760215238212794 -3.246052232420139
    vertex 0.0 -0.2397847617872005 -0.7460522324201616
    vertex 0.0 44.76021523821279 -0.7460522324201365
  endloop
endfacet
facet normal -0.5299989400031803 5.273559366969494e-16 -0.8479983040050879
  outer loop
    vertex 0.0 -0.2397847617872005 -0.7460522324201616
    vertex 3.999999999999999 40.760215238212794 -3.246052232420139
    vertex 3.999999999999999 3.760215238212798 -3.2460522324201655
  endloop
endfacet
facet normal 0.0 -0.5299989400031795 -0.8479983040050884
  outer loop
    vertex 3.999999999999999 3.760215238212798 -3.2460522324201655
    vertex 20.0 -0.23978476178720332 -0.7460522324201616
    vertex 0.0 -0.2397847617872005 -0.7460522324201616
  endloop
endfacet
facet normal 0.0 -0.5299989400031795 -0.8479983040050884
  outer loop
    vertex 20.0 -0.23978476178720332 -0.7460522324201616
    vertex 3.999999999999999 3.760215238212798 -3.2460522324201655
    vertex 47.0 3.760215238212798 -3.2460522324201655
  endloop
endfacet
facet normal 0.0 -0.5299989400031795 -0.8479983040050884
  outer loop
    vertex 20.0 -0.23978476178720332 -0.7460522324201616
    vertex 47.0 3.760215238212798 -3.2460522324201655
    vertex 28.0 -0.2397847617872005 -0.7460522324201616
  endloop
endfacet
facet normal 0.0 -0.5299989400031795 -0.8479983040050884
  outer loop
    vertex 28.0 -0.2397847617872005 -0.7460522324201616
    vertex 47.0 3.760215238212798 -3.2460522324201655
    vertex 51.0 -0.2397847617872005 -0.7460522324201616
  endloop
endfacet
facet normal 4.265428411630339e-18 0.5299989400031804 -0.8479983040050879
  outer loop
    vertex 20.0 44.76021523821279 -0.7460522324201365
    vertex 3.999999999999999 40.760215238212794 -3.246052232420139
    vertex 0.0 44.76021523821279 -0.7460522324201365
  endloop
endfacet
facet normal 4.265428411630339e-18 0.5299989400031804 -0.8479983040050879
  outer loop
    vertex 3.999999999999999 40.760215238212794 -3.246052232420139
    vertex 20.0 44.76021523821279 -0.7460522324201365
    vertex 47.0 40.760215238212794 -3.246052232420139
  endloop
endfacet
facet normal 4.265428411630339e-18 0.5299989400031804 -0.8479983040050879
  outer loop
    vertex 47.0 40.760215238212794 -3.246052232420139
    vertex 20.0 44.76021523821279 -0.7460522324201365
    vertex 28.0 44.76021523821279 -0.7460522324201365
  endloop
endfacet
facet normal 4.265428411630339e-18 0.5299989400031804 -0.8479983040050879
  outer loop
    vertex 47.0 40.760215238212794 -3.246052232420139
    vertex 28.0 44.76021523821279 -0.7460522324201365
    vertex 51.0 44.76021523821279 -0.7460522324201365
  endloop
endfacet
facet normal -1.5235417342039294e-18 0.9701425001453321 0.2425356250363327
  outer loop
    vertex 3.0 2.7602152382128 1.7539477675798352
    vertex 20.0 3.260215238212799 -0.24605223242016352
    vertex 3.499999999999999 3.260215238212799 -0.24605223242016394
  endloop
endfacet
facet normal -1.5235417342039294e-18 0.9701425001453321 0.2425356250363327
  outer loop
    vertex 20.0 3.260215238212799 -0.24605223242016352
    vertex 3.0 2.7602152382128 1.7539477675798352
    vertex 20.0 2.7602152382128 1.7539477675798352
  endloop
endfacet
facet normal -0.9701425001453321 -1.5928207572665924e-16 0.24253562503633258
  outer loop
    vertex 48.0 41.76021523821279 1.7539477675798634
    vertex 47.5 3.260215238212799 -0.2460522324201618
    vertex 48.0 2.7602152382128 1.7539477675798376
  endloop
endfacet
facet normal -0.9701425001453321 -1.5928207572665924e-16 0.24253562503633258
  outer loop
    vertex 47.5 3.260215238212799 -0.2460522324201618
    vertex 48.0 41.76021523821279 1.7539477675798634
    vertex 47.5 41.36021523821279 -0.2460522324201368
  endloop
endfacet
facet normal 1.6061745268361215e-18 -0.9805806756909203 0.19611613513818366
  outer loop
    vertex 48.0 41.76021523821279 1.7539477675798634
    vertex 28.0 41.36021523821279 -0.2460522324201368
    vertex 47.5 41.36021523821279 -0.2460522324201368
  endloop
endfacet
facet normal 1.6061745268361215e-18 -0.9805806756909203 0.19611613513818366
  outer loop
    vertex 28.0 41.36021523821279 -0.2460522324201368
    vertex 48.0 41.76021523821279 1.7539477675798634
    vertex 28.000000000000004 41.76021523821279 1.7539477675798638
  endloop
endfacet
facet normal 0.9701425001453323 -2.5328119868123275e-16 0.2425356250363317
  outer loop
    vertex 3.499999999999999 41.36021523821279 -0.2460522324201368
    vertex 3.0 33.480215238212786 1.7539477675798623
    vertex 3.499999999999999 33.480215238212786 -0.2460522324201531
  endloop
endfacet
facet normal 0.9701425001453323 -2.5328119868123275e-16 0.2425356250363317
  outer loop
    vertex 3.0 33.480215238212786 1.7539477675798623
    vertex 3.499999999999999 41.36021523821279 -0.2460522324201368
    vertex 3.0 41.76021523821279 1.7539477675798634
  endloop
endfacet
facet normal 3.4545938861948563e-16 -1.0 -1.7026212724817495e-15
  outer loop
    vertex 51.0 -0.2397847617872005 1.7539477675798345
    vertex 28.0 -0.2397847617872005 -0.7460522324201616
    vertex 51.0 -0.2397847617872005 -0.7460522324201616
  endloop
endfacet
facet normal 3.4545938861948563e-16 -1.0 -1.7026212724817495e-15
  outer loop
    vertex 28.0 -0.2397847617872005 -0.7460522324201616
    vertex 51.0 -0.2397847617872005 1.7539477675798345
    vertex 28.0 -0.23978476178720307 -0.24605223242016658
  endloop
endfacet
facet normal 3.4545938861948563e-16 -1.0 -1.7026212724817495e-15
  outer loop
    vertex 28.0 -0.23978476178720307 -0.24605223242016658
    vertex 51.0 -0.2397847617872005 1.7539477675798345
    vertex 28.0 -0.23978476178721178 1.7539477675798345
  endloop
endfacet
facet normal -2.403178983554969e-16 -1.0 -4.2565531812043703e-16
  outer loop
    vertex 20.0 -0.23978476178720615 -0.24605223242016644
    vertex 0.0 -0.2397847617872005 -0.7460522324201616
    vertex 20.0 -0.23978476178720332 -0.7460522324201616
  endloop
endfacet
facet normal -2.403178983554969e-16 -1.0 -4.2565531812043703e-16
  outer loop
    vertex 0.0 -0.2397847617872005 -0.7460522324201616
    vertex 20.0 -0.23978476178720615 -0.24605223242016644
    vertex 0.0 -0.2397847617872005 1.7539477675798345
  endloop
endfacet
facet normal -2.403178983554969e-16 -1.0 -4.2565531812043703e-16
  outer loop
    vertex 0.0 -0.2397847617872005 1.7539477675798345
    vertex 20.0 -0.23978476178720615 -0.24605223242016644
    vertex 20.0 -0.23978476178720615 1.7539477675798345
  endloop
endfacet
facet normal -3.002807519900231e-17 0.9701425001453321 0.24253562503633258
  outer loop
    vertex 27.999999999999993 2.7602152382128 1.7539477675798356
    vertex 47.5 3.260215238212799 -0.2460522324201618
    vertex 27.999999999999993 3.260215238212799 -0.24605223242016463
  endloop
endfacet
facet normal -3.002807519900231e-17 0.9701425001453321 0.24253562503633258
  outer loop
    vertex 47.5 3.260215238212799 -0.2460522324201618
    vertex 27.999999999999993 2.7602152382128 1.7539477675798356
    vertex 48.0 2.7602152382128 1.7539477675798376
  endloop
endfacet
facet normal 1.0 -0.0 -0.0
  outer loop
    vertex 20.0 3.260215238212799 -0.24605223242016352
    vertex 20.0 -0.23978476178720615 1.7539477675798345
    vertex 20.0 -0.23978476178720615 -0.24605223242016644
  endloop
endfacet
facet normal 1.0 -0.0 -0.0
  outer loop
    vertex 20.0 -0.23978476178720615 1.7539477675798345
    vertex 20.0 3.260215238212799 -0.24605223242016352
    vertex 20.0 2.7602152382128 1.7539477675798352
  endloop
endfacet
facet normal -1.0 -1.7251559657940046e-15 -2.1564449572425398e-16
  outer loop
    vertex 27.999999999999993 2.7602152382128 1.7539477675798356
    vertex 28.0 -0.23978476178720307 -0.24605223242016658
    vertex 28.0 -0.23978476178721178 1.7539477675798345
  endloop
endfacet
facet normal -1.0 -1.7251559657940046e-15 -2.1564449572425398e-16
  outer loop
    vertex 28.0 -0.23978476178720307 -0.24605223242016658
    vertex 27.999999999999993 2.7602152382128 1.7539477675798356
    vertex 27.999999999999993 3.260215238212799 -0.24605223242016463
  endloop
endfacet
facet normal 3.6901905142716613e-16 -1.0 -5.375561107356983e-15
  outer loop
    vertex 28.0 -0.23978476178720307 -0.24605223242016658
    vertex 20.0 -0.23978476178720332 -0.7460522324201616
    vertex 28.0 -0.2397847617872005 -0.7460522324201616
  endloop
endfacet
facet normal 3.6901905142716613e-16 -1.0 -5.375561107356983e-15
  outer loop
    vertex 20.0 -0.23978476178720332 -0.7460522324201616
    vertex 28.0 -0.23978476178720307 -0.24605223242016658
    vertex 20.0 -0.23978476178720615 -0.24605223242016644
  endloop
endfacet
facet normal -0.0 1.0 -0.0
  outer loop
    vertex 28.0 44.76021523821279 -0.24605223242013435
    vertex 51.0 44.76021523821279 -0.7460522324201365
    vertex 28.0 44.76021523821279 -0.7460522324201365
  endloop
endfacet
facet normal -0.0 1.0 -0.0
  outer loop
    vertex 51.0 44.76021523821279 -0.7460522324201365
    vertex 28.0 44.76021523821279 -0.24605223242013435
    vertex 51.0 44.76021523821279 1.753947767579864
  endloop
endfacet
facet normal -0.0 1.0 -0.0
  outer loop
    vertex 51.0 44.76021523821279 1.753947767579864
    vertex 28.0 44.76021523821279 -0.24605223242013435
    vertex 28.0 44.76021523821279 1.753947767579864
  endloop
endfacet
facet normal 8.915869535732086e-17 -7.144247488192903e-16 1.0
  outer loop
    vertex 3.0 32.08021523821279 1.7539477675798603
    vertex 1.5 32.08021523821279 1.7539477675798598
    vertex 3.0 2.7602152382128 1.7539477675798352
  endloop
endfacet
facet normal 8.915869535732086e-17 -7.144247488192903e-16 1.0
  outer loop
    vertex 0.0 -0.2397847617872005 1.7539477675798345
    vertex 3.0 2.7602152382128 1.7539477675798352
    vertex 0.0 44.76021523821279 1.753947767579864
  endloop
endfacet
facet normal 8.915869535732086e-17 -7.144247488192903e-16 1.0
  outer loop
    vertex 3.0 2.7602152382128 1.7539477675798352
    vertex 0.0 -0.2397847617872005 1.7539477675798345
    vertex 20.0 -0.23978476178720615 1.7539477675798345
  endloop
endfacet
facet normal 8.915869535732086e-17 -7.144247488192903e-16 1.0
  outer loop
    vertex 0.0 44.76021523821279 1.753947767579864
    vertex 3.0 2.7602152382128 1.7539477675798352
    vertex 1.5 32.08021523821279 1.7539477675798598
  endloop
endfacet
facet normal 8.915869535732086e-17 -7.144247488192903e-16 1.0
  outer loop
    vertex 3.0 2.7602152382128 1.7539477675798352
    vertex 20.0 -0.23978476178720615 1.7539477675798345
    vertex 20.0 2.7602152382128 1.7539477675798352
  endloop
endfacet
facet normal 8.915869535732086e-17 -7.144247488192903e-16 1.0
  outer loop
    vertex 0.0 44.76021523821279 1.753947767579864
    vertex 3.0 41.76021523821279 1.7539477675798634
    vertex 20.0 44.76021523821279 1.753947767579864
  endloop
endfacet
facet normal 8.915869535732086e-17 -7.144247488192903e-16 1.0
  outer loop
    vertex 3.0 41.76021523821279 1.7539477675798634
    vertex 0.0 44.76021523821279 1.753947767579864
    vertex 1.5 33.480215238212786 1.7539477675798607
  endloop
endfacet
facet normal 8.915869535732086e-17 -7.144247488192903e-16 1.0
  outer loop
    vertex 1.5 33.480215238212786 1.7539477675798607
    vertex 0.0 44.76021523821279 1.753947767579864
    vertex 1.5 32.08021523821279 1.7539477675798598
  endloop
endfacet
facet normal 8.915869535732086e-17 -7.144247488192903e-16 1.0
  outer loop
    vertex 3.0 41.76021523821279 1.7539477675798634
    vertex 1.5 33.480215238212786 1.7539477675798607
    vertex 3.0 33.480215238212786 1.7539477675798623
  endloop
endfacet
facet normal 8.915869535732086e-17 -7.144247488192903e-16 1.0
  outer loop
    vertex 20.0 44.76021523821279 1.753947767579864
    vertex 3.0 41.76021523821279 1.7539477675798634
    vertex 20.0 41.76021523821279 1.753947767579864
  endloop
endfacet
facet normal -3.92683212673423e-18 -0.9805806756909203 0.19611613513818357
  outer loop
    vertex 20.0 41.76021523821279 1.753947767579864
    vertex 3.499999999999999 41.36021523821279 -0.2460522324201368
    vertex 20.0 41.36021523821279 -0.2460522324201368
  endloop
endfacet
facet normal -3.92683212673423e-18 -0.9805806756909203 0.19611613513818357
  outer loop
    vertex 3.499999999999999 41.36021523821279 -0.2460522324201368
    vertex 20.0 41.76021523821279 1.753947767579864
    vertex 3.0 41.76021523821279 1.7539477675798634
  endloop
endfacet
facet normal 1.0 -0.0 -0.0
  outer loop
    vertex 20.0 44.76021523821279 -0.24605223242013435
    vertex 20.0 41.76021523821279 1.753947767579864
    vertex 20.0 41.36021523821279 -0.2460522324201368
  endloop
endfacet
facet normal 1.0 -0.0 -0.0
  outer loop
    vertex 20.0 41.76021523821279 1.753947767579864
    vertex 20.0 44.76021523821279 -0.24605223242013435
    vertex 20.0 44.76021523821279 1.753947767579864
  endloop
endfacet
facet normal -1.0 -8.229474170859635e-16 1.492277982982546e-15
  outer loop
    vertex 28.000000000000004 41.76021523821279 1.7539477675798638
    vertex 28.0 44.76021523821279 -0.24605223242013435
    vertex 28.0 41.36021523821279 -0.2460522324201368
  endloop
endfacet
facet normal -1.0 -8.229474170859635e-16 1.492277982982546e-15
  outer loop
    vertex 28.0 44.76021523821279 -0.24605223242013435
    vertex 28.000000000000004 41.76021523821279 1.7539477675798638
    vertex 28.0 44.76021523821279 1.753947767579864
  endloop
endfacet
facet normal -0.0 1.0 -0.0
  outer loop
    vertex 20.0 44.76021523821279 -0.24605223242013435
    vertex 28.0 44.76021523821279 -0.7460522324201365
    vertex 20.0 44.76021523821279 -0.7460522324201365
  endloop
endfacet
facet normal -0.0 1.0 -0.0
  outer loop
    vertex 28.0 44.76021523821279 -0.7460522324201365
    vertex 20.0 44.76021523821279 -0.24605223242013435
    vertex 28.0 44.76021523821279 -0.24605223242013435
  endloop
endfacet
facet normal 0.5299989400031806 5.279378807182298e-16 -0.8479983040050876
  outer loop
    vertex 51.0 44.76021523821279 -0.7460522324201365
    vertex 47.0 3.760215238212798 -3.2460522324201655
    vertex 47.0 40.760215238212794 -3.246052232420139
  endloop
endfacet
facet normal 0.5299989400031806 5.279378807182298e-16 -0.8479983040050876
  outer loop
    vertex 47.0 3.760215238212798 -3.2460522324201655
    vertex 51.0 44.76021523821279 -0.7460522324201365
    vertex 51.0 -0.2397847617872005 -0.7460522324201616
  endloop
endfacet
facet normal 0.0 7.240454482217576e-16 -1.0
  outer loop
    vertex 47.0 40.760215238212794 -3.246052232420139
    vertex 3.999999999999999 3.760215238212798 -3.2460522324201655
    vertex 3.999999999999999 40.760215238212794 -3.246052232420139
  endloop
endfacet
facet normal 0.0 7.240454482217576e-16 -1.0
  outer loop
    vertex 3.999999999999999 3.760215238212798 -3.2460522324201655
    vertex 47.0 40.760215238212794 -3.246052232420139
    vertex 47.0 3.760215238212798 -3.2460522324201655
  endloop
endfacet
facet normal 8.81239525796218e-17 -1.4099832412739552e-15 1.0
  outer loop
    vertex 28.0 8.260215238212796 8.753947767579838
    vertex 20.0 9.76021523821279 8.753947767579842
    vertex 20.0 8.260215238212796 8.753947767579838
  endloop
endfacet
facet normal 8.81239525796218e-17 -1.4099832412739552e-15 1.0
  outer loop
    vertex 20.0 9.76021523821279 8.753947767579842
    vertex 28.0 8.260215238212796 8.753947767579838
    vertex 28.0 9.76021523821279 8.75394776757984
  endloop
endfacet
facet normal -1.0 -7.917482023227067e-16 -8.630348837178498e-18
  outer loop
    vertex 20.0 8.260215238212796 8.753947767579838
    vertex 20.000000000000004 8.260215238212798 3.753947767579837
    vertex 20.000000000000004 6.260215238212798 5.253947767579836
  endloop
endfacet
facet normal -1.0 -7.917482023227067e-16 -8.630348837178498e-18
  outer loop
    vertex 20.000000000000004 8.260215238212798 3.753947767579837
    vertex 20.0 8.260215238212796 8.753947767579838
    vertex 20.0 9.76021523821279 8.753947767579842
  endloop
endfacet
facet normal -1.0 -7.917482023227067e-16 -8.630348837178498e-18
  outer loop
    vertex 20.000000000000004 8.260215238212798 3.753947767579837
    vertex 20.0 9.76021523821279 8.753947767579842
    vertex 20.0 8.260215238212798 -0.24605223242016208
  endloop
endfacet
facet normal -1.0 -7.917482023227067e-16 -8.630348837178498e-18
  outer loop
    vertex 20.0 8.260215238212798 -0.24605223242016208
    vertex 20.0 9.76021523821279 8.753947767579842
    vertex 20.0 9.7602152382128 -0.24605223242015997
  endloop
endfacet
facet normal 1.4366787383772535e-31 1.0 1.0868620818153347e-15
  outer loop
    vertex 20.0 9.7602152382128 -0.24605223242015997
    vertex 28.0 9.76021523821279 8.75394776757984
    vertex 28.0 9.7602152382128 -0.24605223242016103
  endloop
endfacet
facet normal 1.4366787383772535e-31 1.0 1.0868620818153347e-15
  outer loop
    vertex 28.0 9.76021523821279 8.75394776757984
    vertex 20.0 9.7602152382128 -0.24605223242015997
    vertex 20.0 9.76021523821279 8.753947767579842
  endloop
endfacet
facet normal 2.3359342059318488e-46 -9.39988827515964e-16 1.0
  outer loop
    vertex 28.0 35.26021523821278 8.753947767579861
    vertex 20.0 36.76021523821278 8.753947767579863
    vertex 20.0 35.26021523821278 8.753947767579861
  endloop
endfacet
facet normal 2.3359342059318488e-46 -9.39988827515964e-16 1.0
  outer loop
    vertex 20.0 36.76021523821278 8.753947767579863
    vertex 28.0 35.26021523821278 8.753947767579861
    vertex 28.0 36.76021523821278 8.753947767579863
  endloop
endfacet
facet normal 1.0 -0.0 -0.0
  outer loop
    vertex 28.0 36.760215238212794 -0.24605223242013763
    vertex 28.0 36.76021523821278 3.753947767579859
    vertex 28.0 35.260215238212794 -0.246052232420139
  endloop
endfacet
facet normal 1.0 -0.0 -0.0
  outer loop
    vertex 28.0 35.260215238212794 -0.246052232420139
    vertex 28.0 36.76021523821278 8.753947767579863
    vertex 28.0 35.26021523821278 8.753947767579861
  endloop
endfacet
facet normal 1.0 -0.0 -0.0
  outer loop
    vertex 28.0 36.76021523821278 8.753947767579863
    vertex 28.0 35.260215238212794 -0.246052232420139
    vertex 28.0 36.76021523821278 3.753947767579859
  endloop
endfacet
facet normal 1.0 -0.0 -0.0
  outer loop
    vertex 28.0 36.76021523821278 8.753947767579863
    vertex 28.0 36.76021523821278 3.753947767579859
    vertex 28.0 38.76021523821279 5.25394776757986
  endloop
endfacet
facet normal 0.0 -1.0 -9.987381292357118e-16
  outer loop
    vertex 28.0 35.26021523821278 8.753947767579861
    vertex 20.0 35.260215238212794 -0.246052232420139
    vertex 28.0 35.260215238212794 -0.246052232420139
  endloop
endfacet
facet normal 0.0 -1.0 -9.987381292357118e-16
  outer loop
    vertex 20.0 35.260215238212794 -0.246052232420139
    vertex 28.0 35.26021523821278 8.753947767579861
    vertex 20.0 35.26021523821278 8.753947767579861
  endloop
endfacet
facet normal -1.0 6.179329767419237e-17 -2.1575872092944853e-17
  outer loop
    vertex 20.0 38.76021523821279 5.25394776757986
    vertex 20.000000000000004 36.76021523821278 3.753947767579859
    vertex 20.0 36.76021523821278 8.753947767579863
  endloop
endfacet
facet normal -1.0 6.179329767419237e-17 -2.1575872092944853e-17
  outer loop
    vertex 20.0 36.76021523821278 8.753947767579863
    vertex 20.0 35.260215238212794 -0.246052232420139
    vertex 20.0 35.26021523821278 8.753947767579861
  endloop
endfacet
facet normal -1.0 6.179329767419237e-17 -2.1575872092944853e-17
  outer loop
    vertex 20.0 35.260215238212794 -0.246052232420139
    vertex 20.0 36.76021523821278 8.753947767579863
    vertex 20.000000000000004 36.76021523821278 3.753947767579859
  endloop
endfacet
facet normal -1.0 6.179329767419237e-17 -2.1575872092944853e-17
  outer loop
    vertex 20.0 35.260215238212794 -0.246052232420139
    vertex 20.000000000000004 36.76021523821278 3.753947767579859
    vertex 20.0 36.760215238212794 -0.24605223242013735
  endloop
endfacet
facet normal 1.0 -0.0 -0.0
  outer loop
    vertex 28.0 9.7602152382128 -0.24605223242016103
    vertex 28.0 8.260215238212798 3.753947767579837
    vertex 28.0 8.260215238212798 -0.24605223242016216
  endloop
endfacet
facet normal 1.0 -0.0 -0.0
  outer loop
    vertex 28.0 8.260215238212798 3.753947767579837
    vertex 28.0 9.7602152382128 -0.24605223242016103
    vertex 28.0 9.76021523821279 8.75394776757984
  endloop
endfacet
facet normal 1.0 -0.0 -0.0
  outer loop
    vertex 28.0 8.260215238212798 3.753947767579837
    vertex 28.0 8.260215238212796 8.753947767579838
    vertex 28.0 6.260215238212798 5.253947767579836
  endloop
endfacet
facet normal 1.0 -0.0 -0.0
  outer loop
    vertex 28.0 8.260215238212796 8.753947767579838
    vertex 28.0 8.260215238212798 3.753947767579837
    vertex 28.0 9.76021523821279 8.75394776757984
  endloop
endfacet
facet normal -4.4694001419527495e-31 0.8682431421244587 0.496138938356835
  outer loop
    vertex 20.0 36.76021523821278 8.753947767579863
    vertex 28.0 38.76021523821279 5.25394776757986
    vertex 20.0 38.76021523821279 5.25394776757986
  endloop
endfacet
facet normal -4.4694001419527495e-31 0.8682431421244587 0.496138938356835
  outer loop
    vertex 28.0 38.76021523821279 5.25394776757986
    vertex 20.0 36.76021523821278 8.753947767579863
    vertex 28.0 36.76021523821278 8.753947767579863
  endloop
endfacet
facet normal 5.246129052005547e-18 0.599999999999999 -0.8000000000000008
  outer loop
    vertex 28.0 38.76021523821279 5.25394776757986
    vertex 20.000000000000004 36.76021523821278 3.753947767579859
    vertex 20.0 38.76021523821279 5.25394776757986
  endloop
endfacet
facet normal 5.246129052005547e-18 0.599999999999999 -0.8000000000000008
  outer loop
    vertex 20.000000000000004 36.76021523821278 3.753947767579859
    vertex 28.0 38.76021523821279 5.25394776757986
    vertex 28.0 36.76021523821278 3.753947767579859
  endloop
endfacet
facet normal 1.941457754563643e-33 1.0 2.8199664825479e-15
  outer loop
    vertex 20.0 36.760215238212794 -0.24605223242013735
    vertex 28.0 36.76021523821278 3.753947767579859
    vertex 28.0 36.760215238212794 -0.24605223242013763
  endloop
endfacet
facet normal 1.941457754563643e-33 1.0 2.8199664825479e-15
  outer loop
    vertex 28.0 36.76021523821278 3.753947767579859
    vertex 20.0 36.760215238212794 -0.24605223242013735
    vertex 20.000000000000004 36.76021523821278 3.753947767579859
  endloop
endfacet
facet normal -3.2535111229312953e-18 -0.8682431421244594 0.49613893835683354
  outer loop
    vertex 28.0 8.260215238212796 8.753947767579838
    vertex 20.000000000000004 6.260215238212798 5.253947767579836
    vertex 28.0 6.260215238212798 5.253947767579836
  endloop
endfacet
facet normal -3.2535111229312953e-18 -0.8682431421244594 0.49613893835683354
  outer loop
    vertex 20.000000000000004 6.260215238212798 5.253947767579836
    vertex 28.0 8.260215238212796 8.753947767579838
    vertex 20.0 8.260215238212796 8.753947767579838
  endloop
endfacet
facet normal 0.0 -1.0 0.0
  outer loop
    vertex 28.0 8.260215238212798 3.753947767579837
    vertex 20.0 8.260215238212798 -0.24605223242016208
    vertex 28.0 8.260215238212798 -0.24605223242016216
  endloop
endfacet
facet normal 0.0 -1.0 0.0
  outer loop
    vertex 20.0 8.260215238212798 -0.24605223242016208
    vertex 28.0 8.260215238212798 3.753947767579837
    vertex 20.000000000000004 8.260215238212798 3.753947767579837
  endloop
endfacet
facet normal 0.0 -0.5999999999999996 -0.8000000000000005
  outer loop
    vertex 28.0 8.260215238212798 3.753947767579837
    vertex 20.000000000000004 6.260215238212798 5.253947767579836
    vertex 20.000000000000004 8.260215238212798 3.753947767579837
  endloop
endfacet
facet normal 0.0 -0.5999999999999996 -0.8000000000000005
  outer loop
    vertex 20.000000000000004 6.260215238212798 5.253947767579836
    vertex 28.0 8.260215238212798 3.753947767579837
    vertex 28.0 6.260215238212798 5.253947767579836
  endloop
endfacet
facet normal -1.9920960180748917e-16 -6.656858879624497e-16 1.0
  outer loop
    vertex 27.999999999999993 3.260215238212799 -0.24605223242016463
    vertex 28.0 8.260215238212798 -0.24605223242016216
    vertex 20.0 8.260215238212798 -0.24605223242016208
  endloop
endfacet
facet normal -1.9920960180748917e-16 -6.656858879624497e-16 1.0
  outer loop
    vertex 28.0 8.260215238212798 -0.24605223242016216
    vertex 27.999999999999993 3.260215238212799 -0.24605223242016463
    vertex 47.5 3.260215238212799 -0.2460522324201618
  endloop
endfacet
facet normal -1.9920960180748917e-16 -6.656858879624497e-16 1.0
  outer loop
    vertex 28.0 8.260215238212798 -0.24605223242016216
    vertex 47.5 3.260215238212799 -0.2460522324201618
    vertex 28.0 9.7602152382128 -0.24605223242016103
  endloop
endfacet
facet normal -1.9920960180748917e-16 -6.656858879624497e-16 1.0
  outer loop
    vertex 28.0 9.7602152382128 -0.24605223242016103
    vertex 47.5 3.260215238212799 -0.2460522324201618
    vertex 28.0 35.260215238212794 -0.246052232420139
  endloop
endfacet
facet normal -1.9920960180748917e-16 -6.656858879624497e-16 1.0
  outer loop
    vertex 28.0 35.260215238212794 -0.246052232420139
    vertex 47.5 3.260215238212799 -0.2460522324201618
    vertex 28.0 36.760215238212794 -0.24605223242013763
  endloop
endfacet
facet normal -1.9920960180748917e-16 -6.656858879624497e-16 1.0
  outer loop
    vertex 28.0 36.760215238212794 -0.24605223242013763
    vertex 47.5 3.260215238212799 -0.2460522324201618
    vertex 28.0 41.36021523821279 -0.2460522324201368
  endloop
endfacet
facet normal -1.9920960180748917e-16 -6.656858879624497e-16 1.0
  outer loop
    vertex 28.0 41.36021523821279 -0.2460522324201368
    vertex 47.5 3.260215238212799 -0.2460522324201618
    vertex 42.199999999999996 32.08021523821279 -0.24605223242015292
  endloop
endfacet
facet normal -1.9920960180748917e-16 -6.656858879624497e-16 1.0
  outer loop
    vertex 42.199999999999996 32.08021523821279 -0.24605223242015292
    vertex 47.5 3.260215238212799 -0.2460522324201618
    vertex 47.199999999999996 32.08021523821279 -0.24605223242014296
  endloop
endfacet
facet normal -1.9920960180748917e-16 -6.656858879624497e-16 1.0
  outer loop
    vertex 47.199999999999996 32.08021523821279 -0.24605223242014296
    vertex 47.5 3.260215238212799 -0.2460522324201618
    vertex 47.199999999999996 33.480215238212786 -0.246052232420142
  endloop
endfacet
facet normal -1.9920960180748917e-16 -6.656858879624497e-16 1.0
  outer loop
    vertex 28.0 41.36021523821279 -0.2460522324201368
    vertex 42.199999999999996 33.480215238212786 -0.246052232420142
    vertex 47.5 41.36021523821279 -0.2460522324201368
  endloop
endfacet
facet normal -1.9920960180748917e-16 -6.656858879624497e-16 1.0
  outer loop
    vertex 42.199999999999996 33.480215238212786 -0.246052232420142
    vertex 28.0 41.36021523821279 -0.2460522324201368
    vertex 42.199999999999996 32.08021523821279 -0.24605223242015292
  endloop
endfacet
facet normal -1.9920960180748917e-16 -6.656858879624497e-16 1.0
  outer loop
    vertex 47.5 41.36021523821279 -0.2460522324201368
    vertex 42.199999999999996 33.480215238212786 -0.246052232420142
    vertex 47.199999999999996 33.480215238212786 -0.246052232420142
  endloop
endfacet
facet normal -1.9920960180748917e-16 -6.656858879624497e-16 1.0
  outer loop
    vertex 47.5 41.36021523821279 -0.2460522324201368
    vertex 47.199999999999996 33.480215238212786 -0.246052232420142
    vertex 47.5 3.260215238212799 -0.2460522324201618
  endloop
endfacet
facet normal -1.9920960180748917e-16 -6.656858879624497e-16 1.0
  outer loop
    vertex 20.0 3.260215238212799 -0.24605223242016352
    vertex 3.499999999999999 32.08021523821279 -0.24605223242015367
    vertex 3.499999999999999 3.260215238212799 -0.24605223242016394
  endloop
endfacet
facet normal -1.9920960180748917e-16 -6.656858879624497e-16 1.0
  outer loop
    vertex 3.499999999999999 32.08021523821279 -0.24605223242015367
    vertex 20.0 3.260215238212799 -0.24605223242016352
    vertex 6.499999999999999 32.08021523821279 -0.24605223242015406
  endloop
endfacet
facet normal -1.9920960180748917e-16 -6.656858879624497e-16 1.0
  outer loop
    vertex 6.499999999999999 32.08021523821279 -0.24605223242015406
    vertex 20.0 3.260215238212799 -0.24605223242016352
    vertex 6.499999999999999 33.480215238212786 -0.2460522324201531
  endloop
endfacet
facet normal -1.9920960180748917e-16 -6.656858879624497e-16 1.0
  outer loop
    vertex 28.0 -0.23978476178720307 -0.24605223242016658
    vertex 20.0 3.260215238212799 -0.24605223242016352
    vertex 20.0 -0.23978476178720615 -0.24605223242016644
  endloop
endfacet
facet normal -1.9920960180748917e-16 -6.656858879624497e-16 1.0
  outer loop
    vertex 20.0 3.260215238212799 -0.24605223242016352
    vertex 28.0 -0.23978476178720307 -0.24605223242016658
    vertex 20.0 8.260215238212798 -0.24605223242016208
  endloop
endfacet
facet normal -1.9920960180748917e-16 -6.656858879624497e-16 1.0
  outer loop
    vertex 20.0 8.260215238212798 -0.24605223242016208
    vertex 28.0 -0.23978476178720307 -0.24605223242016658
    vertex 27.999999999999993 3.260215238212799 -0.24605223242016463
  endloop
endfacet
facet normal -1.9920960180748917e-16 -6.656858879624497e-16 1.0
  outer loop
    vertex 6.499999999999999 33.480215238212786 -0.2460522324201531
    vertex 3.499999999999999 41.36021523821279 -0.2460522324201368
    vertex 3.499999999999999 33.480215238212786 -0.2460522324201531
  endloop
endfacet
facet normal -1.9920960180748917e-16 -6.656858879624497e-16 1.0
  outer loop
    vertex 3.499999999999999 41.36021523821279 -0.2460522324201368
    vertex 6.499999999999999 33.480215238212786 -0.2460522324201531
    vertex 20.0 41.36021523821279 -0.2460522324201368
  endloop
endfacet
facet normal -1.9920960180748917e-16 -6.656858879624497e-16 1.0
  outer loop
    vertex 20.0 41.36021523821279 -0.2460522324201368
    vertex 6.499999999999999 33.480215238212786 -0.2460522324201531
    vertex 20.0 3.260215238212799 -0.24605223242016352
  endloop
endfacet
facet normal -1.9920960180748917e-16 -6.656858879624497e-16 1.0
  outer loop
    vertex 20.0 41.36021523821279 -0.2460522324201368
    vertex 20.0 3.260215238212799 -0.24605223242016352
    vertex 20.0 8.260215238212798 -0.24605223242016208
  endloop
endfacet
facet normal -1.9920960180748917e-16 -6.656858879624497e-16 1.0
  outer loop
    vertex 20.0 41.36021523821279 -0.2460522324201368
    vertex 20.0 8.260215238212798 -0.24605223242016208
    vertex 20.0 9.7602152382128 -0.24605223242015997
  endloop
endfacet
facet normal -1.9920960180748917e-16 -6.656858879624497e-16 1.0
  outer loop
    vertex 20.0 41.36021523821279 -0.2460522324201368
    vertex 20.0 9.7602152382128 -0.24605223242015997
    vertex 20.0 35.260215238212794 -0.246052232420139
  endloop
endfacet
facet normal -1.9920960180748917e-16 -6.656858879624497e-16 1.0
  outer loop
    vertex 20.0 41.36021523821279 -0.2460522324201368
    vertex 20.0 35.260215238212794 -0.246052232420139
    vertex 20.0 36.760215238212794 -0.24605223242013735
  endloop
endfacet
facet normal -1.9920960180748917e-16 -6.656858879624497e-16 1.0
  outer loop
    vertex 20.0 41.36021523821279 -0.2460522324201368
    vertex 20.0 36.760215238212794 -0.24605223242013735
    vertex 28.0 36.760215238212794 -0.24605223242013763
  endloop
endfacet
facet normal -1.9920960180748917e-16 -6.656858879624497e-16 1.0
  outer loop
    vertex 20.0 41.36021523821279 -0.2460522324201368
    vertex 28.0 36.760215238212794 -0.24605223242013763
    vertex 20.0 44.76021523821279 -0.24605223242013435
  endloop
endfacet
facet normal -1.9920960180748917e-16 -6.656858879624497e-16 1.0
  outer loop
    vertex 20.0 44.76021523821279 -0.24605223242013435
    vertex 28.0 36.760215238212794 -0.24605223242013763
    vertex 28.0 44.76021523821279 -0.24605223242013435
  endloop
endfacet
facet normal -1.9920960180748917e-16 -6.656858879624497e-16 1.0
  outer loop
    vertex 28.0 44.76021523821279 -0.24605223242013435
    vertex 28.0 36.760215238212794 -0.24605223242013763
    vertex 28.0 41.36021523821279 -0.2460522324201368
  endloop
endfacet
facet normal -1.9920960180748917e-16 -6.656858879624497e-16 1.0
  outer loop
    vertex 28.0 9.7602152382128 -0.24605223242016103
    vertex 20.0 35.260215238212794 -0.246052232420139
    vertex 20.0 9.7602152382128 -0.24605223242015997
  endloop
endfacet
facet normal -1.9920960180748917e-16 -6.656858879624497e-16 1.0
  outer loop
    vertex 20.0 35.260215238212794 -0.246052232420139
    vertex 28.0 9.7602152382128 -0.24605223242016103
    vertex 28.0 35.260215238212794 -0.246052232420139
  endloop
endfacet
facet normal 1.0 4.576293278614814e-32 -6.609296443471633e-17
  outer loop
    vertex 6.499999999999999 33.480215238212786 -0.2460522324201531
    vertex 6.499999999999999 32.08021523821279 4.253947767579846
    vertex 6.499999999999999 32.08021523821279 -0.24605223242015406
  endloop
endfacet
facet normal 1.0 4.576293278614814e-32 -6.609296443471633e-17
  outer loop
    vertex 6.499999999999999 32.08021523821279 4.253947767579846
    vertex 6.499999999999999 33.480215238212786 -0.2460522324201531
    vertex 6.499999999999999 33.480215238212786 4.253947767579847
  endloop
endfacet
facet normal -9.95800664149726e-16 -4.248833427946059e-15 1.0
  outer loop
    vertex 47.199999999999996 32.08021523821277 4.253947767579858
    vertex 42.19999999999999 33.48021523821277 4.2539477675798585
    vertex 42.19999999999999 32.08021523821277 4.253947767579848
  endloop
endfacet
facet normal -9.95800664149726e-16 -4.248833427946059e-15 1.0
  outer loop
    vertex 42.19999999999999 33.48021523821277 4.2539477675798585
    vertex 47.199999999999996 32.08021523821277 4.253947767579858
    vertex 47.199999999999996 33.48021523821277 4.2539477675798585
  endloop
endfacet
facet normal 1.0 -6.894948539779654e-31 9.95800664149726e-16
  outer loop
    vertex 47.199999999999996 32.08021523821279 -0.24605223242014296
    vertex 47.199999999999996 33.48021523821277 4.2539477675798585
    vertex 47.199999999999996 32.08021523821277 4.253947767579858
  endloop
endfacet
facet normal 1.0 -6.894948539779654e-31 9.95800664149726e-16
  outer loop
    vertex 47.199999999999996 33.48021523821277 4.2539477675798585
    vertex 47.199999999999996 32.08021523821279 -0.24605223242014296
    vertex 47.199999999999996 33.480215238212786 -0.246052232420142
  endloop
endfacet
facet normal 0.0 1.0 4.248833427946059e-15
  outer loop
    vertex 42.19999999999999 33.48021523821277 4.2539477675798585
    vertex 47.199999999999996 33.480215238212786 -0.246052232420142
    vertex 42.199999999999996 33.480215238212786 -0.246052232420142
  endloop
endfacet
facet normal 0.0 1.0 4.248833427946059e-15
  outer loop
    vertex 47.199999999999996 33.480215238212786 -0.246052232420142
    vertex 42.19999999999999 33.48021523821277 4.2539477675798585
    vertex 47.199999999999996 33.48021523821277 4.2539477675798585
  endloop
endfacet
facet normal -1.0 7.772487444842518e-30 -9.95800664149726e-16
  outer loop
    vertex 42.19999999999999 33.48021523821277 4.2539477675798585
    vertex 42.199999999999996 32.08021523821279 -0.24605223242015292
    vertex 42.19999999999999 32.08021523821277 4.253947767579848
  endloop
endfacet
facet normal -1.0 7.772487444842518e-30 -9.95800664149726e-16
  outer loop
    vertex 42.199999999999996 32.08021523821279 -0.24605223242015292
    vertex 42.19999999999999 33.48021523821277 4.2539477675798585
    vertex 42.199999999999996 33.480215238212786 -0.246052232420142
  endloop
endfacet
facet normal 8.461982298820483e-30 -1.0 -4.248833427946059e-15
  outer loop
    vertex 47.199999999999996 32.08021523821279 -0.24605223242014296
    vertex 42.19999999999999 32.08021523821277 4.253947767579848
    vertex 42.199999999999996 32.08021523821279 -0.24605223242015292
  endloop
endfacet
facet normal 8.461982298820483e-30 -1.0 -4.248833427946059e-15
  outer loop
    vertex 42.19999999999999 32.08021523821277 4.253947767579848
    vertex 47.199999999999996 32.08021523821279 -0.24605223242014296
    vertex 47.199999999999996 32.08021523821277 4.253947767579858
  endloop
endfacet
facet normal -2.3908411482471308e-15 7.006127906951313e-16 1.0
  outer loop
    vertex 6.499999999999999 32.08021523821279 4.253947767579846
    vertex 1.4999999999999984 33.480215238212786 4.2539477675798345
    vertex 1.4999999999999984 32.08021523821279 4.2539477675798345
  endloop
endfacet
facet normal -2.3908411482471308e-15 7.006127906951313e-16 1.0
  outer loop
    vertex 1.4999999999999984 33.480215238212786 4.2539477675798345
    vertex 6.499999999999999 32.08021523821279 4.253947767579846
    vertex 6.499999999999999 33.480215238212786 4.253947767579847
  endloop
endfacet
facet normal -0.0 1.0 -0.0
  outer loop
    vertex 1.4999999999999984 33.480215238212786 4.2539477675798345
    vertex 3.0 33.480215238212786 1.7539477675798623
    vertex 1.5 33.480215238212786 1.7539477675798607
  endloop
endfacet
facet normal -0.0 1.0 -0.0
  outer loop
    vertex 3.0 33.480215238212786 1.7539477675798623
    vertex 6.499999999999999 33.480215238212786 -0.2460522324201531
    vertex 3.499999999999999 33.480215238212786 -0.2460522324201531
  endloop
endfacet
facet normal -0.0 1.0 -0.0
  outer loop
    vertex 6.499999999999999 33.480215238212786 -0.2460522324201531
    vertex 3.0 33.480215238212786 1.7539477675798623
    vertex 6.499999999999999 33.480215238212786 4.253947767579847
  endloop
endfacet
facet normal -0.0 1.0 -0.0
  outer loop
    vertex 6.499999999999999 33.480215238212786 4.253947767579847
    vertex 3.0 33.480215238212786 1.7539477675798623
    vertex 1.4999999999999984 33.480215238212786 4.2539477675798345
  endloop
endfacet
facet normal -1.0 3.5500941797739177e-31 -7.049916206369744e-16
  outer loop
    vertex 1.4999999999999984 33.480215238212786 4.2539477675798345
    vertex 1.5 32.08021523821279 1.7539477675798598
    vertex 1.4999999999999984 32.08021523821279 4.2539477675798345
  endloop
endfacet
facet normal -1.0 3.5500941797739177e-31 -7.049916206369744e-16
  outer loop
    vertex 1.5 32.08021523821279 1.7539477675798598
    vertex 1.4999999999999984 33.480215238212786 4.2539477675798345
    vertex 1.5 33.480215238212786 1.7539477675798607
  endloop
endfacet
facet normal 0.0 -1.0 0.0
  outer loop
    vertex 6.499999999999999 32.08021523821279 4.253947767579846
    vertex 3.499999999999999 32.08021523821279 -0.24605223242015367
    vertex 6.499999999999999 32.08021523821279 -0.24605223242015406
  endloop
endfacet
facet normal 0.0 -1.0 0.0
  outer loop
    vertex 3.499999999999999 32.08021523821279 -0.24605223242015367
    vertex 6.499999999999999 32.08021523821279 4.253947767579846
    vertex 3.0 32.08021523821279 1.7539477675798603
  endloop
endfacet
facet normal 0.0 -1.0 0.0
  outer loop
    vertex 3.0 32.08021523821279 1.7539477675798603
    vertex 6.499999999999999 32.08021523821279 4.253947767579846
    vertex 1.4999999999999984 32.08021523821279 4.2539477675798345
  endloop
endfacet
facet normal 0.0 -1.0 0.0
  outer loop
    vertex 1.4999999999999984 32.08021523821279 4.2539477675798345
    vertex 1.5 32.08021523821279 1.7539477675798598
    vertex 3.0 32.08021523821279 1.7539477675798603
  endloop
endfacet
facet normal 0.9701425001453323 -1.4782188736850424e-16 0.24253562503633183
  outer loop
    vertex 3.499999999999999 3.260215238212799 -0.24605223242016394
    vertex 3.0 32.08021523821279 1.7539477675798603
    vertex 3.0 2.7602152382128 1.7539477675798352
  endloop
endfacet
facet normal 0.9701425001453323 -1.4782188736850424e-16 0.24253562503633183
  outer loop
    vertex 3.0 32.08021523821279 1.7539477675798603
    vertex 3.499999999999999 3.260215238212799 -0.24605223242016394
    vertex 3.499999999999999 32.08021523821279 -0.24605223242015367
  endloop
endfacet
facet normal 0.9701425001453325 -2.4235679783798843e-16 0.2425356250363309
  outer loop
    vertex 3.499999999999999 33.480215238212786 -0.2460522324201531
    vertex 3.0 32.08021523821279 1.7539477675798603
    vertex 3.499999999999999 32.08021523821279 -0.24605223242015367
  endloop
endfacet
facet normal 0.9701425001453325 -2.4235679783798843e-16 0.2425356250363309
  outer loop
    vertex 3.0 32.08021523821279 1.7539477675798603
    vertex 3.499999999999999 33.480215238212786 -0.2460522324201531
    vertex 3.0 33.480215238212786 1.7539477675798623
  endloop
endfacet
endsolid Dashboard-Module-Cover
