solid Mic-Holder
facet normal 8.326672684688672e-16 -1.4099832412739552e-15 -1.0
  outer loop
    vertex 98.55760148934333 27.33246153369489 -1.9999999999999203
    vertex 90.55760148934336 25.832461533694897 -1.9999999999999343
    vertex 90.55760148934336 27.33246153369489 -1.9999999999999343
  endloop
endfacet
facet normal 8.326672684688672e-16 -1.4099832412739552e-15 -1.0
  outer loop
    vertex 90.55760148934336 25.832461533694897 -1.9999999999999343
    vertex 98.55760148934333 27.33246153369489 -1.9999999999999203
    vertex 98.55760148934333 25.832461533694897 -1.9999999999999203
  endloop
endfacet
facet normal -0.970142500145332 -1.4782188736850424e-16 -0.24253562503633275
  outer loop
    vertex 115.05760148934333 20.8324615336949 7.000000000000094
    vertex 115.55760148934333 49.65246153369489 5.00000000000007
    vertex 115.55760148934333 20.3324615336949 5.000000000000087
  endloop
endfacet
facet normal -0.970142500145332 -1.4782188736850424e-16 -0.24253562503633275
  outer loop
    vertex 115.55760148934333 49.65246153369489 5.00000000000007
    vertex 115.05760148934333 20.8324615336949 7.000000000000094
    vertex 115.05760148934333 49.65246153369489 7.0000000000000835
  endloop
endfacet
facet normal -9.860761315262648e-31 -1.0 9.987381292357116e-16
  outer loop
    vertex 98.55760148934333 52.83246153369489 -1.9999999999999398
    vertex 90.55760148934331 52.83246153369489 7.0000000000000435
    vertex 90.55760148934334 52.83246153369489 -1.999999999999957
  endloop
endfacet
facet normal -9.860761315262648e-31 -1.0 9.987381292357116e-16
  outer loop
    vertex 90.55760148934331 52.83246153369489 7.0000000000000435
    vertex 98.55760148934333 52.83246153369489 -1.9999999999999398
    vertex 98.5576014893433 52.83246153369489 7.00000000000006
  endloop
endfacet
facet normal 8.881784197001252e-16 -6.723365519145764e-16 -1.0
  outer loop
    vertex 67.55760148934333 62.33246153369489 5.00000000000003
    vertex 70.55760148934334 59.3324615336949 5.000000000000025
    vertex 67.55760148934334 17.3324615336949 5.000000000000053
  endloop
endfacet
facet normal 8.881784197001252e-16 -6.723365519145764e-16 -1.0
  outer loop
    vertex 70.55760148934334 59.3324615336949 5.000000000000025
    vertex 67.55760148934333 62.33246153369489 5.00000000000003
    vertex 90.5576014893433 62.33246153369489 5.000000000000042
  endloop
endfacet
facet normal 8.881784197001252e-16 -6.723365519145764e-16 -1.0
  outer loop
    vertex 67.55760148934334 17.3324615336949 5.000000000000053
    vertex 70.55760148934334 59.3324615336949 5.000000000000025
    vertex 70.55760148934331 20.3324615336949 5.000000000000059
  endloop
endfacet
facet normal 8.881784197001252e-16 -6.723365519145764e-16 -1.0
  outer loop
    vertex 70.55760148934334 59.3324615336949 5.000000000000025
    vertex 90.5576014893433 62.33246153369489 5.000000000000042
    vertex 90.5576014893433 59.3324615336949 5.000000000000047
  endloop
endfacet
facet normal 8.881784197001252e-16 -6.723365519145764e-16 -1.0
  outer loop
    vertex 70.55760148934331 20.3324615336949 5.000000000000059
    vertex 90.55760148934333 17.33246153369489 5.0000000000000755
    vertex 67.55760148934334 17.3324615336949 5.000000000000053
  endloop
endfacet
facet normal 8.881784197001252e-16 -6.723365519145764e-16 -1.0
  outer loop
    vertex 90.55760148934333 17.33246153369489 5.0000000000000755
    vertex 70.55760148934331 20.3324615336949 5.000000000000059
    vertex 90.55760148934333 20.3324615336949 5.0000000000000755
  endloop
endfacet
facet normal 0.0 1.0 0.0
  outer loop
    vertex 98.5576014893433 62.33246153369489 7.000000000000049
    vertex 118.55760148934333 62.33246153369489 5.00000000000007
    vertex 98.55760148934333 62.33246153369489 5.000000000000047
  endloop
endfacet
facet normal 0.0 1.0 0.0
  outer loop
    vertex 118.55760148934333 62.33246153369489 5.00000000000007
    vertex 98.5576014893433 62.33246153369489 7.000000000000049
    vertex 118.55760148934333 62.33246153369489 7.500000000000076
  endloop
endfacet
facet normal 0.0 1.0 0.0
  outer loop
    vertex 118.55760148934333 62.33246153369489 7.500000000000076
    vertex 98.5576014893433 62.33246153369489 7.000000000000049
    vertex 98.55760148934333 62.33246153369489 7.500000000000048
  endloop
endfacet
facet normal 0.9701425001453322 -1.5928207572665924e-16 -0.2425356250363317
  outer loop
    vertex 70.55760148934334 59.3324615336949 5.000000000000025
    vertex 71.05760148934334 20.8324615336949 7.000000000000049
    vertex 70.55760148934331 20.3324615336949 5.000000000000059
  endloop
endfacet
facet normal 0.9701425001453322 -1.5928207572665924e-16 -0.2425356250363317
  outer loop
    vertex 71.05760148934334 20.8324615336949 7.000000000000049
    vertex 70.55760148934334 59.3324615336949 5.000000000000025
    vertex 71.05760148934333 58.9324615336949 7.000000000000027
  endloop
endfacet
facet normal 2.498001805406602e-16 0.9701425001453321 -0.24253562503633258
  outer loop
    vertex 71.05760148934334 20.8324615336949 7.000000000000049
    vertex 90.55760148934333 20.3324615336949 5.0000000000000755
    vertex 70.55760148934331 20.3324615336949 5.000000000000059
  endloop
endfacet
facet normal 2.498001805406602e-16 0.9701425001453321 -0.24253562503633258
  outer loop
    vertex 90.55760148934333 20.3324615336949 5.0000000000000755
    vertex 71.05760148934334 20.8324615336949 7.000000000000049
    vertex 90.55760148934334 20.8324615336949 7.000000000000066
  endloop
endfacet
facet normal 1.0 -1.7251559657940046e-15 1.0547118733938987e-15
  outer loop
    vertex 90.55760148934333 20.3324615336949 5.0000000000000755
    vertex 90.55760148934334 17.3324615336949 7.000000000000072
    vertex 90.55760148934333 17.33246153369489 5.0000000000000755
  endloop
endfacet
facet normal 1.0 -1.7251559657940046e-15 1.0547118733938987e-15
  outer loop
    vertex 90.55760148934334 17.3324615336949 7.000000000000072
    vertex 90.55760148934333 20.3324615336949 5.0000000000000755
    vertex 90.55760148934334 20.8324615336949 7.000000000000066
  endloop
endfacet
facet normal 1.942890293094024e-16 -0.9805806756909203 -0.19611613513818366
  outer loop
    vertex 90.5576014893433 59.3324615336949 5.000000000000047
    vertex 71.05760148934333 58.9324615336949 7.000000000000027
    vertex 70.55760148934334 59.3324615336949 5.000000000000025
  endloop
endfacet
facet normal 1.942890293094024e-16 -0.9805806756909203 -0.19611613513818366
  outer loop
    vertex 71.05760148934333 58.9324615336949 7.000000000000027
    vertex 90.5576014893433 59.3324615336949 5.000000000000047
    vertex 90.55760148934331 58.9324615336949 7.0000000000000435
  endloop
endfacet
facet normal 3.549874073494553e-30 1.0 -4.248833427946058e-15
  outer loop
    vertex 71.35760148934334 51.05246153369489 7.000000000000027
    vertex 76.35760148934332 51.052461533694874 2.500000000000035
    vertex 71.35760148934334 51.052461533694874 2.500000000000035
  endloop
endfacet
facet normal 3.549874073494553e-30 1.0 -4.248833427946058e-15
  outer loop
    vertex 76.35760148934332 51.052461533694874 2.500000000000035
    vertex 71.35760148934334 51.05246153369489 7.000000000000027
    vertex 76.35760148934332 51.05246153369489 7.000000000000038
  endloop
endfacet
facet normal 1.0 -8.229474170859637e-16 -6.661338147750939e-16
  outer loop
    vertex 90.5576014893433 59.3324615336949 5.000000000000047
    vertex 90.55760148934333 62.33246153369489 7.000000000000038
    vertex 90.55760148934331 58.9324615336949 7.0000000000000435
  endloop
endfacet
facet normal 1.0 -8.229474170859637e-16 -6.661338147750939e-16
  outer loop
    vertex 90.55760148934333 62.33246153369489 7.000000000000038
    vertex 90.5576014893433 59.3324615336949 5.000000000000047
    vertex 90.5576014893433 62.33246153369489 5.000000000000042
  endloop
endfacet
facet normal -0.9701425001453321 -2.532811986812328e-16 -0.24253562503633258
  outer loop
    vertex 115.05760148934333 58.9324615336949 7.00000000000006
    vertex 115.55760148934333 51.05246153369489 5.000000000000064
    vertex 115.05760148934333 51.05246153369489 7.0000000000000835
  endloop
endfacet
facet normal -0.9701425001453321 -2.532811986812328e-16 -0.24253562503633258
  outer loop
    vertex 115.55760148934333 51.05246153369489 5.000000000000064
    vertex 115.05760148934333 58.9324615336949 7.00000000000006
    vertex 115.55760148934333 59.3324615336949 5.000000000000064
  endloop
endfacet
facet normal -1.0 0.0 -8.881784197001252e-16
  outer loop
    vertex 98.5576014893433 62.33246153369489 7.000000000000049
    vertex 98.55760148934333 59.3324615336949 5.000000000000047
    vertex 98.5576014893433 58.9324615336949 7.000000000000055
  endloop
endfacet
facet normal -1.0 0.0 -8.881784197001252e-16
  outer loop
    vertex 98.55760148934333 59.3324615336949 5.000000000000047
    vertex 98.5576014893433 62.33246153369489 7.000000000000049
    vertex 98.55760148934333 62.33246153369489 5.000000000000047
  endloop
endfacet
facet normal -8.326672684688674e-16 -0.5299989400031795 0.8479983040050884
  outer loop
    vertex 90.55760148934333 17.3324615336949 7.500000000000071
    vertex 71.55760148934328 21.3324615336949 10.000000000000066
    vertex 67.55760148934334 17.3324615336949 7.500000000000048
  endloop
endfacet
facet normal -8.326672684688674e-16 -0.5299989400031795 0.8479983040050884
  outer loop
    vertex 71.55760148934328 21.3324615336949 10.000000000000066
    vertex 90.55760148934333 17.3324615336949 7.500000000000071
    vertex 114.55760148934333 21.3324615336949 10.0000000000001
  endloop
endfacet
facet normal -8.326672684688674e-16 -0.5299989400031795 0.8479983040050884
  outer loop
    vertex 114.55760148934333 21.3324615336949 10.0000000000001
    vertex 90.55760148934333 17.3324615336949 7.500000000000071
    vertex 98.55760148934334 17.3324615336949 7.500000000000071
  endloop
endfacet
facet normal -8.326672684688674e-16 -0.5299989400031795 0.8479983040050884
  outer loop
    vertex 114.55760148934333 21.3324615336949 10.0000000000001
    vertex 98.55760148934334 17.3324615336949 7.500000000000071
    vertex 118.55760148934333 17.3324615336949 7.500000000000105
  endloop
endfacet
facet normal -0.9701425001453323 -2.4235679783798843e-16 -0.24253562503633153
  outer loop
    vertex 115.05760148934333 51.05246153369489 7.0000000000000835
    vertex 115.55760148934333 49.65246153369489 5.00000000000007
    vertex 115.05760148934333 49.65246153369489 7.0000000000000835
  endloop
endfacet
facet normal -0.9701425001453323 -2.4235679783798843e-16 -0.24253562503633153
  outer loop
    vertex 115.55760148934333 49.65246153369489 5.00000000000007
    vertex 115.05760148934333 51.05246153369489 7.0000000000000835
    vertex 115.55760148934333 51.05246153369489 5.000000000000064
  endloop
endfacet
facet normal 0.5299989400031794 5.273559366969494e-16 0.8479983040050882
  outer loop
    vertex 118.55760148934333 17.3324615336949 7.500000000000105
    vertex 114.55760148934333 58.3324615336949 10.000000000000071
    vertex 114.55760148934333 21.3324615336949 10.0000000000001
  endloop
endfacet
facet normal 0.5299989400031794 5.273559366969494e-16 0.8479983040050882
  outer loop
    vertex 114.55760148934333 58.3324615336949 10.000000000000071
    vertex 118.55760148934333 17.3324615336949 7.500000000000105
    vertex 118.55760148934333 62.33246153369489 7.500000000000076
  endloop
endfacet
facet normal 2.359223927328458e-16 0.9701425001453321 -0.2425356250363327
  outer loop
    vertex 98.55760148934333 20.8324615336949 7.0000000000000835
    vertex 115.55760148934333 20.3324615336949 5.000000000000087
    vertex 98.55760148934333 20.3324615336949 5.000000000000081
  endloop
endfacet
facet normal 2.359223927328458e-16 0.9701425001453321 -0.2425356250363327
  outer loop
    vertex 115.55760148934333 20.3324615336949 5.000000000000087
    vertex 98.55760148934333 20.8324615336949 7.0000000000000835
    vertex 115.05760148934333 20.8324615336949 7.000000000000094
  endloop
endfacet
facet normal 9.860761315262648e-31 1.0 -1.0868620818153347e-15
  outer loop
    vertex 90.55760148934334 27.3324615336949 7.000000000000066
    vertex 98.55760148934333 27.33246153369489 -1.9999999999999203
    vertex 90.55760148934336 27.33246153369489 -1.9999999999999343
  endloop
endfacet
facet normal 9.860761315262648e-31 1.0 -1.0868620818153347e-15
  outer loop
    vertex 98.55760148934333 27.33246153369489 -1.9999999999999203
    vertex 90.55760148934334 27.3324615336949 7.000000000000066
    vertex 98.55760148934331 27.3324615336949 7.000000000000077
  endloop
endfacet
facet normal -1.0 0.0 -8.881784197001252e-16
  outer loop
    vertex 90.55760148934331 54.3324615336949 7.0000000000000435
    vertex 90.55760148934334 52.83246153369489 -1.999999999999957
    vertex 90.55760148934331 52.83246153369489 7.0000000000000435
  endloop
endfacet
facet normal -1.0 0.0 -8.881784197001252e-16
  outer loop
    vertex 90.55760148934334 52.83246153369489 -1.999999999999957
    vertex 90.55760148934331 54.3324615336949 7.0000000000000435
    vertex 90.55760148934331 54.33246153369488 3.0000000000000453
  endloop
endfacet
facet normal -1.0 0.0 -8.881784197001252e-16
  outer loop
    vertex 90.55760148934331 54.33246153369488 3.0000000000000453
    vertex 90.55760148934334 54.33246153369488 -1.9999999999999596
    vertex 90.55760148934334 52.83246153369489 -1.999999999999957
  endloop
endfacet
facet normal -1.0 0.0 -8.881784197001252e-16
  outer loop
    vertex 90.55760148934334 54.33246153369488 -1.9999999999999596
    vertex 90.55760148934331 54.33246153369488 3.0000000000000453
    vertex 90.55760148934333 56.33246153369489 1.5000000000000537
  endloop
endfacet
facet normal 1.0 3.5500941797739186e-31 1.5543122344752192e-15
  outer loop
    vertex 117.05760148934334 51.05246153369489 2.500000000000097
    vertex 117.05760148934333 49.65246153369489 5.0000000000000755
    vertex 117.05760148934334 49.65246153369489 2.500000000000097
  endloop
endfacet
facet normal 1.0 3.5500941797739186e-31 1.5543122344752192e-15
  outer loop
    vertex 117.05760148934333 49.65246153369489 5.0000000000000755
    vertex 117.05760148934334 51.05246153369489 2.500000000000097
    vertex 117.05760148934333 51.05246153369489 5.0000000000000755
  endloop
endfacet
facet normal 0.0 1.0 0.0
  outer loop
    vertex 112.05760148934333 51.05246153369489 7.0000000000000835
    vertex 117.05760148934334 51.05246153369489 2.500000000000097
    vertex 112.05760148934333 51.05246153369489 2.50000000000008
  endloop
endfacet
facet normal 0.0 1.0 0.0
  outer loop
    vertex 117.05760148934334 51.05246153369489 2.500000000000097
    vertex 112.05760148934333 51.05246153369489 7.0000000000000835
    vertex 115.55760148934333 51.05246153369489 5.000000000000064
  endloop
endfacet
facet normal 0.0 1.0 0.0
  outer loop
    vertex 115.55760148934333 51.05246153369489 5.000000000000064
    vertex 112.05760148934333 51.05246153369489 7.0000000000000835
    vertex 115.05760148934333 51.05246153369489 7.0000000000000835
  endloop
endfacet
facet normal 0.0 1.0 0.0
  outer loop
    vertex 117.05760148934333 51.05246153369489 5.0000000000000755
    vertex 117.05760148934334 51.05246153369489 2.500000000000097
    vertex 115.55760148934333 51.05246153369489 5.000000000000064
  endloop
endfacet
facet normal -3.6901905142717047e-16 -1.0 5.375561107356983e-15
  outer loop
    vertex 98.55760148934333 17.332461533694897 7.0000000000000835
    vertex 90.55760148934333 17.3324615336949 7.500000000000071
    vertex 90.55760148934334 17.3324615336949 7.000000000000072
  endloop
endfacet
facet normal -3.6901905142717047e-16 -1.0 5.375561107356983e-15
  outer loop
    vertex 90.55760148934333 17.3324615336949 7.500000000000071
    vertex 98.55760148934333 17.332461533694897 7.0000000000000835
    vertex 98.55760148934334 17.3324615336949 7.500000000000071
  endloop
endfacet
facet normal 1.0547118733938987e-15 -6.656858879624497e-16 -1.0
  outer loop
    vertex 71.05760148934333 58.9324615336949 7.000000000000027
    vertex 71.35760148934334 51.05246153369489 7.000000000000027
    vertex 71.05760148934334 20.8324615336949 7.000000000000049
  endloop
endfacet
facet normal 1.0547118733938987e-15 -6.656858879624497e-16 -1.0
  outer loop
    vertex 71.35760148934334 51.05246153369489 7.000000000000027
    vertex 71.05760148934333 58.9324615336949 7.000000000000027
    vertex 90.55760148934331 58.9324615336949 7.0000000000000435
  endloop
endfacet
facet normal 1.0547118733938987e-15 -6.656858879624497e-16 -1.0
  outer loop
    vertex 71.35760148934334 51.05246153369489 7.000000000000027
    vertex 90.55760148934331 58.9324615336949 7.0000000000000435
    vertex 76.35760148934332 51.05246153369489 7.000000000000038
  endloop
endfacet
facet normal 1.0547118733938987e-15 -6.656858879624497e-16 -1.0
  outer loop
    vertex 76.35760148934332 51.05246153369489 7.000000000000038
    vertex 90.55760148934331 58.9324615336949 7.0000000000000435
    vertex 76.35760148934332 49.65246153369489 7.000000000000049
  endloop
endfacet
facet normal 1.0547118733938987e-15 -6.656858879624497e-16 -1.0
  outer loop
    vertex 76.35760148934332 49.65246153369489 7.000000000000049
    vertex 90.55760148934331 58.9324615336949 7.0000000000000435
    vertex 79.23581862088706 43.99445538735671 7.00000000000006
  endloop
endfacet
facet normal 1.0547118733938987e-15 -6.656858879624497e-16 -1.0
  outer loop
    vertex 76.35760148934332 49.65246153369489 7.000000000000049
    vertex 79.23581862088706 43.99445538735671 7.00000000000006
    vertex 78.30587652616046 42.73407917064895 7.00000000000006
  endloop
endfacet
facet normal 1.0547118733938987e-15 -6.656858879624497e-16 -1.0
  outer loop
    vertex 76.35760148934332 49.65246153369489 7.000000000000049
    vertex 78.30587652616046 42.73407917064895 7.00000000000006
    vertex 77.73383080878891 41.27596250713263 7.000000000000072
  endloop
endfacet
facet normal 1.0547118733938987e-15 -6.656858879624497e-16 -1.0
  outer loop
    vertex 76.35760148934332 49.65246153369489 7.000000000000049
    vertex 77.73383080878891 41.27596250713263 7.000000000000072
    vertex 77.55866543906104 39.719473637774676 7.000000000000072
  endloop
endfacet
facet normal 1.0547118733938987e-15 -6.656858879624497e-16 -1.0
  outer loop
    vertex 79.23581862088706 43.99445538735671 7.00000000000006
    vertex 90.55760148934331 58.9324615336949 7.0000000000000435
    vertex 80.46028307601507 44.97119860095747 7.00000000000006
  endloop
endfacet
facet normal 1.0547118733938987e-15 -6.656858879624497e-16 -1.0
  outer loop
    vertex 80.46028307601507 44.97119860095747 7.00000000000006
    vertex 90.55760148934331 58.9324615336949 7.0000000000000435
    vertex 81.8958246624507 45.597745375588815 7.000000000000072
  endloop
endfacet
facet normal 1.0547118733938987e-15 -6.656858879624497e-16 -1.0
  outer loop
    vertex 81.8958246624507 45.597745375588815 7.000000000000072
    vertex 90.55760148934331 58.9324615336949 7.0000000000000435
    vertex 83.44461359342301 45.83139758397712 7.000000000000072
  endloop
endfacet
facet normal 1.0547118733938987e-15 -6.656858879624497e-16 -1.0
  outer loop
    vertex 83.44461359342301 45.83139758397712 7.000000000000072
    vertex 90.55760148934331 58.9324615336949 7.0000000000000435
    vertex 85.00110246278096 45.65623221424925 7.000000000000072
  endloop
endfacet
facet normal 1.0547118733938987e-15 -6.656858879624497e-16 -1.0
  outer loop
    vertex 85.00110246278096 45.65623221424925 7.000000000000072
    vertex 90.55760148934331 58.9324615336949 7.0000000000000435
    vertex 86.45921912629728 45.0841864968777 7.000000000000072
  endloop
endfacet
facet normal 1.0547118733938987e-15 -6.656858879624497e-16 -1.0
  outer loop
    vertex 86.45921912629728 45.0841864968777 7.000000000000072
    vertex 90.55760148934331 58.9324615336949 7.0000000000000435
    vertex 87.71959534300504 44.1542444021511 7.000000000000072
  endloop
endfacet
facet normal 1.0547118733938987e-15 -6.656858879624497e-16 -1.0
  outer loop
    vertex 87.71959534300504 44.1542444021511 7.000000000000072
    vertex 90.55760148934331 58.9324615336949 7.0000000000000435
    vertex 88.69633855660581 42.929779947023086 7.0000000000000835
  endloop
endfacet
facet normal 1.0547118733938987e-15 -6.656858879624497e-16 -1.0
  outer loop
    vertex 88.69633855660581 42.929779947023086 7.0000000000000835
    vertex 90.55760148934331 58.9324615336949 7.0000000000000435
    vertex 89.32288533123715 41.49423836058745 7.0000000000000835
  endloop
endfacet
facet normal 1.0547118733938987e-15 -6.656858879624497e-16 -1.0
  outer loop
    vertex 89.32288533123715 41.49423836058745 7.0000000000000835
    vertex 90.55760148934331 58.9324615336949 7.0000000000000435
    vertex 89.55653753962545 39.945449429615145 7.0000000000000835
  endloop
endfacet
facet normal 1.0547118733938987e-15 -6.656858879624497e-16 -1.0
  outer loop
    vertex 90.55760148934333 62.33246153369489 7.000000000000038
    vertex 90.55760148934331 54.3324615336949 7.0000000000000435
    vertex 90.55760148934331 58.9324615336949 7.0000000000000435
  endloop
endfacet
facet normal 1.0547118733938987e-15 -6.656858879624497e-16 -1.0
  outer loop
    vertex 90.55760148934331 54.3324615336949 7.0000000000000435
    vertex 90.55760148934333 62.33246153369489 7.000000000000038
    vertex 98.5576014893433 54.3324615336949 7.000000000000055
  endloop
endfacet
facet normal 1.0547118733938987e-15 -6.656858879624497e-16 -1.0
  outer loop
    vertex 98.5576014893433 54.3324615336949 7.000000000000055
    vertex 90.55760148934333 62.33246153369489 7.000000000000038
    vertex 98.5576014893433 62.33246153369489 7.000000000000049
  endloop
endfacet
facet normal 1.0547118733938987e-15 -6.656858879624497e-16 -1.0
  outer loop
    vertex 98.5576014893433 54.3324615336949 7.000000000000055
    vertex 98.5576014893433 62.33246153369489 7.000000000000049
    vertex 98.5576014893433 58.9324615336949 7.000000000000055
  endloop
endfacet
facet normal 1.0547118733938987e-15 -6.656858879624497e-16 -1.0
  outer loop
    vertex 98.5576014893433 54.3324615336949 7.000000000000055
    vertex 98.5576014893433 58.9324615336949 7.000000000000055
    vertex 115.05760148934333 58.9324615336949 7.00000000000006
  endloop
endfacet
facet normal 1.0547118733938987e-15 -6.656858879624497e-16 -1.0
  outer loop
    vertex 98.5576014893433 54.3324615336949 7.000000000000055
    vertex 115.05760148934333 58.9324615336949 7.00000000000006
    vertex 98.5576014893433 52.83246153369489 7.00000000000006
  endloop
endfacet
facet normal 1.0547118733938987e-15 -6.656858879624497e-16 -1.0
  outer loop
    vertex 98.5576014893433 52.83246153369489 7.00000000000006
    vertex 115.05760148934333 58.9324615336949 7.00000000000006
    vertex 98.55760148934331 27.3324615336949 7.000000000000077
  endloop
endfacet
facet normal 1.0547118733938987e-15 -6.656858879624497e-16 -1.0
  outer loop
    vertex 98.55760148934331 27.3324615336949 7.000000000000077
    vertex 115.05760148934333 58.9324615336949 7.00000000000006
    vertex 98.55760148934331 25.832461533694904 7.0000000000000835
  endloop
endfacet
facet normal 1.0547118733938987e-15 -6.656858879624497e-16 -1.0
  outer loop
    vertex 98.55760148934331 25.832461533694904 7.0000000000000835
    vertex 115.05760148934333 58.9324615336949 7.00000000000006
    vertex 98.55760148934333 20.8324615336949 7.0000000000000835
  endloop
endfacet
facet normal 1.0547118733938987e-15 -6.656858879624497e-16 -1.0
  outer loop
    vertex 98.55760148934333 20.8324615336949 7.0000000000000835
    vertex 115.05760148934333 58.9324615336949 7.00000000000006
    vertex 112.05760148934333 51.05246153369489 7.0000000000000835
  endloop
endfacet
facet normal 1.0547118733938987e-15 -6.656858879624497e-16 -1.0
  outer loop
    vertex 112.05760148934333 51.05246153369489 7.0000000000000835
    vertex 115.05760148934333 58.9324615336949 7.00000000000006
    vertex 115.05760148934333 51.05246153369489 7.0000000000000835
  endloop
endfacet
facet normal 1.0547118733938987e-15 -6.656858879624497e-16 -1.0
  outer loop
    vertex 98.55760148934333 20.8324615336949 7.0000000000000835
    vertex 112.05760148934333 49.65246153369489 7.0000000000000835
    vertex 115.05760148934333 20.8324615336949 7.000000000000094
  endloop
endfacet
facet normal 1.0547118733938987e-15 -6.656858879624497e-16 -1.0
  outer loop
    vertex 112.05760148934333 49.65246153369489 7.0000000000000835
    vertex 98.55760148934333 20.8324615336949 7.0000000000000835
    vertex 112.05760148934333 51.05246153369489 7.0000000000000835
  endloop
endfacet
facet normal 1.0547118733938987e-15 -6.656858879624497e-16 -1.0
  outer loop
    vertex 115.05760148934333 20.8324615336949 7.000000000000094
    vertex 112.05760148934333 49.65246153369489 7.0000000000000835
    vertex 115.05760148934333 49.65246153369489 7.0000000000000835
  endloop
endfacet
facet normal 1.0547118733938987e-15 -6.656858879624497e-16 -1.0
  outer loop
    vertex 71.05760148934334 20.8324615336949 7.000000000000049
    vertex 78.41886442208069 36.735143120366736 7.000000000000072
    vertex 90.55760148934334 20.8324615336949 7.000000000000066
  endloop
endfacet
facet normal 1.0547118733938987e-15 -6.656858879624497e-16 -1.0
  outer loop
    vertex 78.41886442208069 36.735143120366736 7.000000000000072
    vertex 71.05760148934334 20.8324615336949 7.000000000000049
    vertex 71.35760148934334 49.65246153369489 7.000000000000027
  endloop
endfacet
facet normal 1.0547118733938987e-15 -6.656858879624497e-16 -1.0
  outer loop
    vertex 71.35760148934334 49.65246153369489 7.000000000000027
    vertex 71.05760148934334 20.8324615336949 7.000000000000049
    vertex 71.35760148934334 51.05246153369489 7.000000000000027
  endloop
endfacet
facet normal 1.0547118733938987e-15 -6.656858879624497e-16 -1.0
  outer loop
    vertex 78.41886442208069 36.735143120366736 7.000000000000072
    vertex 71.35760148934334 49.65246153369489 7.000000000000027
    vertex 77.79231764744935 38.17068470680237 7.000000000000072
  endloop
endfacet
facet normal 1.0547118733938987e-15 -6.656858879624497e-16 -1.0
  outer loop
    vertex 77.79231764744935 38.17068470680237 7.000000000000072
    vertex 71.35760148934334 49.65246153369489 7.000000000000027
    vertex 77.55866543906104 39.719473637774676 7.000000000000072
  endloop
endfacet
facet normal 1.0547118733938987e-15 -6.656858879624497e-16 -1.0
  outer loop
    vertex 77.55866543906104 39.719473637774676 7.000000000000072
    vertex 71.35760148934334 49.65246153369489 7.000000000000027
    vertex 76.35760148934332 49.65246153369489 7.000000000000049
  endloop
endfacet
facet normal 1.0547118733938987e-15 -6.656858879624497e-16 -1.0
  outer loop
    vertex 90.55760148934334 20.8324615336949 7.000000000000066
    vertex 78.41886442208069 36.735143120366736 7.000000000000072
    vertex 79.39560763568146 35.51067866523872 7.000000000000072
  endloop
endfacet
facet normal 1.0547118733938987e-15 -6.656858879624497e-16 -1.0
  outer loop
    vertex 90.55760148934334 20.8324615336949 7.000000000000066
    vertex 79.39560763568146 35.51067866523872 7.000000000000072
    vertex 80.65598385238921 34.58073657051212 7.000000000000072
  endloop
endfacet
facet normal 1.0547118733938987e-15 -6.656858879624497e-16 -1.0
  outer loop
    vertex 90.55760148934334 20.8324615336949 7.000000000000066
    vertex 80.65598385238921 34.58073657051212 7.000000000000072
    vertex 82.11410051590553 34.00869085314057 7.0000000000000835
  endloop
endfacet
facet normal 1.0547118733938987e-15 -6.656858879624497e-16 -1.0
  outer loop
    vertex 90.55760148934334 20.8324615336949 7.000000000000066
    vertex 82.11410051590553 34.00869085314057 7.0000000000000835
    vertex 83.67058938526348 33.8335254834127 7.0000000000000835
  endloop
endfacet
facet normal 1.0547118733938987e-15 -6.656858879624497e-16 -1.0
  outer loop
    vertex 90.55760148934334 20.8324615336949 7.000000000000066
    vertex 83.67058938526348 33.8335254834127 7.0000000000000835
    vertex 85.21937831623579 34.06717769180101 7.0000000000000835
  endloop
endfacet
facet normal 1.0547118733938987e-15 -6.656858879624497e-16 -1.0
  outer loop
    vertex 90.55760148934334 20.8324615336949 7.000000000000066
    vertex 85.21937831623579 34.06717769180101 7.0000000000000835
    vertex 86.65491990267142 34.69372446643235 7.0000000000000835
  endloop
endfacet
facet normal 1.0547118733938987e-15 -6.656858879624497e-16 -1.0
  outer loop
    vertex 90.55760148934334 20.8324615336949 7.000000000000066
    vertex 86.65491990267142 34.69372446643235 7.0000000000000835
    vertex 87.87938435779944 35.67046768003311 7.0000000000000835
  endloop
endfacet
facet normal 1.0547118733938987e-15 -6.656858879624497e-16 -1.0
  outer loop
    vertex 90.55760148934334 20.8324615336949 7.000000000000066
    vertex 87.87938435779944 35.67046768003311 7.0000000000000835
    vertex 88.80932645252604 36.93084389674088 7.0000000000000835
  endloop
endfacet
facet normal 1.0547118733938987e-15 -6.656858879624497e-16 -1.0
  outer loop
    vertex 90.55760148934334 20.8324615336949 7.000000000000066
    vertex 88.80932645252604 36.93084389674088 7.0000000000000835
    vertex 89.38137216989759 38.38896056025719 7.0000000000000835
  endloop
endfacet
facet normal 1.0547118733938987e-15 -6.656858879624497e-16 -1.0
  outer loop
    vertex 90.55760148934334 20.8324615336949 7.000000000000066
    vertex 89.38137216989759 38.38896056025719 7.0000000000000835
    vertex 89.55653753962545 39.945449429615145 7.0000000000000835
  endloop
endfacet
facet normal 1.0547118733938987e-15 -6.656858879624497e-16 -1.0
  outer loop
    vertex 90.55760148934334 20.8324615336949 7.000000000000066
    vertex 89.55653753962545 39.945449429615145 7.0000000000000835
    vertex 90.55760148934331 52.83246153369489 7.0000000000000435
  endloop
endfacet
facet normal 1.0547118733938987e-15 -6.656858879624497e-16 -1.0
  outer loop
    vertex 90.55760148934331 52.83246153369489 7.0000000000000435
    vertex 89.55653753962545 39.945449429615145 7.0000000000000835
    vertex 90.55760148934331 58.9324615336949 7.0000000000000435
  endloop
endfacet
facet normal 1.0547118733938987e-15 -6.656858879624497e-16 -1.0
  outer loop
    vertex 90.55760148934331 52.83246153369489 7.0000000000000435
    vertex 90.55760148934331 58.9324615336949 7.0000000000000435
    vertex 90.55760148934331 54.3324615336949 7.0000000000000435
  endloop
endfacet
facet normal 1.0547118733938987e-15 -6.656858879624497e-16 -1.0
  outer loop
    vertex 90.55760148934334 20.8324615336949 7.000000000000066
    vertex 90.55760148934331 52.83246153369489 7.0000000000000435
    vertex 90.55760148934334 27.3324615336949 7.000000000000066
  endloop
endfacet
facet normal 1.0547118733938987e-15 -6.656858879624497e-16 -1.0
  outer loop
    vertex 90.55760148934334 20.8324615336949 7.000000000000066
    vertex 90.55760148934334 27.3324615336949 7.000000000000066
    vertex 90.55760148934334 25.832461533694904 7.000000000000066
  endloop
endfacet
facet normal 1.0547118733938987e-15 -6.656858879624497e-16 -1.0
  outer loop
    vertex 90.55760148934334 20.8324615336949 7.000000000000066
    vertex 90.55760148934334 25.832461533694904 7.000000000000066
    vertex 98.55760148934331 25.832461533694904 7.0000000000000835
  endloop
endfacet
facet normal 1.0547118733938987e-15 -6.656858879624497e-16 -1.0
  outer loop
    vertex 90.55760148934334 20.8324615336949 7.000000000000066
    vertex 98.55760148934331 25.832461533694904 7.0000000000000835
    vertex 90.55760148934334 17.3324615336949 7.000000000000072
  endloop
endfacet
facet normal 1.0547118733938987e-15 -6.656858879624497e-16 -1.0
  outer loop
    vertex 90.55760148934334 17.3324615336949 7.000000000000072
    vertex 98.55760148934331 25.832461533694904 7.0000000000000835
    vertex 98.55760148934333 17.332461533694897 7.0000000000000835
  endloop
endfacet
facet normal 1.0547118733938987e-15 -6.656858879624497e-16 -1.0
  outer loop
    vertex 98.55760148934333 17.332461533694897 7.0000000000000835
    vertex 98.55760148934331 25.832461533694904 7.0000000000000835
    vertex 98.55760148934333 20.8324615336949 7.0000000000000835
  endloop
endfacet
facet normal 1.0547118733938987e-15 -6.656858879624497e-16 -1.0
  outer loop
    vertex 98.5576014893433 52.83246153369489 7.00000000000006
    vertex 90.55760148934334 27.3324615336949 7.000000000000066
    vertex 90.55760148934331 52.83246153369489 7.0000000000000435
  endloop
endfacet
facet normal 1.0547118733938987e-15 -6.656858879624497e-16 -1.0
  outer loop
    vertex 90.55760148934334 27.3324615336949 7.000000000000066
    vertex 98.5576014893433 52.83246153369489 7.00000000000006
    vertex 98.55760148934331 27.3324615336949 7.000000000000077
  endloop
endfacet
facet normal -1.0 4.576293278614814e-32 -8.88178419700125e-16
  outer loop
    vertex 112.05760148934333 51.05246153369489 7.0000000000000835
    vertex 112.05760148934333 49.65246153369489 2.50000000000008
    vertex 112.05760148934333 49.65246153369489 7.0000000000000835
  endloop
endfacet
facet normal -1.0 4.576293278614814e-32 -8.88178419700125e-16
  outer loop
    vertex 112.05760148934333 49.65246153369489 2.50000000000008
    vertex 112.05760148934333 51.05246153369489 7.0000000000000835
    vertex 112.05760148934333 51.05246153369489 2.50000000000008
  endloop
endfacet
facet normal 1.887379141862766e-15 -4.24883342794606e-15 -1.0
  outer loop
    vertex 76.35760148934332 51.052461533694874 2.500000000000035
    vertex 71.35760148934334 49.652461533694876 2.500000000000035
    vertex 71.35760148934334 51.052461533694874 2.500000000000035
  endloop
endfacet
facet normal 1.887379141862766e-15 -4.24883342794606e-15 -1.0
  outer loop
    vertex 71.35760148934334 49.652461533694876 2.500000000000035
    vertex 76.35760148934332 51.052461533694874 2.500000000000035
    vertex 76.35760148934332 49.652461533694876 2.500000000000046
  endloop
endfacet
facet normal -1.0 -6.894948539779656e-31 -1.887379141862766e-15
  outer loop
    vertex 71.35760148934334 49.65246153369489 7.000000000000027
    vertex 71.35760148934334 51.052461533694874 2.500000000000035
    vertex 71.35760148934334 49.652461533694876 2.500000000000035
  endloop
endfacet
facet normal -1.0 -6.894948539779656e-31 -1.887379141862766e-15
  outer loop
    vertex 71.35760148934334 51.052461533694874 2.500000000000035
    vertex 71.35760148934334 49.65246153369489 7.000000000000027
    vertex 71.35760148934334 51.05246153369489 7.000000000000027
  endloop
endfacet
facet normal 3.275157922644211e-15 7.006127906951313e-16 -1.0
  outer loop
    vertex 117.05760148934334 51.05246153369489 2.500000000000097
    vertex 112.05760148934333 49.65246153369489 2.50000000000008
    vertex 112.05760148934333 51.05246153369489 2.50000000000008
  endloop
endfacet
facet normal 3.275157922644211e-15 7.006127906951313e-16 -1.0
  outer loop
    vertex 112.05760148934333 49.65246153369489 2.50000000000008
    vertex 117.05760148934334 51.05246153369489 2.500000000000097
    vertex 117.05760148934334 49.65246153369489 2.500000000000097
  endloop
endfacet
facet normal -1.0 0.0 -8.881784197001252e-16
  outer loop
    vertex 67.55760148934333 62.33246153369489 7.500000000000026
    vertex 67.55760148934334 17.3324615336949 5.000000000000053
    vertex 67.55760148934334 17.3324615336949 7.500000000000048
  endloop
endfacet
facet normal -1.0 0.0 -8.881784197001252e-16
  outer loop
    vertex 67.55760148934334 17.3324615336949 5.000000000000053
    vertex 67.55760148934333 62.33246153369489 7.500000000000026
    vertex 67.55760148934333 62.33246153369489 5.00000000000003
  endloop
endfacet
facet normal 1.0 0.0 8.881784197001252e-16
  outer loop
    vertex 118.55760148934333 62.33246153369489 5.00000000000007
    vertex 118.55760148934333 17.3324615336949 7.500000000000105
    vertex 118.55760148934333 17.3324615336949 5.000000000000098
  endloop
endfacet
facet normal 1.0 0.0 8.881784197001252e-16
  outer loop
    vertex 118.55760148934333 17.3324615336949 7.500000000000105
    vertex 118.55760148934333 62.33246153369489 5.00000000000007
    vertex 118.55760148934333 62.33246153369489 7.500000000000076
  endloop
endfacet
facet normal 2.7610131682735413e-30 1.0 -2.8199664825478994e-15
  outer loop
    vertex 90.55760148934331 54.3324615336949 7.0000000000000435
    vertex 98.55760148934333 54.33246153369488 3.0000000000000564
    vertex 90.55760148934331 54.33246153369488 3.0000000000000453
  endloop
endfacet
facet normal 2.7610131682735413e-30 1.0 -2.8199664825478994e-15
  outer loop
    vertex 98.55760148934333 54.33246153369488 3.0000000000000564
    vertex 90.55760148934331 54.3324615336949 7.0000000000000435
    vertex 98.5576014893433 54.3324615336949 7.000000000000055
  endloop
endfacet
facet normal -1.0 0.0 -8.881784197001252e-16
  outer loop
    vertex 90.55760148934334 27.3324615336949 7.000000000000066
    vertex 90.5576014893433 25.832461533694904 3.000000000000079
    vertex 90.55760148934334 25.832461533694904 7.000000000000066
  endloop
endfacet
facet normal -1.0 0.0 -8.881784197001252e-16
  outer loop
    vertex 90.5576014893433 25.832461533694904 3.000000000000079
    vertex 90.55760148934334 27.3324615336949 7.000000000000066
    vertex 90.55760148934336 27.33246153369489 -1.9999999999999343
  endloop
endfacet
facet normal -1.0 0.0 -8.881784197001252e-16
  outer loop
    vertex 90.5576014893433 25.832461533694904 3.000000000000079
    vertex 90.55760148934336 25.832461533694897 -1.9999999999999343
    vertex 90.55760148934331 23.8324615336949 1.5000000000000762
  endloop
endfacet
facet normal -1.0 0.0 -8.881784197001252e-16
  outer loop
    vertex 90.55760148934336 25.832461533694897 -1.9999999999999343
    vertex 90.5576014893433 25.832461533694904 3.000000000000079
    vertex 90.55760148934336 27.33246153369489 -1.9999999999999343
  endloop
endfacet
facet normal 8.881784197001252e-16 -9.39988827515964e-16 -1.0
  outer loop
    vertex 98.55760148934333 54.33246153369488 -1.9999999999999398
    vertex 90.55760148934334 52.83246153369489 -1.999999999999957
    vertex 90.55760148934334 54.33246153369488 -1.9999999999999596
  endloop
endfacet
facet normal 8.881784197001252e-16 -9.39988827515964e-16 -1.0
  outer loop
    vertex 90.55760148934334 52.83246153369489 -1.999999999999957
    vertex 98.55760148934333 54.33246153369488 -1.9999999999999398
    vertex 98.55760148934333 52.83246153369489 -1.9999999999999398
  endloop
endfacet
facet normal -6.661338147750939e-16 0.5999999999999989 0.8000000000000009
  outer loop
    vertex 98.55760148934333 54.33246153369488 3.0000000000000564
    vertex 90.55760148934333 56.33246153369489 1.5000000000000537
    vertex 90.55760148934331 54.33246153369488 3.0000000000000453
  endloop
endfacet
facet normal -6.661338147750939e-16 0.5999999999999989 0.8000000000000009
  outer loop
    vertex 90.55760148934333 56.33246153369489 1.5000000000000537
    vertex 98.55760148934333 54.33246153369488 3.0000000000000564
    vertex 98.55760148934334 56.33246153369489 1.5000000000000593
  endloop
endfacet
facet normal 1.0 6.179329767419237e-17 8.881784197001252e-16
  outer loop
    vertex 98.55760148934334 56.33246153369489 1.5000000000000593
    vertex 98.55760148934333 54.33246153369488 3.0000000000000564
    vertex 98.55760148934333 54.33246153369488 -1.9999999999999398
  endloop
endfacet
facet normal 1.0 6.179329767419237e-17 8.881784197001252e-16
  outer loop
    vertex 98.55760148934333 54.33246153369488 -1.9999999999999398
    vertex 98.5576014893433 52.83246153369489 7.00000000000006
    vertex 98.55760148934333 52.83246153369489 -1.9999999999999398
  endloop
endfacet
facet normal 1.0 6.179329767419237e-17 8.881784197001252e-16
  outer loop
    vertex 98.5576014893433 52.83246153369489 7.00000000000006
    vertex 98.55760148934333 54.33246153369488 -1.9999999999999398
    vertex 98.55760148934333 54.33246153369488 3.0000000000000564
  endloop
endfacet
facet normal 1.0 6.179329767419237e-17 8.881784197001252e-16
  outer loop
    vertex 98.5576014893433 52.83246153369489 7.00000000000006
    vertex 98.55760148934333 54.33246153369488 3.0000000000000564
    vertex 98.5576014893433 54.3324615336949 7.000000000000055
  endloop
endfacet
facet normal 0.0 -1.0 0.0
  outer loop
    vertex 117.05760148934333 49.65246153369489 5.0000000000000755
    vertex 115.55760148934333 49.65246153369489 5.00000000000007
    vertex 117.05760148934334 49.65246153369489 2.500000000000097
  endloop
endfacet
facet normal 0.0 -1.0 0.0
  outer loop
    vertex 117.05760148934334 49.65246153369489 2.500000000000097
    vertex 112.05760148934333 49.65246153369489 7.0000000000000835
    vertex 112.05760148934333 49.65246153369489 2.50000000000008
  endloop
endfacet
facet normal 0.0 -1.0 0.0
  outer loop
    vertex 112.05760148934333 49.65246153369489 7.0000000000000835
    vertex 117.05760148934334 49.65246153369489 2.500000000000097
    vertex 115.55760148934333 49.65246153369489 5.00000000000007
  endloop
endfacet
facet normal 0.0 -1.0 0.0
  outer loop
    vertex 112.05760148934333 49.65246153369489 7.0000000000000835
    vertex 115.55760148934333 49.65246153369489 5.00000000000007
    vertex 115.05760148934333 49.65246153369489 7.0000000000000835
  endloop
endfacet
facet normal -8.326672684688674e-16 0.5299989400031803 0.8479983040050878
  outer loop
    vertex 71.55760148934328 58.3324615336949 10.000000000000032
    vertex 90.55760148934334 62.33246153369489 7.500000000000043
    vertex 67.55760148934333 62.33246153369489 7.500000000000026
  endloop
endfacet
facet normal -8.326672684688674e-16 0.5299989400031803 0.8479983040050878
  outer loop
    vertex 90.55760148934334 62.33246153369489 7.500000000000043
    vertex 71.55760148934328 58.3324615336949 10.000000000000032
    vertex 114.55760148934333 58.3324615336949 10.000000000000071
  endloop
endfacet
facet normal -8.326672684688674e-16 0.5299989400031803 0.8479983040050878
  outer loop
    vertex 90.55760148934334 62.33246153369489 7.500000000000043
    vertex 114.55760148934333 58.3324615336949 10.000000000000071
    vertex 98.55760148934333 62.33246153369489 7.500000000000048
  endloop
endfacet
facet normal -8.326672684688674e-16 0.5299989400031803 0.8479983040050878
  outer loop
    vertex 98.55760148934333 62.33246153369489 7.500000000000048
    vertex 114.55760148934333 58.3324615336949 10.000000000000071
    vertex 118.55760148934333 62.33246153369489 7.500000000000076
  endloop
endfacet
facet normal 4.163336342344337e-16 0.8682431421244587 -0.4961389383568349
  outer loop
    vertex 90.55760148934333 56.33246153369489 1.5000000000000537
    vertex 98.55760148934333 54.33246153369488 -1.9999999999999398
    vertex 90.55760148934334 54.33246153369488 -1.9999999999999596
  endloop
endfacet
facet normal 4.163336342344337e-16 0.8682431421244587 -0.4961389383568349
  outer loop
    vertex 98.55760148934333 54.33246153369488 -1.9999999999999398
    vertex 90.55760148934333 56.33246153369489 1.5000000000000537
    vertex 98.55760148934334 56.33246153369489 1.5000000000000593
  endloop
endfacet
facet normal -3.454593886194872e-16 -1.0 1.7026212724817491e-15
  outer loop
    vertex 90.55760148934333 17.33246153369489 5.0000000000000755
    vertex 67.55760148934334 17.3324615336949 7.500000000000048
    vertex 67.55760148934334 17.3324615336949 5.000000000000053
  endloop
endfacet
facet normal -3.454593886194872e-16 -1.0 1.7026212724817491e-15
  outer loop
    vertex 67.55760148934334 17.3324615336949 7.500000000000048
    vertex 90.55760148934333 17.33246153369489 5.0000000000000755
    vertex 90.55760148934334 17.3324615336949 7.000000000000072
  endloop
endfacet
facet normal -3.454593886194872e-16 -1.0 1.7026212724817491e-15
  outer loop
    vertex 67.55760148934334 17.3324615336949 7.500000000000048
    vertex 90.55760148934334 17.3324615336949 7.000000000000072
    vertex 90.55760148934333 17.3324615336949 7.500000000000071
  endloop
endfacet
facet normal 0.0 1.0 0.0
  outer loop
    vertex 90.55760148934334 62.33246153369489 7.500000000000043
    vertex 98.5576014893433 62.33246153369489 7.000000000000049
    vertex 90.55760148934333 62.33246153369489 7.000000000000038
  endloop
endfacet
facet normal 0.0 1.0 0.0
  outer loop
    vertex 98.5576014893433 62.33246153369489 7.000000000000049
    vertex 90.55760148934334 62.33246153369489 7.500000000000043
    vertex 98.55760148934333 62.33246153369489 7.500000000000048
  endloop
endfacet
facet normal 1.942890293094024e-16 -0.9805806756909203 -0.19611613513818354
  outer loop
    vertex 115.55760148934333 59.3324615336949 5.000000000000064
    vertex 98.5576014893433 58.9324615336949 7.000000000000055
    vertex 98.55760148934333 59.3324615336949 5.000000000000047
  endloop
endfacet
facet normal 1.942890293094024e-16 -0.9805806756909203 -0.19611613513818354
  outer loop
    vertex 98.5576014893433 58.9324615336949 7.000000000000055
    vertex 115.55760148934333 59.3324615336949 5.000000000000064
    vertex 115.05760148934333 58.9324615336949 7.00000000000006
  endloop
endfacet
facet normal -8.881784197001252e-16 7.240454482217576e-16 1.0
  outer loop
    vertex 71.55760148934328 21.3324615336949 10.000000000000066
    vertex 77.79231764744938 38.17068470680236 10.000000000000052
    vertex 71.55760148934328 58.3324615336949 10.000000000000032
  endloop
endfacet
facet normal -8.881784197001252e-16 7.240454482217576e-16 1.0
  outer loop
    vertex 77.79231764744938 38.17068470680236 10.000000000000052
    vertex 71.55760148934328 21.3324615336949 10.000000000000066
    vertex 78.41886442208072 36.73514312036673 10.000000000000052
  endloop
endfacet
facet normal -8.881784197001252e-16 7.240454482217576e-16 1.0
  outer loop
    vertex 78.41886442208072 36.73514312036673 10.000000000000052
    vertex 71.55760148934328 21.3324615336949 10.000000000000066
    vertex 79.39560763568149 35.510678665238714 10.000000000000055
  endloop
endfacet
facet normal -8.881784197001252e-16 7.240454482217576e-16 1.0
  outer loop
    vertex 79.39560763568149 35.510678665238714 10.000000000000055
    vertex 71.55760148934328 21.3324615336949 10.000000000000066
    vertex 80.65598385238926 34.58073657051211 10.000000000000057
  endloop
endfacet
facet normal -8.881784197001252e-16 7.240454482217576e-16 1.0
  outer loop
    vertex 80.65598385238926 34.58073657051211 10.000000000000057
    vertex 71.55760148934328 21.3324615336949 10.000000000000066
    vertex 82.11410051590556 34.008690853140564 10.000000000000059
  endloop
endfacet
facet normal -8.881784197001252e-16 7.240454482217576e-16 1.0
  outer loop
    vertex 82.11410051590556 34.008690853140564 10.000000000000059
    vertex 71.55760148934328 21.3324615336949 10.000000000000066
    vertex 114.55760148934333 21.3324615336949 10.0000000000001
  endloop
endfacet
facet normal -8.881784197001252e-16 7.240454482217576e-16 1.0
  outer loop
    vertex 71.55760148934328 58.3324615336949 10.000000000000032
    vertex 77.79231764744938 38.17068470680236 10.000000000000052
    vertex 77.55866543906107 39.71947363777467 10.00000000000005
  endloop
endfacet
facet normal -8.881784197001252e-16 7.240454482217576e-16 1.0
  outer loop
    vertex 82.11410051590556 34.008690853140564 10.000000000000059
    vertex 114.55760148934333 21.3324615336949 10.0000000000001
    vertex 83.67058938526351 33.83352548341269 10.000000000000059
  endloop
endfacet
facet normal -8.881784197001252e-16 7.240454482217576e-16 1.0
  outer loop
    vertex 83.67058938526351 33.83352548341269 10.000000000000059
    vertex 114.55760148934333 21.3324615336949 10.0000000000001
    vertex 85.21937831623582 34.06717769180099 10.00000000000006
  endloop
endfacet
facet normal -8.881784197001252e-16 7.240454482217576e-16 1.0
  outer loop
    vertex 85.21937831623582 34.06717769180099 10.00000000000006
    vertex 114.55760148934333 21.3324615336949 10.0000000000001
    vertex 86.65491990267145 34.69372446643234 10.000000000000062
  endloop
endfacet
facet normal -8.881784197001252e-16 7.240454482217576e-16 1.0
  outer loop
    vertex 86.65491990267145 34.69372446643234 10.000000000000062
    vertex 114.55760148934333 21.3324615336949 10.0000000000001
    vertex 87.87938435779948 35.670467680033106 10.000000000000062
  endloop
endfacet
facet normal -8.881784197001252e-16 7.240454482217576e-16 1.0
  outer loop
    vertex 87.87938435779948 35.670467680033106 10.000000000000062
    vertex 114.55760148934333 21.3324615336949 10.0000000000001
    vertex 88.80932645252607 36.93084389674087 10.000000000000062
  endloop
endfacet
facet normal -8.881784197001252e-16 7.240454482217576e-16 1.0
  outer loop
    vertex 88.80932645252607 36.93084389674087 10.000000000000062
    vertex 114.55760148934333 21.3324615336949 10.0000000000001
    vertex 89.38137216989763 38.38896056025718 10.00000000000006
  endloop
endfacet
facet normal -8.881784197001252e-16 7.240454482217576e-16 1.0
  outer loop
    vertex 89.38137216989763 38.38896056025718 10.00000000000006
    vertex 114.55760148934333 21.3324615336949 10.0000000000001
    vertex 89.55653753962548 39.94544942961513 10.00000000000006
  endloop
endfacet
facet normal -8.881784197001252e-16 7.240454482217576e-16 1.0
  outer loop
    vertex 71.55760148934328 58.3324615336949 10.000000000000032
    vertex 81.89582466245075 45.59774537558881 10.00000000000005
    vertex 114.55760148934333 58.3324615336949 10.000000000000071
  endloop
endfacet
facet normal -8.881784197001252e-16 7.240454482217576e-16 1.0
  outer loop
    vertex 81.89582466245075 45.59774537558881 10.00000000000005
    vertex 71.55760148934328 58.3324615336949 10.000000000000032
    vertex 80.46028307601512 44.97119860095746 10.000000000000048
  endloop
endfacet
facet normal -8.881784197001252e-16 7.240454482217576e-16 1.0
  outer loop
    vertex 80.46028307601512 44.97119860095746 10.000000000000048
    vertex 71.55760148934328 58.3324615336949 10.000000000000032
    vertex 79.23581862088709 43.994455387356695 10.000000000000048
  endloop
endfacet
facet normal -8.881784197001252e-16 7.240454482217576e-16 1.0
  outer loop
    vertex 79.23581862088709 43.994455387356695 10.000000000000048
    vertex 71.55760148934328 58.3324615336949 10.000000000000032
    vertex 78.3058765261605 42.73407917064893 10.000000000000048
  endloop
endfacet
facet normal -8.881784197001252e-16 7.240454482217576e-16 1.0
  outer loop
    vertex 78.3058765261605 42.73407917064893 10.000000000000048
    vertex 71.55760148934328 58.3324615336949 10.000000000000032
    vertex 77.73383080878894 41.27596250713262 10.00000000000005
  endloop
endfacet
facet normal -8.881784197001252e-16 7.240454482217576e-16 1.0
  outer loop
    vertex 77.73383080878894 41.27596250713262 10.00000000000005
    vertex 71.55760148934328 58.3324615336949 10.000000000000032
    vertex 77.55866543906107 39.71947363777467 10.00000000000005
  endloop
endfacet
facet normal -8.881784197001252e-16 7.240454482217576e-16 1.0
  outer loop
    vertex 114.55760148934333 58.3324615336949 10.000000000000071
    vertex 81.89582466245075 45.59774537558881 10.00000000000005
    vertex 83.44461359342306 45.83139758397711 10.000000000000052
  endloop
endfacet
facet normal -8.881784197001252e-16 7.240454482217576e-16 1.0
  outer loop
    vertex 114.55760148934333 58.3324615336949 10.000000000000071
    vertex 83.44461359342306 45.83139758397711 10.000000000000052
    vertex 85.001102462781 45.656232214249236 10.000000000000052
  endloop
endfacet
facet normal -8.881784197001252e-16 7.240454482217576e-16 1.0
  outer loop
    vertex 114.55760148934333 58.3324615336949 10.000000000000071
    vertex 85.001102462781 45.656232214249236 10.000000000000052
    vertex 86.45921912629731 45.08418649687769 10.000000000000053
  endloop
endfacet
facet normal -8.881784197001252e-16 7.240454482217576e-16 1.0
  outer loop
    vertex 114.55760148934333 58.3324615336949 10.000000000000071
    vertex 86.45921912629731 45.08418649687769 10.000000000000053
    vertex 87.71959534300508 44.154244402151086 10.000000000000055
  endloop
endfacet
facet normal -8.881784197001252e-16 7.240454482217576e-16 1.0
  outer loop
    vertex 114.55760148934333 58.3324615336949 10.000000000000071
    vertex 87.71959534300508 44.154244402151086 10.000000000000055
    vertex 88.69633855660584 42.92977994702307 10.000000000000059
  endloop
endfacet
facet normal -8.881784197001252e-16 7.240454482217576e-16 1.0
  outer loop
    vertex 114.55760148934333 58.3324615336949 10.000000000000071
    vertex 88.69633855660584 42.92977994702307 10.000000000000059
    vertex 89.32288533123719 41.49423836058744 10.000000000000059
  endloop
endfacet
facet normal -8.881784197001252e-16 7.240454482217576e-16 1.0
  outer loop
    vertex 114.55760148934333 58.3324615336949 10.000000000000071
    vertex 89.32288533123719 41.49423836058744 10.000000000000059
    vertex 89.55653753962548 39.94544942961513 10.00000000000006
  endloop
endfacet
facet normal -8.881784197001252e-16 7.240454482217576e-16 1.0
  outer loop
    vertex 114.55760148934333 58.3324615336949 10.000000000000071
    vertex 89.55653753962548 39.94544942961513 10.00000000000006
    vertex 114.55760148934333 21.3324615336949 10.0000000000001
  endloop
endfacet
facet normal -0.5299989400031813 5.279378807182298e-16 0.8479983040050871
  outer loop
    vertex 67.55760148934334 17.3324615336949 7.500000000000048
    vertex 71.55760148934328 58.3324615336949 10.000000000000032
    vertex 67.55760148934333 62.33246153369489 7.500000000000026
  endloop
endfacet
facet normal -0.5299989400031813 5.279378807182298e-16 0.8479983040050871
  outer loop
    vertex 71.55760148934328 58.3324615336949 10.000000000000032
    vertex 67.55760148934334 17.3324615336949 7.500000000000048
    vertex 71.55760148934328 21.3324615336949 10.000000000000066
  endloop
endfacet
facet normal -1.0 0.0 -8.881784197001252e-16
  outer loop
    vertex 98.55760148934333 20.8324615336949 7.0000000000000835
    vertex 98.55760148934333 17.332461533694897 5.000000000000081
    vertex 98.55760148934333 17.332461533694897 7.0000000000000835
  endloop
endfacet
facet normal -1.0 0.0 -8.881784197001252e-16
  outer loop
    vertex 98.55760148934333 17.332461533694897 5.000000000000081
    vertex 98.55760148934333 20.8324615336949 7.0000000000000835
    vertex 98.55760148934333 20.3324615336949 5.000000000000081
  endloop
endfacet
facet normal 8.326672684688672e-16 -7.144247488192903e-16 -1.0
  outer loop
    vertex 117.05760148934333 49.65246153369489 5.0000000000000755
    vertex 115.55760148934333 20.3324615336949 5.000000000000087
    vertex 115.55760148934333 49.65246153369489 5.00000000000007
  endloop
endfacet
facet normal 8.326672684688672e-16 -7.144247488192903e-16 -1.0
  outer loop
    vertex 118.55760148934333 62.33246153369489 5.00000000000007
    vertex 98.55760148934333 59.3324615336949 5.000000000000047
    vertex 98.55760148934333 62.33246153369489 5.000000000000047
  endloop
endfacet
facet normal 8.326672684688672e-16 -7.144247488192903e-16 -1.0
  outer loop
    vertex 98.55760148934333 59.3324615336949 5.000000000000047
    vertex 118.55760148934333 62.33246153369489 5.00000000000007
    vertex 115.55760148934333 59.3324615336949 5.000000000000064
  endloop
endfacet
facet normal 8.326672684688672e-16 -7.144247488192903e-16 -1.0
  outer loop
    vertex 115.55760148934333 59.3324615336949 5.000000000000064
    vertex 118.55760148934333 62.33246153369489 5.00000000000007
    vertex 115.55760148934333 51.05246153369489 5.000000000000064
  endloop
endfacet
facet normal 8.326672684688672e-16 -7.144247488192903e-16 -1.0
  outer loop
    vertex 115.55760148934333 51.05246153369489 5.000000000000064
    vertex 118.55760148934333 62.33246153369489 5.00000000000007
    vertex 117.05760148934333 51.05246153369489 5.0000000000000755
  endloop
endfacet
facet normal 8.326672684688672e-16 -7.144247488192903e-16 -1.0
  outer loop
    vertex 117.05760148934333 51.05246153369489 5.0000000000000755
    vertex 118.55760148934333 62.33246153369489 5.00000000000007
    vertex 117.05760148934333 49.65246153369489 5.0000000000000755
  endloop
endfacet
facet normal 8.326672684688672e-16 -7.144247488192903e-16 -1.0
  outer loop
    vertex 115.55760148934333 20.3324615336949 5.000000000000087
    vertex 98.55760148934333 17.332461533694897 5.000000000000081
    vertex 98.55760148934333 20.3324615336949 5.000000000000081
  endloop
endfacet
facet normal 8.326672684688672e-16 -7.144247488192903e-16 -1.0
  outer loop
    vertex 98.55760148934333 17.332461533694897 5.000000000000081
    vertex 115.55760148934333 20.3324615336949 5.000000000000087
    vertex 118.55760148934333 17.3324615336949 5.000000000000098
  endloop
endfacet
facet normal 8.326672684688672e-16 -7.144247488192903e-16 -1.0
  outer loop
    vertex 118.55760148934333 17.3324615336949 5.000000000000098
    vertex 115.55760148934333 20.3324615336949 5.000000000000087
    vertex 117.05760148934333 49.65246153369489 5.0000000000000755
  endloop
endfacet
facet normal 8.326672684688672e-16 -7.144247488192903e-16 -1.0
  outer loop
    vertex 118.55760148934333 17.3324615336949 5.000000000000098
    vertex 117.05760148934333 49.65246153369489 5.0000000000000755
    vertex 118.55760148934333 62.33246153369489 5.00000000000007
  endloop
endfacet
facet normal 0.0 1.0 0.0
  outer loop
    vertex 67.55760148934333 62.33246153369489 7.500000000000026
    vertex 90.5576014893433 62.33246153369489 5.000000000000042
    vertex 67.55760148934333 62.33246153369489 5.00000000000003
  endloop
endfacet
facet normal 0.0 1.0 0.0
  outer loop
    vertex 90.5576014893433 62.33246153369489 5.000000000000042
    vertex 67.55760148934333 62.33246153369489 7.500000000000026
    vertex 90.55760148934333 62.33246153369489 7.000000000000038
  endloop
endfacet
facet normal 0.0 1.0 0.0
  outer loop
    vertex 90.55760148934333 62.33246153369489 7.000000000000038
    vertex 67.55760148934333 62.33246153369489 7.500000000000026
    vertex 90.55760148934334 62.33246153369489 7.500000000000043
  endloop
endfacet
facet normal 1.0 -7.917482023227067e-16 8.881784197001252e-16
  outer loop
    vertex 98.55760148934333 25.832461533694897 -1.9999999999999203
    vertex 98.5576014893433 25.832461533694904 3.0000000000000733
    vertex 98.55760148934331 23.8324615336949 1.5000000000000875
  endloop
endfacet
facet normal 1.0 -7.917482023227067e-16 8.881784197001252e-16
  outer loop
    vertex 98.5576014893433 25.832461533694904 3.0000000000000733
    vertex 98.55760148934333 25.832461533694897 -1.9999999999999203
    vertex 98.55760148934333 27.33246153369489 -1.9999999999999203
  endloop
endfacet
facet normal 1.0 -7.917482023227067e-16 8.881784197001252e-16
  outer loop
    vertex 98.5576014893433 25.832461533694904 3.0000000000000733
    vertex 98.55760148934333 27.33246153369489 -1.9999999999999203
    vertex 98.55760148934331 25.832461533694904 7.0000000000000835
  endloop
endfacet
facet normal 1.0 -7.917482023227067e-16 8.881784197001252e-16
  outer loop
    vertex 98.55760148934331 25.832461533694904 7.0000000000000835
    vertex 98.55760148934333 27.33246153369489 -1.9999999999999203
    vertex 98.55760148934331 27.3324615336949 7.000000000000077
  endloop
endfacet
facet normal 4.440892098500626e-16 -0.8682431421244594 -0.4961389383568336
  outer loop
    vertex 98.55760148934333 25.832461533694897 -1.9999999999999203
    vertex 90.55760148934331 23.8324615336949 1.5000000000000762
    vertex 90.55760148934336 25.832461533694897 -1.9999999999999343
  endloop
endfacet
facet normal 4.440892098500626e-16 -0.8682431421244594 -0.4961389383568336
  outer loop
    vertex 90.55760148934331 23.8324615336949 1.5000000000000762
    vertex 98.55760148934333 25.832461533694897 -1.9999999999999203
    vertex 98.55760148934331 23.8324615336949 1.5000000000000875
  endloop
endfacet
facet normal 0.0 -1.0 0.0
  outer loop
    vertex 98.55760148934331 25.832461533694904 7.0000000000000835
    vertex 90.5576014893433 25.832461533694904 3.000000000000079
    vertex 98.5576014893433 25.832461533694904 3.0000000000000733
  endloop
endfacet
facet normal 0.0 -1.0 0.0
  outer loop
    vertex 90.5576014893433 25.832461533694904 3.000000000000079
    vertex 98.55760148934331 25.832461533694904 7.0000000000000835
    vertex 90.55760148934334 25.832461533694904 7.000000000000066
  endloop
endfacet
facet normal -6.661338147750939e-16 -0.5999999999999995 0.8000000000000005
  outer loop
    vertex 90.55760148934331 23.8324615336949 1.5000000000000762
    vertex 98.5576014893433 25.832461533694904 3.0000000000000733
    vertex 90.5576014893433 25.832461533694904 3.000000000000079
  endloop
endfacet
facet normal -6.661338147750939e-16 -0.5999999999999995 0.8000000000000005
  outer loop
    vertex 98.5576014893433 25.832461533694904 3.0000000000000733
    vertex 90.55760148934331 23.8324615336949 1.5000000000000762
    vertex 98.55760148934331 23.8324615336949 1.5000000000000875
  endloop
endfacet
facet normal 2.403178983554966e-16 -1.0 4.2565531812043733e-16
  outer loop
    vertex 118.55760148934333 17.3324615336949 5.000000000000098
    vertex 98.55760148934333 17.332461533694897 7.0000000000000835
    vertex 98.55760148934333 17.332461533694897 5.000000000000081
  endloop
endfacet
facet normal 2.403178983554966e-16 -1.0 4.2565531812043733e-16
  outer loop
    vertex 98.55760148934333 17.332461533694897 7.0000000000000835
    vertex 118.55760148934333 17.3324615336949 5.000000000000098
    vertex 118.55760148934333 17.3324615336949 7.500000000000105
  endloop
endfacet
facet normal 2.403178983554966e-16 -1.0 4.2565531812043733e-16
  outer loop
    vertex 98.55760148934333 17.332461533694897 7.0000000000000835
    vertex 118.55760148934333 17.3324615336949 7.500000000000105
    vertex 98.55760148934334 17.3324615336949 7.500000000000071
  endloop
endfacet
facet normal 1.0 7.77248744484252e-30 1.887379141862766e-15
  outer loop
    vertex 76.35760148934332 51.052461533694874 2.500000000000035
    vertex 76.35760148934332 49.65246153369489 7.000000000000049
    vertex 76.35760148934332 49.652461533694876 2.500000000000046
  endloop
endfacet
facet normal 1.0 7.77248744484252e-30 1.887379141862766e-15
  outer loop
    vertex 76.35760148934332 49.65246153369489 7.000000000000049
    vertex 76.35760148934332 51.052461533694874 2.500000000000035
    vertex 76.35760148934332 51.05246153369489 7.000000000000038
  endloop
endfacet
facet normal -1.2227344030925683e-29 -1.0 4.248833427946058e-15
  outer loop
    vertex 76.35760148934332 49.652461533694876 2.500000000000046
    vertex 71.35760148934334 49.65246153369489 7.000000000000027
    vertex 71.35760148934334 49.652461533694876 2.500000000000035
  endloop
endfacet
facet normal -1.2227344030925683e-29 -1.0 4.248833427946058e-15
  outer loop
    vertex 71.35760148934334 49.65246153369489 7.000000000000027
    vertex 76.35760148934332 49.652461533694876 2.500000000000046
    vertex 76.35760148934332 49.65246153369489 7.000000000000049
  endloop
endfacet
facet normal -0.40001344045381465 0.916509272978895 -1.0407470313255533e-15
  outer loop
    vertex 85.21937831623582 34.06717769180099 10.00000000000006
    vertex 86.65491990267142 34.69372446643235 7.0000000000000835
    vertex 85.21937831623579 34.06717769180101 7.0000000000000835
  endloop
endfacet
facet normal -0.40001344045381465 0.916509272978895 -1.0407470313255533e-15
  outer loop
    vertex 86.65491990267142 34.69372446643235 7.0000000000000835
    vertex 85.21937831623582 34.06717769180099 10.00000000000006
    vertex 86.65491990267145 34.69372446643234 10.000000000000062
  endloop
endfacet
facet normal -0.5937135929768231 -0.8046764377776643 5.381938515367156e-17
  outer loop
    vertex 87.71959534300508 44.154244402151086 10.000000000000055
    vertex 86.45921912629728 45.0841864968777 7.000000000000072
    vertex 87.71959534300504 44.1542444021511 7.000000000000072
  endloop
endfacet
facet normal -0.5937135929768231 -0.8046764377776643 5.381938515367156e-17
  outer loop
    vertex 86.45921912629728 45.0841864968777 7.000000000000072
    vertex 87.71959534300508 44.154244402151086 10.000000000000055
    vertex 86.45921912629731 45.08418649687769 10.000000000000053
  endloop
endfacet
facet normal -0.7817488801173038 -0.6235933678570847 -2.5100836282181715e-16
  outer loop
    vertex 87.71959534300508 44.154244402151086 10.000000000000055
    vertex 88.69633855660581 42.929779947023086 7.0000000000000835
    vertex 88.69633855660584 42.92977994702307 10.000000000000059
  endloop
endfacet
facet normal -0.7817488801173038 -0.6235933678570847 -2.5100836282181715e-16
  outer loop
    vertex 88.69633855660581 42.929779947023086 7.0000000000000835
    vertex 87.71959534300508 44.154244402151086 10.000000000000055
    vertex 87.71959534300504 44.1542444021511 7.000000000000072
  endloop
endfacet
facet normal -0.14917325813708102 0.9888110734901627 -8.65850772906645e-16
  outer loop
    vertex 83.67058938526351 33.83352548341269 10.000000000000059
    vertex 85.21937831623579 34.06717769180101 7.0000000000000835
    vertex 83.67058938526348 33.8335254834127 7.0000000000000835
  endloop
endfacet
facet normal -0.14917325813708102 0.9888110734901627 -8.65850772906645e-16
  outer loop
    vertex 85.21937831623579 34.06717769180101 7.0000000000000835
    vertex 83.67058938526351 33.83352548341269 10.000000000000059
    vertex 85.21937831623582 34.06717769180099 10.00000000000006
  endloop
endfacet
facet normal -0.9165092729788945 -0.40001344045381604 -5.387303056819247e-16
  outer loop
    vertex 88.69633855660584 42.92977994702307 10.000000000000059
    vertex 89.32288533123715 41.49423836058745 7.0000000000000835
    vertex 89.32288533123719 41.49423836058744 10.000000000000059
  endloop
endfacet
facet normal -0.9165092729788945 -0.40001344045381604 -5.387303056819247e-16
  outer loop
    vertex 89.32288533123715 41.49423836058745 7.0000000000000835
    vertex 88.69633855660584 42.92977994702307 10.000000000000059
    vertex 88.69633855660581 42.929779947023086 7.0000000000000835
  endloop
endfacet
facet normal -0.9937270334306377 0.11183283520122385 -9.869276461718768e-16
  outer loop
    vertex 89.55653753962548 39.94544942961513 10.00000000000006
    vertex 89.38137216989759 38.38896056025719 7.0000000000000835
    vertex 89.38137216989763 38.38896056025718 10.00000000000006
  endloop
endfacet
facet normal -0.9937270334306377 0.11183283520122385 -9.869276461718768e-16
  outer loop
    vertex 89.38137216989759 38.38896056025719 7.0000000000000835
    vertex 89.55653753962548 39.94544942961513 10.00000000000006
    vertex 89.55653753962545 39.945449429615145 7.0000000000000835
  endloop
endfacet
facet normal -0.9888110734901628 -0.1491732581370805 -7.897386685037402e-16
  outer loop
    vertex 89.32288533123719 41.49423836058744 10.000000000000059
    vertex 89.55653753962545 39.945449429615145 7.0000000000000835
    vertex 89.55653753962548 39.94544942961513 10.00000000000006
  endloop
endfacet
facet normal -0.9888110734901628 -0.1491732581370805 -7.897386685037402e-16
  outer loop
    vertex 89.55653753962545 39.945449429615145 7.0000000000000835
    vertex 89.32288533123719 41.49423836058744 10.000000000000059
    vertex 89.32288533123715 41.49423836058745 7.0000000000000835
  endloop
endfacet
facet normal -0.8046764377776677 0.5937135929768185 -1.1706785208821309e-15
  outer loop
    vertex 88.80932645252607 36.93084389674087 10.000000000000062
    vertex 87.87938435779944 35.67046768003311 7.0000000000000835
    vertex 87.87938435779948 35.670467680033106 10.000000000000062
  endloop
endfacet
facet normal -0.8046764377776677 0.5937135929768185 -1.1706785208821309e-15
  outer loop
    vertex 87.87938435779944 35.67046768003311 7.0000000000000835
    vertex 88.80932645252607 36.93084389674087 10.000000000000062
    vertex 88.80932645252604 36.93084389674088 7.0000000000000835
  endloop
endfacet
facet normal -0.9309221382543804 0.36521770563308215 -1.1168591357284611e-15
  outer loop
    vertex 89.38137216989763 38.38896056025718 10.00000000000006
    vertex 88.80932645252604 36.93084389674088 7.0000000000000835
    vertex 88.80932645252607 36.93084389674087 10.000000000000062
  endloop
endfacet
facet normal -0.9309221382543804 0.36521770563308215 -1.1168591357284611e-15
  outer loop
    vertex 88.80932645252604 36.93084389674088 7.0000000000000835
    vertex 89.38137216989763 38.38896056025718 10.00000000000006
    vertex 89.38137216989759 38.38896056025719 7.0000000000000835
  endloop
endfacet
facet normal -0.6235933678570852 0.7817488801173035 -1.1447180994754145e-15
  outer loop
    vertex 86.65491990267145 34.69372446643234 10.000000000000062
    vertex 87.87938435779944 35.67046768003311 7.0000000000000835
    vertex 86.65491990267142 34.69372446643235 7.0000000000000835
  endloop
endfacet
facet normal -0.6235933678570852 0.7817488801173035 -1.1447180994754145e-15
  outer loop
    vertex 87.87938435779944 35.67046768003311 7.0000000000000835
    vertex 86.65491990267145 34.69372446643234 10.000000000000062
    vertex 87.87938435779948 35.670467680033106 10.000000000000062
  endloop
endfacet
facet normal 0.9888110734901628 0.1491732581370805 7.897386685037402e-16
  outer loop
    vertex 77.79231764744935 38.17068470680237 7.000000000000072
    vertex 77.55866543906107 39.71947363777467 10.00000000000005
    vertex 77.79231764744938 38.17068470680236 10.000000000000052
  endloop
endfacet
facet normal 0.9888110734901628 0.1491732581370805 7.897386685037402e-16
  outer loop
    vertex 77.55866543906107 39.71947363777467 10.00000000000005
    vertex 77.79231764744935 38.17068470680237 7.000000000000072
    vertex 77.55866543906104 39.719473637774676 7.000000000000072
  endloop
endfacet
facet normal 0.7817488801173004 0.6235933678570892 2.5100836282181074e-16
  outer loop
    vertex 79.39560763568146 35.51067866523872 7.000000000000072
    vertex 78.41886442208072 36.73514312036673 10.000000000000052
    vertex 79.39560763568149 35.510678665238714 10.000000000000055
  endloop
endfacet
facet normal 0.7817488801173004 0.6235933678570892 2.5100836282181074e-16
  outer loop
    vertex 78.41886442208072 36.73514312036673 10.000000000000052
    vertex 79.39560763568146 35.51067866523872 7.000000000000072
    vertex 78.41886442208069 36.735143120366736 7.000000000000072
  endloop
endfacet
facet normal 0.9165092729788972 0.40001344045381 5.387303056819315e-16
  outer loop
    vertex 78.41886442208069 36.735143120366736 7.000000000000072
    vertex 77.79231764744938 38.17068470680236 10.000000000000052
    vertex 78.41886442208072 36.73514312036673 10.000000000000052
  endloop
endfacet
facet normal 0.9165092729788972 0.40001344045381 5.387303056819315e-16
  outer loop
    vertex 77.79231764744938 38.17068470680236 10.000000000000052
    vertex 78.41886442208069 36.735143120366736 7.000000000000072
    vertex 77.79231764744935 38.17068470680237 7.000000000000072
  endloop
endfacet
facet normal 0.40001344045381465 -0.916509272978895 1.0407470313255533e-15
  outer loop
    vertex 81.8958246624507 45.597745375588815 7.000000000000072
    vertex 80.46028307601512 44.97119860095746 10.000000000000048
    vertex 80.46028307601507 44.97119860095747 7.00000000000006
  endloop
endfacet
facet normal 0.40001344045381465 -0.916509272978895 1.0407470313255533e-15
  outer loop
    vertex 80.46028307601512 44.97119860095746 10.000000000000048
    vertex 81.8958246624507 45.597745375588815 7.000000000000072
    vertex 81.89582466245075 45.59774537558881 10.00000000000005
  endloop
endfacet
facet normal 0.5937135929768231 0.8046764377776643 -5.381938515367156e-17
  outer loop
    vertex 79.39560763568149 35.510678665238714 10.000000000000055
    vertex 80.65598385238921 34.58073657051212 7.000000000000072
    vertex 79.39560763568146 35.51067866523872 7.000000000000072
  endloop
endfacet
facet normal 0.5937135929768231 0.8046764377776643 -5.381938515367156e-17
  outer loop
    vertex 80.65598385238921 34.58073657051212 7.000000000000072
    vertex 79.39560763568149 35.510678665238714 10.000000000000055
    vertex 80.65598385238926 34.58073657051211 10.000000000000057
  endloop
endfacet
facet normal 0.9309221382543806 -0.3652177056330809 1.1168591357284605e-15
  outer loop
    vertex 77.73383080878891 41.27596250713263 7.000000000000072
    vertex 78.3058765261605 42.73407917064893 10.000000000000048
    vertex 77.73383080878894 41.27596250713262 10.00000000000005
  endloop
endfacet
facet normal 0.9309221382543806 -0.3652177056330809 1.1168591357284605e-15
  outer loop
    vertex 78.3058765261605 42.73407917064893 10.000000000000048
    vertex 77.73383080878891 41.27596250713263 7.000000000000072
    vertex 78.30587652616046 42.73407917064895 7.00000000000006
  endloop
endfacet
facet normal 0.14917325813708102 -0.9888110734901627 8.65850772906645e-16
  outer loop
    vertex 83.44461359342306 45.83139758397711 10.000000000000052
    vertex 81.8958246624507 45.597745375588815 7.000000000000072
    vertex 83.44461359342301 45.83139758397712 7.000000000000072
  endloop
endfacet
facet normal 0.14917325813708102 -0.9888110734901627 8.65850772906645e-16
  outer loop
    vertex 81.8958246624507 45.597745375588815 7.000000000000072
    vertex 83.44461359342306 45.83139758397711 10.000000000000052
    vertex 81.89582466245075 45.59774537558881 10.00000000000005
  endloop
endfacet
facet normal 0.36521770563307593 0.9309221382543829 -3.5497943097167504e-16
  outer loop
    vertex 80.65598385238926 34.58073657051211 10.000000000000057
    vertex 82.11410051590553 34.00869085314057 7.0000000000000835
    vertex 80.65598385238921 34.58073657051212 7.000000000000072
  endloop
endfacet
facet normal 0.36521770563307593 0.9309221382543829 -3.5497943097167504e-16
  outer loop
    vertex 82.11410051590553 34.00869085314057 7.0000000000000835
    vertex 80.65598385238926 34.58073657051211 10.000000000000057
    vertex 82.11410051590556 34.008690853140564 10.000000000000059
  endloop
endfacet
facet normal 0.9937270334306377 -0.11183283520122385 9.869276461718768e-16
  outer loop
    vertex 77.55866543906104 39.719473637774676 7.000000000000072
    vertex 77.73383080878894 41.27596250713262 10.00000000000005
    vertex 77.55866543906107 39.71947363777467 10.00000000000005
  endloop
endfacet
facet normal 0.9937270334306377 -0.11183283520122385 9.869276461718768e-16
  outer loop
    vertex 77.73383080878894 41.27596250713262 10.00000000000005
    vertex 77.55866543906104 39.719473637774676 7.000000000000072
    vertex 77.73383080878891 41.27596250713263 7.000000000000072
  endloop
endfacet
facet normal 0.8046764377776664 -0.5937135929768202 1.170678520882131e-15
  outer loop
    vertex 78.30587652616046 42.73407917064895 7.00000000000006
    vertex 79.23581862088709 43.994455387356695 10.000000000000048
    vertex 78.3058765261605 42.73407917064893 10.000000000000048
  endloop
endfacet
facet normal 0.8046764377776664 -0.5937135929768202 1.170678520882131e-15
  outer loop
    vertex 79.23581862088709 43.994455387356695 10.000000000000048
    vertex 78.30587652616046 42.73407917064895 7.00000000000006
    vertex 79.23581862088706 43.99445538735671 7.00000000000006
  endloop
endfacet
facet normal -0.11183283520123098 -0.9937270334306371 6.319482152002043e-16
  outer loop
    vertex 85.001102462781 45.656232214249236 10.000000000000052
    vertex 83.44461359342301 45.83139758397712 7.000000000000072
    vertex 85.00110246278096 45.65623221424925 7.000000000000072
  endloop
endfacet
facet normal -0.11183283520123098 -0.9937270334306371 6.319482152002043e-16
  outer loop
    vertex 83.44461359342301 45.83139758397712 7.000000000000072
    vertex 85.001102462781 45.656232214249236 10.000000000000052
    vertex 83.44461359342306 45.83139758397711 10.000000000000052
  endloop
endfacet
facet normal -0.36521770563307593 -0.9309221382543829 3.5497943097167504e-16
  outer loop
    vertex 86.45921912629731 45.08418649687769 10.000000000000053
    vertex 85.00110246278096 45.65623221424925 7.000000000000072
    vertex 86.45921912629728 45.0841864968777 7.000000000000072
  endloop
endfacet
facet normal -0.36521770563307593 -0.9309221382543829 3.5497943097167504e-16
  outer loop
    vertex 85.00110246278096 45.65623221424925 7.000000000000072
    vertex 86.45921912629731 45.08418649687769 10.000000000000053
    vertex 85.001102462781 45.656232214249236 10.000000000000052
  endloop
endfacet
facet normal 0.11183283520123098 0.9937270334306371 -6.319482152002043e-16
  outer loop
    vertex 82.11410051590556 34.008690853140564 10.000000000000059
    vertex 83.67058938526348 33.8335254834127 7.0000000000000835
    vertex 82.11410051590553 34.00869085314057 7.0000000000000835
  endloop
endfacet
facet normal 0.11183283520123098 0.9937270334306371 -6.319482152002043e-16
  outer loop
    vertex 83.67058938526348 33.8335254834127 7.0000000000000835
    vertex 82.11410051590556 34.008690853140564 10.000000000000059
    vertex 83.67058938526351 33.83352548341269 10.000000000000059
  endloop
endfacet
facet normal 0.6235933678570852 -0.7817488801173035 1.1447180994754145e-15
  outer loop
    vertex 80.46028307601512 44.97119860095746 10.000000000000048
    vertex 79.23581862088706 43.99445538735671 7.00000000000006
    vertex 80.46028307601507 44.97119860095747 7.00000000000006
  endloop
endfacet
facet normal 0.6235933678570852 -0.7817488801173035 1.1447180994754145e-15
  outer loop
    vertex 79.23581862088706 43.99445538735671 7.00000000000006
    vertex 80.46028307601512 44.97119860095746 10.000000000000048
    vertex 79.23581862088709 43.994455387356695 10.000000000000048
  endloop
endfacet
endsolid Mic-Holder
