solid RV-Window-Widget
facet normal 0.06540312923014323 0.9978589232386036 -0.0
  outer loop
    vertex 59.3852713134766 2.564639149328511 18.00000000000001
    vertex 68.00000000000001 1.9999999999999962 4.511946372076636e-14
    vertex 59.3852713134766 2.564639149328511 4.511946372076636e-14
  endloop
endfacet
facet normal 0.06540312923014323 0.9978589232386036 -0.0
  outer loop
    vertex 68.00000000000001 1.9999999999999962 4.511946372076636e-14
    vertex 59.3852713134766 2.564639149328511 18.00000000000001
    vertex 68.00000000000001 1.9999999999999962 18.00000000000001
  endloop
endfacet
facet normal 0.0 -1.0 0.0
  outer loop
    vertex 68.0 0.0 0.0
    vertex 18.0 0.0 18.00000000000001
    vertex 18.0 0.0 -1.4099832412739487e-15
  endloop
endfacet
facet normal 0.0 -1.0 0.0
  outer loop
    vertex 18.0 0.0 18.00000000000001
    vertex 68.0 0.0 0.0
    vertex 68.0 0.0 18.00000000000001
  endloop
endfacet
facet normal 0.19509032201612833 0.9807852804032304 0.0
  outer loop
    vertex 50.91794302323363 4.248895464921492 18.00000000000001
    vertex 59.3852713134766 2.564639149328511 4.511946372076636e-14
    vertex 50.91794302323363 4.248895464921492 4.511946372076636e-14
  endloop
endfacet
facet normal 0.19509032201612833 0.9807852804032304 0.0
  outer loop
    vertex 59.3852713134766 2.564639149328511 4.511946372076636e-14
    vertex 50.91794302323363 4.248895464921492 18.00000000000001
    vertex 59.3852713134766 2.564639149328511 18.00000000000001
  endloop
endfacet
facet normal 0.9978589232386036 0.06540312923014331 -0.0
  outer loop
    vertex 1.9999999999999962 68.0 4.511946372076636e-14
    vertex 2.564639149328511 59.3852713134766 18.00000000000001
    vertex 2.564639149328511 59.3852713134766 4.511946372076636e-14
  endloop
endfacet
facet normal 0.9978589232386036 0.06540312923014331 -0.0
  outer loop
    vertex 2.564639149328511 59.3852713134766 18.00000000000001
    vertex 1.9999999999999962 68.0 4.511946372076636e-14
    vertex 1.9999999999999962 68.0 18.00000000000001
  endloop
endfacet
facet normal 0.9807852804032304 0.19509032201612833 0.0
  outer loop
    vertex 2.564639149328511 59.3852713134766 4.511946372076636e-14
    vertex 4.248895464921492 50.91794302323363 18.00000000000001
    vertex 4.248895464921492 50.91794302323363 4.511946372076636e-14
  endloop
endfacet
facet normal 0.9807852804032304 0.19509032201612833 0.0
  outer loop
    vertex 4.248895464921492 50.91794302323363 18.00000000000001
    vertex 2.564639149328511 59.3852713134766 4.511946372076636e-14
    vertex 2.564639149328511 59.3852713134766 18.00000000000001
  endloop
endfacet
facet normal -1.0 0.0 0.0
  outer loop
    vertex 0.0 68.0 18.00000000000001
    vertex 0.0 18.0 -1.4099832412739487e-15
    vertex 0.0 18.0 18.00000000000001
  endloop
endfacet
facet normal -1.0 0.0 0.0
  outer loop
    vertex 0.0 18.0 -1.4099832412739487e-15
    vertex 0.0 68.0 18.00000000000001
    vertex 0.0 68.0 0.0
  endloop
endfacet
facet normal 0.32143946530316125 0.9469301294951059 0.0
  outer loop
    vertex 42.74289346390407 7.023950854255073 18.00000000000001
    vertex 50.91794302323363 4.248895464921492 4.511946372076636e-14
    vertex 42.74289346390407 7.023950854255073 4.511946372076636e-14
  endloop
endfacet
facet normal 0.32143946530316125 0.9469301294951059 0.0
  outer loop
    vertex 50.91794302323363 4.248895464921492 4.511946372076636e-14
    vertex 42.74289346390407 7.023950854255073 18.00000000000001
    vertex 50.91794302323363 4.248895464921492 18.00000000000001
  endloop
endfacet
facet normal 0.44228869021900125 0.8968727415326884 0.0
  outer loop
    vertex 34.99999999999999 10.842323350227048 18.00000000000001
    vertex 42.74289346390407 7.023950854255073 4.511946372076636e-14
    vertex 34.99999999999999 10.842323350227048 4.511946372076636e-14
  endloop
endfacet
facet normal 0.44228869021900125 0.8968727415326884 0.0
  outer loop
    vertex 42.74289346390407 7.023950854255073 4.511946372076636e-14
    vertex 34.99999999999999 10.842323350227048 18.00000000000001
    vertex 42.74289346390407 7.023950854255073 18.00000000000001
  endloop
endfacet
facet normal 0.5555702330196022 0.8314696123025452 0.0
  outer loop
    vertex 27.821745685424418 15.638679540778485 18.00000000000001
    vertex 34.99999999999999 10.842323350227048 4.511946372076636e-14
    vertex 27.821745685424418 15.638679540778485 4.511946372076636e-14
  endloop
endfacet
facet normal 0.5555702330196022 0.8314696123025452 0.0
  outer loop
    vertex 34.99999999999999 10.842323350227048 4.511946372076636e-14
    vertex 27.821745685424418 15.638679540778485 18.00000000000001
    vertex 34.99999999999999 10.842323350227048 18.00000000000001
  endloop
endfacet
facet normal 0.6593458151000687 0.7518398074789775 0.0
  outer loop
    vertex 21.33095244168785 21.330952441687867 18.00000000000001
    vertex 27.821745685424418 15.638679540778485 4.511946372076636e-14
    vertex 21.33095244168785 21.330952441687867 4.511946372076636e-14
  endloop
endfacet
facet normal 0.6593458151000687 0.7518398074789775 0.0
  outer loop
    vertex 27.821745685424418 15.638679540778485 4.511946372076636e-14
    vertex 21.33095244168785 21.330952441687867 18.00000000000001
    vertex 27.821745685424418 15.638679540778485 18.00000000000001
  endloop
endfacet
facet normal 0.7518398074789782 0.6593458151000681 0.0
  outer loop
    vertex 15.638679540778474 27.821745685424442 4.511946372076636e-14
    vertex 21.33095244168785 21.330952441687867 18.00000000000001
    vertex 21.33095244168785 21.330952441687867 4.511946372076636e-14
  endloop
endfacet
facet normal 0.7518398074789782 0.6593458151000681 0.0
  outer loop
    vertex 21.33095244168785 21.330952441687867 18.00000000000001
    vertex 15.638679540778474 27.821745685424442 4.511946372076636e-14
    vertex 15.638679540778474 27.821745685424442 18.00000000000001
  endloop
endfacet
facet normal 0.831469612302545 0.5555702330196028 0.0
  outer loop
    vertex 10.842323350227037 35.0 4.511946372076636e-14
    vertex 15.638679540778474 27.821745685424442 18.00000000000001
    vertex 15.638679540778474 27.821745685424442 4.511946372076636e-14
  endloop
endfacet
facet normal 0.831469612302545 0.5555702330196028 0.0
  outer loop
    vertex 15.638679540778474 27.821745685424442 18.00000000000001
    vertex 10.842323350227037 35.0 4.511946372076636e-14
    vertex 10.842323350227037 35.0 18.00000000000001
  endloop
endfacet
facet normal 0.8968727415326887 0.44228869021900075 0.0
  outer loop
    vertex 7.023950854255073 42.74289346390407 4.511946372076636e-14
    vertex 10.842323350227037 35.0 18.00000000000001
    vertex 10.842323350227037 35.0 4.511946372076636e-14
  endloop
endfacet
facet normal 0.8968727415326887 0.44228869021900075 0.0
  outer loop
    vertex 10.842323350227037 35.0 18.00000000000001
    vertex 7.023950854255073 42.74289346390407 4.511946372076636e-14
    vertex 7.023950854255073 42.74289346390407 18.00000000000001
  endloop
endfacet
facet normal 0.9469301294951059 0.32143946530316125 0.0
  outer loop
    vertex 4.248895464921492 50.91794302323363 4.511946372076636e-14
    vertex 7.023950854255073 42.74289346390407 18.00000000000001
    vertex 7.023950854255073 42.74289346390407 4.511946372076636e-14
  endloop
endfacet
facet normal 0.9469301294951059 0.32143946530316125 0.0
  outer loop
    vertex 7.023950854255073 42.74289346390407 18.00000000000001
    vertex 4.248895464921492 50.91794302323363 4.511946372076636e-14
    vertex 4.248895464921492 50.91794302323363 18.00000000000001
  endloop
endfacet
facet normal 0.0 0.0 1.0
  outer loop
    vertex 0.0 18.0 18.00000000000001
    vertex 4.248895464921492 50.91794302323363 18.00000000000001
    vertex 0.0 68.0 18.00000000000001
  endloop
endfacet
facet normal 0.0 0.0 1.0
  outer loop
    vertex 4.248895464921492 50.91794302323363 18.00000000000001
    vertex 0.0 18.0 18.00000000000001
    vertex 18.0 0.0 18.00000000000001
  endloop
endfacet
facet normal 0.0 0.0 1.0
  outer loop
    vertex 0.0 68.0 18.00000000000001
    vertex 4.248895464921492 50.91794302323363 18.00000000000001
    vertex 2.564639149328511 59.3852713134766 18.00000000000001
  endloop
endfacet
facet normal 0.0 0.0 1.0
  outer loop
    vertex 0.0 68.0 18.00000000000001
    vertex 2.564639149328511 59.3852713134766 18.00000000000001
    vertex 1.9999999999999962 68.0 18.00000000000001
  endloop
endfacet
facet normal 0.0 0.0 1.0
  outer loop
    vertex 4.248895464921492 50.91794302323363 18.00000000000001
    vertex 18.0 0.0 18.00000000000001
    vertex 7.023950854255073 42.74289346390407 18.00000000000001
  endloop
endfacet
facet normal 0.0 0.0 1.0
  outer loop
    vertex 7.023950854255073 42.74289346390407 18.00000000000001
    vertex 18.0 0.0 18.00000000000001
    vertex 10.842323350227037 35.0 18.00000000000001
  endloop
endfacet
facet normal 0.0 0.0 1.0
  outer loop
    vertex 10.842323350227037 35.0 18.00000000000001
    vertex 18.0 0.0 18.00000000000001
    vertex 15.638679540778474 27.821745685424442 18.00000000000001
  endloop
endfacet
facet normal 0.0 0.0 1.0
  outer loop
    vertex 15.638679540778474 27.821745685424442 18.00000000000001
    vertex 18.0 0.0 18.00000000000001
    vertex 21.33095244168785 21.330952441687867 18.00000000000001
  endloop
endfacet
facet normal 0.0 0.0 1.0
  outer loop
    vertex 21.33095244168785 21.330952441687867 18.00000000000001
    vertex 18.0 0.0 18.00000000000001
    vertex 27.821745685424418 15.638679540778485 18.00000000000001
  endloop
endfacet
facet normal 0.0 0.0 1.0
  outer loop
    vertex 27.821745685424418 15.638679540778485 18.00000000000001
    vertex 18.0 0.0 18.00000000000001
    vertex 34.99999999999999 10.842323350227048 18.00000000000001
  endloop
endfacet
facet normal 0.0 0.0 1.0
  outer loop
    vertex 34.99999999999999 10.842323350227048 18.00000000000001
    vertex 18.0 0.0 18.00000000000001
    vertex 42.74289346390407 7.023950854255073 18.00000000000001
  endloop
endfacet
facet normal 0.0 0.0 1.0
  outer loop
    vertex 42.74289346390407 7.023950854255073 18.00000000000001
    vertex 18.0 0.0 18.00000000000001
    vertex 50.91794302323363 4.248895464921492 18.00000000000001
  endloop
endfacet
facet normal 0.0 0.0 1.0
  outer loop
    vertex 50.91794302323363 4.248895464921492 18.00000000000001
    vertex 18.0 0.0 18.00000000000001
    vertex 68.0 0.0 18.00000000000001
  endloop
endfacet
facet normal 0.0 0.0 1.0
  outer loop
    vertex 50.91794302323363 4.248895464921492 18.00000000000001
    vertex 68.0 0.0 18.00000000000001
    vertex 59.3852713134766 2.564639149328511 18.00000000000001
  endloop
endfacet
facet normal 0.0 0.0 1.0
  outer loop
    vertex 59.3852713134766 2.564639149328511 18.00000000000001
    vertex 68.0 0.0 18.00000000000001
    vertex 68.00000000000001 1.9999999999999962 18.00000000000001
  endloop
endfacet
facet normal -0.0 1.0 -0.0
  outer loop
    vertex 0.0 68.0 18.00000000000001
    vertex 1.9999999999999962 68.0 4.511946372076636e-14
    vertex 0.0 68.0 0.0
  endloop
endfacet
facet normal -0.0 1.0 -0.0
  outer loop
    vertex 1.9999999999999962 68.0 4.511946372076636e-14
    vertex 0.0 68.0 18.00000000000001
    vertex 1.9999999999999962 68.0 18.00000000000001
  endloop
endfacet
facet normal 1.0 -5.639932965095806e-15 -2.9409064211137993e-33
  outer loop
    vertex 68.00000000000001 1.9999999999999962 4.511946372076636e-14
    vertex 68.0 0.0 18.00000000000001
    vertex 68.0 0.0 0.0
  endloop
endfacet
facet normal 1.0 -5.639932965095806e-15 -2.9409064211137993e-33
  outer loop
    vertex 68.0 0.0 18.00000000000001
    vertex 68.00000000000001 1.9999999999999962 4.511946372076636e-14
    vertex 68.00000000000001 1.9999999999999962 18.00000000000001
  endloop
endfacet
facet normal -0.7071067811865476 -0.7071067811865476 0.0
  outer loop
    vertex 0.0 18.0 18.00000000000001
    vertex 18.0 0.0 -1.4099832412739487e-15
    vertex 18.0 0.0 18.00000000000001
  endloop
endfacet
facet normal -0.7071067811865476 -0.7071067811865476 0.0
  outer loop
    vertex 18.0 0.0 -1.4099832412739487e-15
    vertex 0.0 18.0 18.00000000000001
    vertex 0.0 18.0 -1.4099832412739487e-15
  endloop
endfacet
facet normal 7.049916206369745e-17 7.049916206369743e-17 -1.0
  outer loop
    vertex 1.9999999999999962 68.0 4.511946372076636e-14
    vertex 0.0 18.0 -1.4099832412739487e-15
    vertex 0.0 68.0 0.0
  endloop
endfacet
facet normal 7.049916206369745e-17 7.049916206369743e-17 -1.0
  outer loop
    vertex 0.0 18.0 -1.4099832412739487e-15
    vertex 1.9999999999999962 68.0 4.511946372076636e-14
    vertex 2.564639149328511 59.3852713134766 4.511946372076636e-14
  endloop
endfacet
facet normal 7.049916206369745e-17 7.049916206369743e-17 -1.0
  outer loop
    vertex 0.0 18.0 -1.4099832412739487e-15
    vertex 2.564639149328511 59.3852713134766 4.511946372076636e-14
    vertex 4.248895464921492 50.91794302323363 4.511946372076636e-14
  endloop
endfacet
facet normal 7.049916206369745e-17 7.049916206369743e-17 -1.0
  outer loop
    vertex 0.0 18.0 -1.4099832412739487e-15
    vertex 4.248895464921492 50.91794302323363 4.511946372076636e-14
    vertex 18.0 0.0 -1.4099832412739487e-15
  endloop
endfacet
facet normal 7.049916206369745e-17 7.049916206369743e-17 -1.0
  outer loop
    vertex 18.0 0.0 -1.4099832412739487e-15
    vertex 4.248895464921492 50.91794302323363 4.511946372076636e-14
    vertex 7.023950854255073 42.74289346390407 4.511946372076636e-14
  endloop
endfacet
facet normal 7.049916206369745e-17 7.049916206369743e-17 -1.0
  outer loop
    vertex 18.0 0.0 -1.4099832412739487e-15
    vertex 7.023950854255073 42.74289346390407 4.511946372076636e-14
    vertex 10.842323350227037 35.0 4.511946372076636e-14
  endloop
endfacet
facet normal 7.049916206369745e-17 7.049916206369743e-17 -1.0
  outer loop
    vertex 18.0 0.0 -1.4099832412739487e-15
    vertex 10.842323350227037 35.0 4.511946372076636e-14
    vertex 15.638679540778474 27.821745685424442 4.511946372076636e-14
  endloop
endfacet
facet normal 7.049916206369745e-17 7.049916206369743e-17 -1.0
  outer loop
    vertex 18.0 0.0 -1.4099832412739487e-15
    vertex 15.638679540778474 27.821745685424442 4.511946372076636e-14
    vertex 21.33095244168785 21.330952441687867 4.511946372076636e-14
  endloop
endfacet
facet normal 7.049916206369745e-17 7.049916206369743e-17 -1.0
  outer loop
    vertex 18.0 0.0 -1.4099832412739487e-15
    vertex 21.33095244168785 21.330952441687867 4.511946372076636e-14
    vertex 27.821745685424418 15.638679540778485 4.511946372076636e-14
  endloop
endfacet
facet normal 7.049916206369745e-17 7.049916206369743e-17 -1.0
  outer loop
    vertex 18.0 0.0 -1.4099832412739487e-15
    vertex 27.821745685424418 15.638679540778485 4.511946372076636e-14
    vertex 34.99999999999999 10.842323350227048 4.511946372076636e-14
  endloop
endfacet
facet normal 7.049916206369745e-17 7.049916206369743e-17 -1.0
  outer loop
    vertex 18.0 0.0 -1.4099832412739487e-15
    vertex 34.99999999999999 10.842323350227048 4.511946372076636e-14
    vertex 42.74289346390407 7.023950854255073 4.511946372076636e-14
  endloop
endfacet
facet normal 7.049916206369745e-17 7.049916206369743e-17 -1.0
  outer loop
    vertex 18.0 0.0 -1.4099832412739487e-15
    vertex 42.74289346390407 7.023950854255073 4.511946372076636e-14
    vertex 50.91794302323363 4.248895464921492 4.511946372076636e-14
  endloop
endfacet
facet normal 7.049916206369745e-17 7.049916206369743e-17 -1.0
  outer loop
    vertex 18.0 0.0 -1.4099832412739487e-15
    vertex 50.91794302323363 4.248895464921492 4.511946372076636e-14
    vertex 68.0 0.0 0.0
  endloop
endfacet
facet normal 7.049916206369745e-17 7.049916206369743e-17 -1.0
  outer loop
    vertex 68.0 0.0 0.0
    vertex 50.91794302323363 4.248895464921492 4.511946372076636e-14
    vertex 59.3852713134766 2.564639149328511 4.511946372076636e-14
  endloop
endfacet
facet normal 7.049916206369745e-17 7.049916206369743e-17 -1.0
  outer loop
    vertex 68.0 0.0 0.0
    vertex 59.3852713134766 2.564639149328511 4.511946372076636e-14
    vertex 68.00000000000001 1.9999999999999962 4.511946372076636e-14
  endloop
endfacet
endsolid RV-Window-Widget
